<?xml version="1.0" encoding="utf-8"?>
<!-- Generator: Adobe Illustrator 21.0.2, SVG Export Plug-In . SVG Version: 6.00 Build 0)  -->
<svg version="1.1" id="Landing" xmlns="http://www.w3.org/2000/svg" xmlns:xlink="http://www.w3.org/1999/xlink" x="0px" y="0px"
	 viewBox="0 0 28.4 28.4" style="enable-background:new 0 0 28.4 28.4;" xml:space="preserve">
<style type="text/css">
	.st0{fill:#1DB2A3;}
</style>
<title>autopilot-landing-orange</title>
<path class="st0" d="M2.2,16.9L2.2,16.9c-0.3,0-0.6,0.2-0.7,0.6c0,0.3,0.1,0.5,0.4,0.6l8.6,2.9l-2.9,1.1c-0.3,0-0.5,0.3-0.5,0.5
	c0,0.3,0.3,0.5,0.6,0.5l1.9,0.3h0.2l7.1-1.2l6.9,1.1c2.6,0.4,3-0.5,3-0.8c0-0.4-0.1-0.7-0.3-1c-0.3-0.4-1-0.6-1.8-1.1
	c-0.3-0.1-0.5-0.6-0.7-0.7c-0.5-0.4-0.8-0.6-3.2-1L7.2,16.5l-2.3-4.8c-0.1-0.2-0.3-0.3-0.4-0.4l-0.9-0.1c-0.4-0.1-0.7,0.2-0.7,0.5
	v0.1L3,17L2.2,16.9z"/>
<path class="st0" d="M28.4,27.2H0v1.2h28.4V27.2z"/>
</svg>
