<svg xmlns="http://www.w3.org/2000/svg" width="67.332" height="67.332" viewBox="0 0 67.332 67.332">
  <g id="cell-blue" transform="translate(-3.375 -3.375)">
    <path id="Path_57" data-name="Path 57" d="M30.885,3.99a2.256,2.256,0,0,0-1.57-.615,2.35,2.35,0,0,0-1.6.631,2.133,2.133,0,0,0,.016,3.108,23.577,23.577,0,0,1,7.623,17.335h0a23.63,23.63,0,0,1-7.623,17.335,2.1,2.1,0,0,0-.68,1.554,2.131,2.131,0,0,0,.664,1.554,2.33,2.33,0,0,0,3.172.016,27.81,27.81,0,0,0,9-20.459h0v-.016h0A27.835,27.835,0,0,0,30.885,3.99Z" transform="translate(30.823 0)" fill="#182145"/>
    <path id="Path_58" data-name="Path 58" d="M26.675,7.127a2.084,2.084,0,0,0-1.457-.566,2.133,2.133,0,0,0-1.441.55,1.9,1.9,0,0,0-.016,2.816,14.143,14.143,0,0,1,4.5,10.359h0a14.2,14.2,0,0,1-4.5,10.359,1.9,1.9,0,0,0,.016,2.816,2.1,2.1,0,0,0,1.441.55,2.158,2.158,0,0,0,1.457-.566,18.033,18.033,0,0,0,5.73-13.159h0v-.016h0A18.024,18.024,0,0,0,26.675,7.127Z" transform="translate(25.742 4.147)" fill="#182145"/>
    <path id="Path_59" data-name="Path 59" d="M15.53,7.114a2.1,2.1,0,0,0,.68-1.554,2.131,2.131,0,0,0-.664-1.554,2.292,2.292,0,0,0-1.6-.631h0a2.3,2.3,0,0,0-1.57.615,27.81,27.81,0,0,0-9,20.459v.032h0a27.827,27.827,0,0,0,9,20.426,2.256,2.256,0,0,0,1.57.615,2.35,2.35,0,0,0,1.6-.631,2.133,2.133,0,0,0-.016-3.108A23.577,23.577,0,0,1,7.907,24.449h0A23.517,23.517,0,0,1,15.53,7.114Z" transform="translate(0 0)" fill="#182145"/>
    <path id="Path_60" data-name="Path 60" d="M17.474,9.927a1.9,1.9,0,0,0-.016-2.816,2.1,2.1,0,0,0-1.441-.55,2.158,2.158,0,0,0-1.457.566,18.033,18.033,0,0,0-5.73,13.159V20.3h0a17.971,17.971,0,0,0,5.73,13.143,2.084,2.084,0,0,0,1.457.566,2.133,2.133,0,0,0,1.441-.55,1.9,1.9,0,0,0,.016-2.816,14.143,14.143,0,0,1-4.5-10.359h0A14.108,14.108,0,0,1,17.474,9.927Z" transform="translate(7.104 4.147)" fill="#182145"/>
    <path id="Path_61" data-name="Path 61" d="M22.394,8.663a7.768,7.768,0,0,0-2.266,15.2V61.573a2.266,2.266,0,0,0,4.532,0V23.861a7.768,7.768,0,0,0-2.266-15.2Z" transform="translate(14.647 6.884)" fill="#182145"/>
  </g>
</svg>
