<svg id="Layer_1" data-name="Layer 1" xmlns="http://www.w3.org/2000/svg" viewBox="0 0 317.6 41.77"><defs><style>.cls-1{fill:#fff;}</style></defs><title>greenpark-telescope-logo</title><path class="cls-1" d="M50.84,67.45h-4V31.29H33.49V27.7H64.15v3.59H50.84Z" transform="translate(-33.49 -26.69)"/><path class="cls-1" d="M75.54,63.86H96.82v3.59H71.5V27.7H96.15v3.59H75.54V44.94H94.8v3.59H75.54Z" transform="translate(-33.49 -26.69)"/><path class="cls-1" d="M110.13,63.86h18.53v3.59H106.08V27.7h4Z" transform="translate(-33.49 -26.69)"/><path class="cls-1" d="M140.16,63.86h21.28v3.59H136.12V27.7h24.65v3.59h-20.6V44.94h19.26v3.59H140.16Z" transform="translate(-33.49 -26.69)"/><path class="cls-1" d="M189.57,34.1a9.72,9.72,0,0,0-3.31-2.89,10.14,10.14,0,0,0-4.88-1.09,10.46,10.46,0,0,0-3,.45,8.66,8.66,0,0,0-2.75,1.38,7.08,7.08,0,0,0-2,2.33,6.88,6.88,0,0,0-.76,3.31,6.12,6.12,0,0,0,.73,3.15,6.9,6.9,0,0,0,1.93,2.1,11.18,11.18,0,0,0,2.74,1.43q1.54.56,3.22,1.12,2.07.67,4.17,1.46a15,15,0,0,1,3.78,2,9.92,9.92,0,0,1,2.74,3.2A10.15,10.15,0,0,1,193.27,57a10.92,10.92,0,0,1-1.13,5.14,10.77,10.77,0,0,1-2.95,3.57A12.25,12.25,0,0,1,185,67.78a16.81,16.81,0,0,1-4.69.67,18,18,0,0,1-3.59-.36,16.26,16.26,0,0,1-3.43-1.1,13.94,13.94,0,0,1-3-1.85,13.38,13.38,0,0,1-2.47-2.58L171.32,60a10.63,10.63,0,0,0,3.62,3.56A10.24,10.24,0,0,0,180.42,65a10.56,10.56,0,0,0,3.09-.48A8.66,8.66,0,0,0,186.34,63a8.08,8.08,0,0,0,2.08-2.41,7.49,7.49,0,0,0,0-6.79,7.25,7.25,0,0,0-2.16-2.3A13.23,13.23,0,0,0,183.17,50q-1.74-.62-3.65-1.24t-3.87-1.4a13.11,13.11,0,0,1-3.43-2,9.58,9.58,0,0,1-2.44-3.12,10.09,10.09,0,0,1-.93-4.55A10,10,0,0,1,170,32.7a10.42,10.42,0,0,1,3-3.42,12.58,12.58,0,0,1,4.1-2,16.66,16.66,0,0,1,4.43-.62,15.31,15.31,0,0,1,6.91,1.43,11.87,11.87,0,0,1,4.32,3.4Z" transform="translate(-33.49 -26.69)"/><path class="cls-1" d="M237.18,61a16.57,16.57,0,0,1-2.44,2.87,16,16,0,0,1-3.31,2.38,18.44,18.44,0,0,1-4.15,1.63,19.53,19.53,0,0,1-5,.6A21.6,21.6,0,0,1,214,66.89a19.62,19.62,0,0,1-6.57-4.35,19.84,19.84,0,0,1-4.29-6.6,22.1,22.1,0,0,1-1.54-8.37,21.75,21.75,0,0,1,1.57-8.37,19.73,19.73,0,0,1,10.92-10.95,21.26,21.26,0,0,1,8.23-1.57,20.45,20.45,0,0,1,8.25,1.74,16.91,16.91,0,0,1,3.37,2A11.64,11.64,0,0,1,236.45,33l-3.37,2.47a10.17,10.17,0,0,0-1.66-1.91A11.32,11.32,0,0,0,229,31.91a15.42,15.42,0,0,0-3.06-1.18,13.6,13.6,0,0,0-3.57-.45,16.51,16.51,0,0,0-6.93,1.4,15.6,15.6,0,0,0-5.19,3.78A16.47,16.47,0,0,0,207,41a19.42,19.42,0,0,0-1.12,6.6,19,19,0,0,0,1.15,6.6,16.87,16.87,0,0,0,3.29,5.51,15.57,15.57,0,0,0,5.19,3.78,16.35,16.35,0,0,0,6.88,1.4,15.55,15.55,0,0,0,6.51-1.4A12.35,12.35,0,0,0,234,59Z" transform="translate(-33.49 -26.69)"/><path class="cls-1" d="M291.36,27.7h11.23a21.79,21.79,0,0,1,5.5.65,12.17,12.17,0,0,1,4.24,2A8.85,8.85,0,0,1,315,33.62a10.76,10.76,0,0,1,1,4.69A10.49,10.49,0,0,1,315,43a9.06,9.06,0,0,1-2.75,3.31,12.49,12.49,0,0,1-4.27,2,21.23,21.23,0,0,1-5.53.67H295.4V67.45h-4V27.7Zm4,17.85h6.85q4.77,0,7.24-1.85A6.33,6.33,0,0,0,312,38.31a6.05,6.05,0,0,0-2.55-5.42,12.77,12.77,0,0,0-7.16-1.71H295.4V45.55Z" transform="translate(-33.49 -26.69)"/><path class="cls-1" d="M329.81,63.86h21.28v3.59H325.77V27.7h24.65v3.59h-20.6V44.94h19.26v3.59H329.81V63.86Z" transform="translate(-33.49 -26.69)"/><path class="cls-1" d="M254.32,40.21V29.45s7.19-5,18.88-.32Z" transform="translate(-33.49 -26.69)"/><path class="cls-1" d="M252.92,52.1l-9.32-5.39s-.75-8.74,9.17-16.5Z" transform="translate(-33.49 -26.69)"/><path class="cls-1" d="M262.51,59.34l-9.38,5.28s-7.91-3.8-9.55-16.28Z" transform="translate(-33.49 -26.69)"/><path class="cls-1" d="M273.36,54.37l.08,10.76s-7.16,5.08-18.87.46Z" transform="translate(-33.49 -26.69)"/><path class="cls-1" d="M274.9,42.75l9.28,5.44s.7,8.75-9.27,16.45Z" transform="translate(-33.49 -26.69)"/><path class="cls-1" d="M265.38,35.57l9.33-5.37s7.95,3.72,9.7,16.19Z" transform="translate(-33.49 -26.69)"/></svg>