<?xml version="1.0"?>
<svg width="24" height="24" xmlns="http://www.w3.org/2000/svg">

 <g>
  <title>background</title>
  <rect fill="none" id="canvas_background" height="402" width="582" y="-1" x="-1"/>
 </g>
 <g>
  <title>Layer 1</title>
  <path id="svg_1" fill="none" d="m0,0l24,0l0,24l-24,0l0,-24z"/>
  <path id="svg_3" fill="#ffffff" d="m12,2c-5.52,0 -10,4.48 -10,10s4.48,10 10,10s10,-4.48 10,-10s-4.48,-10 -10,-10z"/>
  <path stroke="null" id="svg_2" fill="#4ac400" d="m12,3.182796c-4.867097,0 -8.817204,3.950107 -8.817204,8.817204s3.950107,8.817204 8.817204,8.817204s8.817204,-3.950108 8.817204,-8.817204s-3.950108,-8.817204 -8.817204,-8.817204zm-1.763441,12.784945l0,-7.935482l5.290322,3.967741l-5.290322,3.967741z"/>
 </g>
</svg>
