<svg xmlns="http://www.w3.org/2000/svg" width="24" height="24" viewBox="0 0 24 24">
     <path fill="none" d="m0,0l24,0l0,24l-24,0l0,-24z"/>
     <path fill="#ffffff" d="m12,2c-5.52,0 -10,4.48 -10,10s4.48,10 10,10s10,-4.48 10,-10s-4.48,-10 -10,-10z"/>
     <path fill="#6d6d6d" d="m12,2.9375c-5.0025,0 -9.0625,4.06 -9.0625,9.0625s4.06,9.0625 9.0625,9.0625s9.0625,-4.059999 9.0625,-9.0625s-4.059999,-9.0625 -9.0625,-9.0625zm-0.90625,12.6875l-1.8125,0l0,-7.25l1.8125,0l0,7.25zm3.625,0l-1.812501,0l0,-7.25l1.812501,0l0,7.25z"/>
</svg>
