<svg id="Layer_3" data-name="Layer 3" xmlns="http://www.w3.org/2000/svg" viewBox="0 0 28.35 17.18"><defs><style>.cls-1{fill:#2fa8c7;}</style></defs><title>landing_mode</title><path class="cls-1" d="M2.2,11.31h0a0.62,0.62,0,0,0-.29,1.19l8.61,2.87L7.65,16.51a0.5,0.5,0,0,0,.1,1l1.88,0.31H9.8l7.14-1.19,6.87,1.12c2.63,0.39,3-.55,3-0.84a1.32,1.32,0,0,0-.33-1,5.5,5.5,0,0,0-1.84-1.06A3.93,3.93,0,0,1,24,14.1c-0.52-.41-0.76-0.59-3.23-1L7.21,10.87,4.9,6.08a0.62,0.62,0,0,0-.45-0.34L3.56,5.59a0.62,0.62,0,0,0-.72.63L3,11.45Zm0,0" transform="translate(0 -5.59)"/><path class="cls-1" d="M28.35,21.56H0v1.2H28.35v-1.2h0Zm0,0" transform="translate(0 -5.59)"/></svg>