<?xml version="1.0" encoding="utf-8"?>
<!-- Generator: Adobe Illustrator 18.1.0, SVG Export Plug-In . SVG Version: 6.00 Build 0)  -->
<!DOCTYPE svg PUBLIC "-//W3C//DTD SVG 1.1//EN" "http://www.w3.org/Graphics/SVG/1.1/DTD/svg11.dtd">
<svg version="1.1" id="Layer_1" xmlns="http://www.w3.org/2000/svg" xmlns:xlink="http://www.w3.org/1999/xlink" x="0px" y="0px"
	 viewBox="0 0 1440 1440" enable-background="new 0 0 1440 1440" xml:space="preserve">
<path d="M1024.4,373.6h-27.3v-27.3c0-35.7-29.4-65.1-65.1-65.1c-35.7,0-65.1,29.4-65.1,65.1v27.3H531.1v-27.3
	c0-35.7-29.4-65.1-65.1-65.1c-35.7,0-65.1,29.4-65.1,65.1v27.3h-27.3c-35.7,0-65.1,29.4-65.1,65.1v699c0,10.5,8.4,18.9,18.9,18.9
	h745.2c10.5,0,18.9-8.4,18.9-18.9v-699C1089.4,403,1060,373.6,1024.4,373.6z M904.7,346.4c0-14.7,12.6-27.3,27.3-27.3
	c14.7,0,27.3,12.6,27.3,27.3v92.4c0,14.7-12.6,27.3-27.3,27.3c-14.7,0-27.3-12.6-27.3-27.3V346.4z M438.7,346.4
	c0-14.7,12.6-27.3,27.3-27.3s27.3,12.6,27.3,27.3v92.4c0,14.7-12.6,27.3-27.3,27.3s-27.3-12.6-27.3-27.3V346.4z M493.3,1118.8h-149
	v-149h149V1118.8z M493.3,932h-149V783h149V932z M493.3,747.3h-149v-149h149V747.3z M680.1,1118.8h-149v-149h149V1118.8z M680.1,932
	h-149V783h149V932z M680.1,747.3h-149v-149h149V747.3z M866.9,1118.8h-149v-149h149V1118.8z M866.9,932h-149V783h149V932z
	 M717.9,747.3v-149h149v149H717.9z M1051.7,1118.8h-149v-149h149V1118.8z M1051.7,932h-149V783h149
	C1051.7,785.1,1051.7,932,1051.7,932z M1051.7,747.3h-149v-149h149C1051.7,598.2,1051.7,747.3,1051.7,747.3z M1051.7,560.5H344.2
	V438.7c0-14.7,12.6-27.3,27.3-27.3h27.3v27.3c0,35.7,29.4,65.1,65.1,65.1c35.7,0,65.1-29.4,65.1-65.1v-27.3h335.9v27.3
	c0,35.7,29.4,65.1,65.1,65.1c35.7,0,65.1-29.4,65.1-65.1v-27.3h27.3c14.7,0,27.3,12.6,27.3,27.3L1051.7,560.5L1051.7,560.5z"/>
</svg>
