<svg id="Layer_1" data-name="Layer 1" xmlns="http://www.w3.org/2000/svg" viewBox="0 0 363.84 363.84"><defs><style>.cls-1{fill:#888;}</style></defs><title>content_insights-gray</title><path class="cls-1" d="M272.88,136.44A136.44,136.44,0,1,0,136.44,272.88,136.44,136.44,0,0,0,272.88,136.44h0ZM136.44,238.77A102.33,102.33,0,1,1,238.77,136.44,102.44,102.44,0,0,1,136.44,238.77h0Zm0,0"/><path class="cls-1" d="M353.85,305.61l-83.48-83.48a160.58,160.58,0,0,1-48.23,48.23l83.48,83.48a34.11,34.11,0,1,0,48.23-48.23h0Zm0,0"/><line class="cls-1" x1="175.71" y1="76.01" x2="175.71" y2="198.01"/><rect class="cls-1" x="170.71" y="76.01" width="10" height="122"/><line class="cls-1" x1="156.21" y1="198.01" x2="195.21" y2="198.01"/><rect class="cls-1" x="156.21" y="193.01" width="39" height="10"/><line class="cls-1" x1="156.21" y1="76.01" x2="195.21" y2="76.01"/><rect class="cls-1" x="156.21" y="71.01" width="39" height="10"/><path class="cls-1" d="M126.64,184l-1.3-11.36h-0.56c-5,7.08-14.71,13.41-27.56,13.41-18.25,0-27.56-12.85-27.56-25.88,0-21.78,19.36-33.7,54.18-33.51v-1.86c0-7.45-2-20.85-20.48-20.85a44.9,44.9,0,0,0-23.46,6.7l-3.72-10.8c7.45-4.84,18.25-8,29.6-8,27.56,0,34.26,18.8,34.26,36.87v33.7a126.88,126.88,0,0,0,1.49,21.6h-14.9Zm-2.42-46c-17.87-.37-38.17,2.79-38.17,20.29C86.06,169,93.13,174,101.51,174a22.42,22.42,0,0,0,21.78-15.08,17.09,17.09,0,0,0,.93-5.21V138.06Z"/></svg>