<?xml version="1.0" encoding="utf-8"?>
<!-- Generator: Adobe Illustrator 18.1.0, SVG Export Plug-In . SVG Version: 6.00 Build 0)  -->
<!DOCTYPE svg PUBLIC "-//W3C//DTD SVG 1.1//EN" "http://www.w3.org/Graphics/SVG/1.1/DTD/svg11.dtd">
<svg version="1.1" id="Layer_1" xmlns="http://www.w3.org/2000/svg" xmlns:xlink="http://www.w3.org/1999/xlink" x="0px" y="0px"
	 viewBox="0 0 1440 1440" enable-background="new 0 0 1440 1440" xml:space="preserve">
<g>
	<path d="M872.9,434.5c2.6,0,5.2,1,7.2,3L995.6,553c4,4,4,10.5,0,14.5L661.9,898.8c-1.2,1.2-2.6,2.1-4.3,2.5l-164,49.6
		c-1,0.3-2,0.5-3,0.5c-6.5,0-11.8-6.4-9.8-13.1l48.5-165.1c0.5-1.7,1.4-3.2,2.6-4.4l333.7-331.3
		C867.7,435.5,870.3,434.5,872.9,434.5 M872.9,400.2c-11.8,0-23,4.6-31.4,12.9L507.8,744.4c-5.3,5.3-9.2,11.9-11.3,19L448,928.6
		c-4,13.6-1.4,27.9,7.1,39.2c8.4,11.2,21.7,17.9,35.6,17.9c4.4,0,8.7-0.6,12.9-1.9l164-49.6c6.9-2.1,13.3-5.9,18.5-11l333.7-331.3
		c8.5-8.4,13.1-19.6,13.1-31.5c0-11.9-4.6-23.1-13-31.6L904.4,413.3C895.9,404.9,884.8,400.2,872.9,400.2L872.9,400.2z"/>
</g>
<polygon points="659.2,915.9 473.2,968 465.4,926 523.8,764.1 667.4,907.8 "/>
</svg>
