<svg id="Content" xmlns="http://www.w3.org/2000/svg" viewBox="0 0 24.35 28.35"><defs><style>.cls-1{fill:#c00;}</style></defs><title>error-content</title><path class="cls-1" d="M26.35,2.09A2.09,2.09,0,0,0,24.26,0H4A2,2,0,0,0,2,2V26.26a2.09,2.09,0,0,0,2.09,2.09H24.26a2.09,2.09,0,0,0,2.09-2.09V2.09Zm-2.08,22.6a1.59,1.59,0,0,1-1.59,1.59h-17a1.59,1.59,0,0,1-1.59-1.59V3.61A1.59,1.59,0,0,1,5.66,2h17a1.59,1.59,0,0,1,1.59,1.59V24.68Zm0,0" transform="translate(-2)"/><path class="cls-1" d="M6.71,7.15H21.82a1,1,0,1,0,0-2H6.71a1,1,0,1,0,0,2h0Zm0,0" transform="translate(-2)"/><path class="cls-1" d="M6.71,12.54H21.82a1,1,0,1,0,0-2H6.71a1,1,0,1,0,0,2h0Zm0,0" transform="translate(-2)"/><path class="cls-1" d="M6.71,17.93H21.82a1,1,0,1,0,0-2H6.71a1,1,0,1,0,0,2h0Zm0,0" transform="translate(-2)"/><path class="cls-1" d="M6.71,23.22H21.82a1,1,0,1,0,0-2H6.71a1,1,0,1,0,0,2h0Zm0,0" transform="translate(-2)"/></svg>