<svg id="Layer_31" data-name="Layer 31" xmlns="http://www.w3.org/2000/svg" viewBox="0 0 28.35 25.11"><defs><style>.cls-1{fill:#fff;}</style></defs><title>home</title><path class="cls-1" d="M3.85,26.1a.59.59,0,0,0,.59.63h7.15V20.87a.83.83,0,0,1,.84-1h3a.92.92,0,0,1,1,1v5.84h7a.73.73,0,0,0,.75-.79V15.12L14.32,6.35,3.85,15.12Zm0,0" transform="translate(0 -1.62)"/><path class="cls-1" d="M0,14.3s.89,1.64,2.83,0L14.4,4.51l10.86,9.73c2.24,1.62,3.08,0,3.08,0L14.4,1.62Zm0,0" transform="translate(0 -1.62)"/><path class="cls-1" d="M25,4.48H22.21V7.87L25,10.23Zm0,0" transform="translate(0 -1.62)"/></svg>