<svg id="Layer_1" data-name="Layer 1" xmlns="http://www.w3.org/2000/svg" viewBox="0 0 13 13"><defs><style>.cls-1{fill:#bbb;fill-rule:evenodd;}</style></defs><title>smiley-neutral</title><path class="cls-1" d="M8.28,5.5a0.76,0.76,0,1,0-.76-0.76A0.76,0.76,0,0,0,8.28,5.5Zm-3.45,0a0.76,0.76,0,1,0-.76-0.76A0.76,0.76,0,0,0,4.84,5.5ZM11.1,1.9a6.5,6.5,0,1,0,0,9.2A6.51,6.51,0,0,0,11.1,1.9Zm-0.71,8.49a5.5,5.5,0,1,1,0-7.78A5.51,5.51,0,0,1,10.39,10.39ZM9,8.08H4.2a0.37,0.37,0,1,0,0,.74H9A0.37,0.37,0,0,0,9,8.08Z" transform="translate(0 0)"/></svg>