<?xml version="1.0" encoding="utf-8"?>
<!-- Generator: Adobe Illustrator 19.2.0, SVG Export Plug-In . SVG Version: 6.00 Build 0)  -->
<svg version="1.1" id="Layer_1" xmlns="http://www.w3.org/2000/svg" xmlns:xlink="http://www.w3.org/1999/xlink" x="0px" y="0px"
	 viewBox="0 0 13 13" style="enable-background:new 0 0 13 13;" xml:space="preserve">
<style type="text/css">
	.st0{fill:#d9d9d9;}
</style>
<path class="st0" d="M11.1,1.9c-2.5-2.5-6.7-2.5-9.2,0c-2.5,2.5-2.5,6.7,0,9.2c2.5,2.5,6.7,2.5,9.2,0C13.6,8.6,13.6,4.4,11.1,1.9
	L11.1,1.9z M10.4,10.4c-2.1,2.1-5.6,2.1-7.8,0c-2.1-2.1-2.1-5.6,0-7.8c2.1-2.1,5.6-2.1,7.8,0C12.5,4.8,12.5,8.2,10.4,10.4L10.4,10.4
	z M4.1,4.7C4.1,4.3,4.4,4,4.8,4c0.4,0,0.8,0.3,0.8,0.8c0,0.4-0.3,0.8-0.8,0.8C4.4,5.5,4.1,5.2,4.1,4.7L4.1,4.7z M7.5,4.7
	C7.5,4.3,7.9,4,8.3,4C8.7,4,9,4.3,9,4.7c0,0.4-0.3,0.8-0.8,0.8C7.9,5.5,7.5,5.2,7.5,4.7L7.5,4.7z M9.3,7.9C8.8,8.9,7.7,9.6,6.5,9.6
	c-1.3,0-2.4-0.7-2.8-1.8c-0.1-0.2,0-0.4,0.2-0.5c0,0,0.1,0,0.1,0c0.1,0,0.3,0.1,0.3,0.2c0.3,0.8,1.2,1.3,2.1,1.3
	c0.9,0,1.8-0.5,2.1-1.4c0.1-0.2,0.3-0.3,0.5-0.2C9.3,7.5,9.4,7.7,9.3,7.9L9.3,7.9z M9.3,7.9"/>
</svg>
