<svg id="Layer_1" data-name="Layer 1" xmlns="http://www.w3.org/2000/svg" viewBox="0 0 12.98 12.98"><defs><style>.cls-1{fill:#ddd;}.cls-2{fill:#fff;}</style></defs><title>question_mark</title><circle class="cls-1" cx="6.49" cy="6.49" r="6.49"/><path class="cls-2" d="M8.1,7a1.35,1.35,0,0,0-.64.88,0.31,0.31,0,0,1-.27.32H5.58a0.36,0.36,0,0,1-.24-0.37V7.54A2.27,2.27,0,0,1,6.73,5.76a0.93,0.93,0,0,0,.73-0.88,1,1,0,0,0-1-.71,1.37,1.37,0,0,0-.72.19A3.76,3.76,0,0,0,5,5.13a0.28,0.28,0,0,1-.21.11,0.31,0.31,0,0,1-.17-0.05l-1.1-.84A0.26,0.26,0,0,1,3.45,4,3.4,3.4,0,0,1,6.55,2.21a3,3,0,0,1,3,2.68A2.31,2.31,0,0,1,8.1,7ZM7.48,10.52a0.27,0.27,0,0,1-.27.27H5.6a0.27,0.27,0,0,1-.27-0.27V8.91A0.27,0.27,0,0,1,5.6,8.64H7.21a0.27,0.27,0,0,1,.27.27v1.61Z" transform="translate(-0.01 -0.01)"/></svg>