<svg id="Layer_1" data-name="Layer 1" xmlns="http://www.w3.org/2000/svg" viewBox="0 0 13 12.24"><defs><style>.cls-1{fill:#c00;}.cls-2{fill:#fff;}</style></defs><title>warning</title><path class="cls-1" d="M13,12L6.86,0.58a0.42,0.42,0,0,0-.72,0L0,12a0.41,0.41,0,0,0,.36.6H12.59A0.41,0.41,0,0,0,13,12h0ZM1.09,11.8" transform="translate(0 -0.38)"/><path class="cls-2" d="M7.05,8.65L7.27,4.24H5.73L5.94,8.65H7.05Zm0,0" transform="translate(0 -0.38)"/><path class="cls-2" d="M6.51,9.14a0.89,0.89,0,0,0,0,1.77h0a0.89,0.89,0,0,0,0-1.77h0Zm0,0" transform="translate(0 -0.38)"/></svg>