<?xml version="1.0" encoding="utf-8"?>
<!-- Generator: Adobe Illustrator 22.0.1, SVG Export Plug-In . SVG Version: 6.00 Build 0)  -->
<svg version="1.1" id="wizard-content" xmlns="http://www.w3.org/2000/svg" xmlns:xlink="http://www.w3.org/1999/xlink" x="0px"
	 y="0px" viewBox="0 0 28.4 28.4" style="enable-background:new 0 0 28.4 28.4;" xml:space="preserve">
<style type="text/css">
	.st0{fill:#0071B9;}
</style>
<title>wizard-content</title>
<path class="st0" d="M26.4,2.1c0-1.2-0.9-2.1-2.1-2.1H4C2.9,0,2,0.9,2,2v24.3c0,1.2,0.9,2.1,2.1,2.1l0,0h20.2c1.2,0,2.1-0.9,2.1-2.1
	l0,0l0,0C26.4,26.3,26.4,2.1,26.4,2.1z M24.3,24.7c0,0.9-0.7,1.6-1.6,1.6l0,0h-17c-0.9,0-1.6-0.7-1.6-1.6l0,0l0,0V3.6
	C4.1,2.7,4.8,2,5.7,2h17c0.9,0,1.6,0.7,1.6,1.6l0,0l0,0L24.3,24.7L24.3,24.7z"/>
<path class="st0" d="M6.8,7.1h15.1c0.6,0,1-0.4,1-1s-0.4-1-1-1H6.8c-0.6,0-1,0.4-1,1S6.2,7.1,6.8,7.1z"/>
<path class="st0" d="M6.8,12.5h15.1c0.6,0,1-0.4,1-1s-0.4-1-1-1H6.8c-0.6,0-1,0.4-1,1S6.2,12.5,6.8,12.5z"/>
<path class="st0" d="M6.8,17.9h15.1c0.6,0,1-0.4,1-1s-0.4-1-1-1H6.8c-0.6,0-1,0.4-1,1S6.2,17.9,6.8,17.9z"/>
<path class="st0" d="M6.8,23.2h15.1c0.6,0,1-0.4,1-1s-0.4-1-1-1H6.8c-0.6,0-1,0.4-1,1S6.2,23.2,6.8,23.2z"/>
</svg>
