<?xml version="1.0" encoding="utf-8"?>
<!-- Generator: Adobe Illustrator 22.0.1, SVG Export Plug-In . SVG Version: 6.00 Build 0)  -->
<svg version="1.1" id="wizard-ecommerce" xmlns="http://www.w3.org/2000/svg" xmlns:xlink="http://www.w3.org/1999/xlink" x="0px"
	 y="0px" viewBox="0 0 28.4 28.4" style="enable-background:new 0 0 28.4 28.4;" xml:space="preserve">
<style type="text/css">
	.st0{fill:#0071B9;}
</style>
<title>wizard-ecommerce</title>
<path class="st0" d="M26.8,8.1L7.1,6.2H6.8L6,2.4c0-0.1,0-0.1,0-0.2C5.9,1.9,5.6,1.6,5.3,1.5L1.4,0.4C0.9,0.2,0.2,0.5,0,1.1
	s0.1,1.2,0.6,1.4h0.1h0.1l3.2,1l3.7,18.2c0.1,0.6,0.5,1,1.1,1H25c0.6,0,1.1-0.5,1.1-1.1s-0.5-1.1-1.1-1.1H9.7l-0.5-2.6h16.1
	c0.8,0,1.5-0.5,1.7-1.3l1.3-6.6c0.1-1-0.5-1.9-1.4-2h-0.1V8.1z"/>
<path class="st0" d="M14.1,25.8c0,1.2-1,2.2-2.2,2.2s-2.2-1-2.2-2.2s1-2.2,2.2-2.2S14.1,24.6,14.1,25.8L14.1,25.8z"/>
<path class="st0" d="M24.6,25.8c0,1.2-1,2.2-2.2,2.2s-2.2-1-2.2-2.2s1-2.2,2.2-2.2C23.6,23.6,24.6,24.6,24.6,25.8L24.6,25.8
	L24.6,25.8z"/>
</svg>
