<?xml version="1.0" encoding="utf-8"?>
<!-- Generator: Adobe Illustrator 22.0.1, SVG Export Plug-In . SVG Version: 6.00 Build 0)  -->
<svg version="1.1" id="Check" xmlns="http://www.w3.org/2000/svg" xmlns:xlink="http://www.w3.org/1999/xlink" x="0px" y="0px"
	 viewBox="0 0 28.4 28.4" style="enable-background:new 0 0 28.4 28.4;" xml:space="preserve">
<style type="text/css">
	.st0{fill:#0071B9;}
</style>
<title>check-blue</title>
<path class="st0" d="M27.8,5c-0.4-0.4-1.1-0.4-1.5,0L10.2,21.1L2,13c-0.3-0.5-1-0.6-1.5-0.2c-0.5,0.3-0.6,1-0.2,1.5
	c0.1,0.1,0.1,0.2,0.2,0.2l8.9,8.9l0,0c0.2,0.2,0.5,0.3,0.7,0.3l0,0c0.3,0,0.5-0.1,0.7-0.3l0,0l17-16.9C28.2,6.1,28.2,5.4,27.8,5z"/>
</svg>
