<?xml version="1.0" encoding="utf-8"?>
<!-- Generator: Adobe Illustrator 22.0.1, SVG Export Plug-In . SVG Version: 6.00 Build 0)  -->
<svg version="1.1" id="Duplicate" xmlns="http://www.w3.org/2000/svg" xmlns:xlink="http://www.w3.org/1999/xlink" x="0px" y="0px"
	 viewBox="0 0 28.4 28.4" style="enable-background:new 0 0 28.4 28.4;" xml:space="preserve">
<style type="text/css">
	.st0{fill:#0071B9;}
</style>
<title>copy-blue</title>
<path class="st0" d="M21.4,6c0.5,0,0.9,0.4,0.9,0.8l0,0v18.5c0,0.5-0.4,0.9-0.9,0.9l0,0H3c-0.5,0-0.8-0.4-0.8-0.9l0,0V6.9
	C2.1,6.4,2.5,6,3,6l0,0H21.4 M21.4,3.9H3c-1.7,0-3,1.3-3,3v18.5c0,1.7,1.3,3,3,3h18.4c1.7,0,3-1.3,3-3V6.9C24.4,5.2,23,3.9,21.4,3.9
	L21.4,3.9z"/>
<path class="st0" d="M27.3,21.6c-0.6,0-1-0.4-1-1v-15c0-1.9-1.5-3.5-3.4-3.5h-0.1H4.9c-0.6,0-1-0.5-1-1s0.5-1,1-1h17.9
	c3.1,0,5.6,2.5,5.6,5.6v15C28.4,21.1,27.9,21.6,27.3,21.6C27.4,21.6,27.3,21.6,27.3,21.6z"/>
</svg>
