<?xml version="1.0" encoding="utf-8"?>
<!-- Generator: Adobe Illustrator 22.0.1, SVG Export Plug-In . SVG Version: 6.00 Build 0)  -->
<svg version="1.1" id="Tablet" xmlns="http://www.w3.org/2000/svg" xmlns:xlink="http://www.w3.org/1999/xlink" x="0px" y="0px"
	 viewBox="0 0 20.7 28.4" style="enable-background:new 0 0 20.7 28.4;" xml:space="preserve">
<style type="text/css">
	.st0{fill:#0071B9;}
</style>
<title>device-tablet-blue</title>
<path class="st0" d="M18.8,0H1.9C0.9,0,0,0.8,0,1.9l0,0l0,0v24.5c0,1.1,0.8,1.9,1.9,1.9l0,0h16.9c1.1,0,1.9-0.9,1.9-1.9l0,0l0,0V1.9
	C20.7,0.9,19.9,0,18.8,0L18.8,0L18.8,0z M10.4,27.6c-0.6,0-1.1-0.5-1.1-1.1s0.5-1.1,1.1-1.1s1.1,0.5,1.1,1.1l0,0l0,0
	C11.5,27.1,11,27.6,10.4,27.6z M18.8,24.3H2v-22h16.8V24.3z"/>
</svg>
