<?xml version="1.0" encoding="utf-8"?>
<!-- Generator: Adobe Illustrator 22.0.1, SVG Export Plug-In . SVG Version: 6.00 Build 0)  -->
<svg version="1.1" id="Mobile" xmlns="http://www.w3.org/2000/svg" xmlns:xlink="http://www.w3.org/1999/xlink" x="0px" y="0px"
	 viewBox="0 0 16.5 28.4" style="enable-background:new 0 0 16.5 28.4;" xml:space="preserve">
<style type="text/css">
	.st0{fill:#0071B9;}
</style>
<title>device-mobile-blue</title>
<path class="st0" d="M14.6,0H1.9C0.9,0,0,0.9,0,1.9v24.5c0,1.1,0.9,1.9,1.9,1.9h12.6c1.1,0,1.9-0.9,1.9-1.9V1.9
	C16.5,0.9,15.6,0,14.6,0z M6.2,1.4h4c0.1,0,0.2,0.1,0.2,0.2s-0.1,0.2-0.2,0.2h-4C6.1,1.8,6,1.7,6,1.6S6.1,1.4,6.2,1.4z M8.2,27.4
	c-0.6,0-1-0.4-1-1s0.4-1,1-1s1,0.4,1,1S8.8,27.4,8.2,27.4z M15.1,24.8H1.3V3h13.8V24.8z"/>
</svg>
