<?xml version="1.0" encoding="utf-8"?>
<!-- Generator: Adobe Illustrator 22.0.1, SVG Export Plug-In . SVG Version: 6.00 Build 0)  -->
<svg version="1.1" id="Layer_1" xmlns="http://www.w3.org/2000/svg" xmlns:xlink="http://www.w3.org/1999/xlink" x="0px" y="0px"
	 viewBox="0 0 557.8 84.3" style="enable-background:new 0 0 557.8 84.3;" xml:space="preserve">
<style type="text/css">
	.st0{fill:#FFFFFF;}
</style>
<g>
	<g>
		<path class="st0" d="M70.8,17.8c-3,0.1-5.4,2.6-5.4,5.7c0,0.3,0,0.6,0.1,0.9l5.5,31.2c0.5,4,3.9,7,8.1,7H79
			c3.4-6.1,5.3-13,5.3-20.5c0-9.2-3-17.8-8-24.7L70.8,17.8z"/>
		<path class="st0" d="M43.9,64.5v-1.6l6.3-0.3h0.3c3.2,0,5.7-2.5,5.7-5.7c0-0.5-0.1-0.9-0.1-1.3l-5.6-31.7L35.7,64.5h-2.8h0h-0.1
			l-7-33.8h-0.1l-9.2,34.6H7.7L21,15.6h9.5l7.4,35.2l12.8-34.9h8.9l15.4,0C67.3,6.2,55.5,0,42.2,0C18.9,0,0,18.9,0,42.2
			c0,23.3,18.9,42.2,42.2,42.2c15.1,0,28.3-7.9,35.7-19.8H43.9z"/>
	</g>
	<g>
		<path class="st0" d="M144.4,64.7h-7V26.9h-0.1l-14.9,18.8h-1.1l-14.9-18.8h-0.1v37.8h-7V16.2h6.5l16.1,19.9l16.2-19.9h6.5V64.7z"
			/>
		<path class="st0" d="M186.7,22.4h-20.6v14.7H186v6.3h-19.9v15.1h21.2v6.3h-28.2V16.2h27.5V22.4z"/>
		<path class="st0" d="M199.1,16.2h18.9c17.9,0,25.8,12.8,25.8,24.3c0,12.5-9.7,24.3-25.8,24.3h-18.9V16.2z M206,58.4h11.1
			c15.8,0,19.4-12,19.4-18c0-9.7-6.2-18-19.8-18H206V58.4z"/>
		<path class="st0" d="M263.7,64.7h-7V16.2h7V64.7z"/>
		<path class="st0" d="M320.8,64.7h-7.1l-6.5-14.3h-20.6l-6.1,14.3h-7.1l20.8-48.8h4.9L320.8,64.7z M289.3,44.1h15.1l-7.8-17.6
			L289.3,44.1z"/>
		<path class="st0" d="M375.5,64.7h-7V26.9h-0.1l-14.9,18.8h-1.1l-14.9-18.8h-0.1v37.8h-7V16.2h6.5l16.1,19.9l16.2-19.9h6.5V64.7z"
			/>
		<path class="st0" d="M414.2,15.5c16,0,26.1,11.4,26.1,24.9c0,13.1-9.8,24.9-26.3,24.9c-15.9,0-25.9-11.7-25.9-24.9
			C388.1,27,398.4,15.5,414.2,15.5z M414.2,58.9c10.9,0,18.9-7.9,18.9-18.5c0-10.7-8-18.5-18.9-18.5c-10.8,0-18.9,7.8-18.9,18.5
			C395.3,51,403.4,58.9,414.2,58.9z"/>
		<path class="st0" d="M498,64.7h-6l-32.4-37.4v37.4H453V16.2h5.5l32.9,37.6V16.2h6.5V64.7z"/>
		<path class="st0" d="M513,16.2h18.9c17.9,0,25.8,12.8,25.8,24.3c0,12.5-9.7,24.3-25.8,24.3H513V16.2z M520,58.4h11.1
			c15.8,0,19.4-12,19.4-18c0-9.7-6.2-18-19.8-18H520V58.4z"/>
	</g>
</g>
</svg>
