<?xml version="1.0" encoding="utf-8"?>
<!-- Generator: Adobe Illustrator 22.0.1, SVG Export Plug-In . SVG Version: 6.00 Build 0)  -->
<svg version="1.1" id="Performance" xmlns="http://www.w3.org/2000/svg" xmlns:xlink="http://www.w3.org/1999/xlink" x="0px"
	 y="0px" viewBox="0 0 28.4 28.4" style="enable-background:new 0 0 28.4 28.4;" xml:space="preserve">
<style type="text/css">
	.st0{fill:#0071B9;}
</style>
<title>performance-blue</title>
<path class="st0" d="M25.9,6.4c-1.4,0-2.5,1.1-2.5,2.5c0,0.3,0.1,0.7,0.2,1l-5.2,5.2c-0.6-0.3-1.3-0.3-2,0L13.3,12
	c0.5-1.3-0.1-2.7-1.3-3.3C10.7,8.2,9.3,8.8,8.7,10c-0.3,0.6-0.3,1.3,0,1.9l-5.2,5.2c-1.3-0.5-2.7,0.1-3.3,1.3s0.1,2.7,1.3,3.3
	s2.7-0.1,3.3-1.3c0.3-0.6,0.3-1.3,0-1.9l5.2-5.2c0.6,0.3,1.3,0.3,1.9,0l3.1,3.1c-0.5,1.3,0.1,2.7,1.3,3.3s2.7-0.1,3.3-1.3
	c0.3-0.6,0.3-1.3,0-1.9l5.2-5.2c1.3,0.5,2.7-0.1,3.3-1.3S28,7.3,26.8,6.7C26.5,6.5,26.2,6.4,25.9,6.4L25.9,6.4L25.9,6.4z"/>
</svg>
