<?xml version="1.0" encoding="utf-8"?>
<!-- Generator: Adobe Illustrator 22.0.1, SVG Export Plug-In . SVG Version: 6.00 Build 0)  -->
<svg version="1.1" id="Layer_53" xmlns="http://www.w3.org/2000/svg" xmlns:xlink="http://www.w3.org/1999/xlink" x="0px" y="0px"
	 viewBox="0 0 28.4 28.4" style="enable-background:new 0 0 28.4 28.4;" xml:space="preserve">
<style type="text/css">
	.st0{fill:#0071B9;}
</style>
<title>ascending-sec</title>
<path class="st0" d="M5.1,25.4v1.5c0,0.8-0.6,1.4-1.4,1.4H1.4c-0.8,0-1.4-0.6-1.4-1.4v-1.5C0,24.6,0.6,24,1.4,24h2.3
	C4.5,24,5.1,24.6,5.1,25.4z"/>
<path class="st0" d="M12.9,17.4v9.5c0,0.8-0.6,1.4-1.4,1.4H9.2c-0.8,0-1.4-0.6-1.4-1.4v-9.5c0-0.8,0.6-1.4,1.4-1.4h2.3
	C12.2,16,12.9,16.6,12.9,17.4z"/>
<path class="st0" d="M20.6,9.4v17.5c0,0.8-0.6,1.4-1.4,1.4h-2.3c-0.8,0-1.4-0.6-1.4-1.4V9.4c0-0.8,0.6-1.4,1.4-1.4h2.3
	C20,8,20.6,8.6,20.6,9.4z"/>
<path class="st0" d="M28.4,1.4v25.5c0,0.8-0.6,1.4-1.4,1.4h-2.3c-0.8,0-1.4-0.6-1.4-1.4V1.4c0-0.8,0.6-1.4,1.4-1.4H27
	C27.7,0,28.4,0.6,28.4,1.4z"/>
</svg>
