<?xml version="1.0" encoding="UTF-8" standalone="no"?>
<svg
   xmlns:dc="http://purl.org/dc/elements/1.1/"
   xmlns:cc="http://creativecommons.org/ns#"
   xmlns:rdf="http://www.w3.org/1999/02/22-rdf-syntax-ns#"
   xmlns:svg="http://www.w3.org/2000/svg"
   xmlns="http://www.w3.org/2000/svg"
   viewBox="0 0 288.79999 46.84"
   xml:space="preserve"
   id="svg2"
   version="1.1"><metadata
     id="metadata8"><rdf:RDF><cc:Work
         rdf:about=""><dc:format>image/svg+xml</dc:format><dc:type
           rdf:resource="http://purl.org/dc/dcmitype/StillImage" /></cc:Work></rdf:RDF></metadata><defs
     id="defs6" /><g
     transform="matrix(1.3333333,0,0,-1.3333333,0,46.84)"
     id="g10"><g
       transform="scale(0.1)"
       id="g12"><path
         id="path14"
         style="fill:#ffffff;fill-opacity:1;fill-rule:nonzero;stroke:none"
         d="M 412.047,289.25 371.734,178.777 H 451.98 Z M 516.922,88.8281 H 484.449 L 462.43,150.039 H 361.285 L 339.266,88.8281 h -32.844 l 87.711,233.2659 h 36.203 L 516.922,88.8281" /><path
         id="path16"
         style="fill:#ffffff;fill-opacity:1;fill-rule:nonzero;stroke:none"
         d="M 758.75,88.8281 V 195.57 c 0,29.86 -10.824,40.684 -32.844,40.684 -19.035,0 -33.59,-10.078 -43.293,-19.406 V 206.395 88.8281 H 652.008 V 195.57 c 0,29.86 -10.824,40.684 -32.844,40.684 -19.035,0 -33.59,-8.211 -43.297,-17.543 V 88.8281 H 545.266 V 260.516 l 30.601,4.851 c 0,0 0,-21.648 0,-23.515 16.422,15.675 34.34,23.515 54.867,23.515 19.778,0 36.204,-9.332 44.786,-28.367 18.289,18.289 38.441,28.367 61.957,28.367 31.351,0 51.878,-22.023 51.878,-59.719 V 88.8281 H 758.75" /><path
         id="path18"
         style="fill:#ffffff;fill-opacity:1;fill-rule:nonzero;stroke:none"
         d="m 871.438,123.164 c 10.074,-8.211 23.136,-12.312 38.07,-12.312 34.707,0 54.113,28.363 54.113,63.445 0,37.695 -19.031,62.703 -50.758,62.703 -16.047,0 -29.859,-6.348 -41.425,-16.426 0,1.871 0,-97.41 0,-97.41 z m 47.773,142.203 c 48.144,0 76.137,-38.816 76.137,-90.324 0,-51.879 -35.832,-91.8125 -86.961,-91.8125 -10.078,0 -26.129,1.4922 -36.949,4.4804 V 1.86719 h -30.61 V 260.516 l 30.61,4.851 c 0,0 0,-19.41 0,-21.277 12.316,11.57 27.617,21.277 47.773,21.277" /><path
         id="path20"
         style="fill:#ffffff;fill-opacity:1;fill-rule:nonzero;stroke:none"
         d="M 1037.12,88.8281 V 340.383 l 30.61,4.851 V 88.8281 h -30.61" /><path
         id="path22"
         style="fill:#ffffff;fill-opacity:1;fill-rule:nonzero;stroke:none"
         d="M 1120.72,88.8281 V 260.516 l 30.61,4.851 V 88.8281 Z m 15.3,208.6329 c -13.8,0 -20.15,10.453 -20.15,22.023 0,11.567 6.35,22.02 20.15,22.02 13.81,0 20.16,-10.453 20.16,-22.02 0,-11.57 -6.35,-22.023 -20.16,-22.023" /><path
         id="path24"
         style="fill:#ffffff;fill-opacity:1;fill-rule:nonzero;stroke:none"
         d="m 1293.89,312.391 c -7.84,3.359 -18.66,7.464 -27.25,7.464 -17.17,0 -25.38,-10.449 -25.38,-36.203 v -23.886 h 54.12 l -1.12,-27.618 h -53 V 88.8281 h -30.6 V 231.773 l -29.86,2.239 1.49,19.41 28,8.211 0.37,21.644 c 0.74,47.774 22.76,65.317 56.36,65.317 12.68,0 26.12,-4.477 34.33,-8.211 0,-0.746 -7.46,-28.738 -7.46,-27.992" /><path
         id="path26"
         style="fill:#ffffff;fill-opacity:1;fill-rule:nonzero;stroke:none"
         d="M 1391.29,86.9648 1379.72,56.3555 C 1363.3,13.0625 1346.13,0 1319.63,0 1306.57,0 1295,3.73438 1283.43,8.96094 l 8.95,28.36326 c 8.96,-4.4804 18.67,-8.2109 27.25,-8.2109 13.06,0 21.28,7.0898 32.85,36.9492 l 10.44,26.5 -66.43,167.2035 h 32.84 l 49.64,-132.868 48.15,132.868 h 32.47 l -68.3,-172.8012" /><path
         id="path28"
         style="fill:#ffffff;fill-opacity:1;fill-rule:nonzero;stroke:none"
         d="m 1490.18,350.832 h 25.01 V 14.5586 h -25.01 V 350.832" /><path
         id="path30"
         style="fill:#ffffff;fill-opacity:1;fill-rule:nonzero;stroke:none"
         d="m 1644.68,207.891 c 30.61,1.117 53.75,15.672 53.75,44.41 0,27.621 -22.4,40.683 -57.85,40.683 h -34.34 V 206.77 Z M 1606.24,88.8281 h -31.72 V 322.094 c 0,0 69.42,0 69.79,0 56.36,0 85.84,-26.871 85.84,-68.301 0,-35.082 -20.53,-56.73 -52.62,-67.18 l 63.07,-97.7849 h -37.69 l -56.73,92.5589 -39.94,-2.61 V 88.8281" /><path
         id="path32"
         style="fill:#ffffff;fill-opacity:1;fill-rule:nonzero;stroke:none"
         d="M 1872.33,292.234 V 88.8281 h -31.35 V 292.234 h -81.74 v 29.86 h 194.83 v -29.86 h -81.74" /><path
         id="path34"
         style="fill:#ffffff;fill-opacity:1;fill-rule:nonzero;stroke:none"
         d="m 2077.59,191.094 h -45.91 v -73.153 h 50.76 c 34.71,0 51.88,12.317 51.88,36.579 0,26.867 -23.89,36.574 -56.73,36.574 z m 2.24,101.89 h -48.15 v -73.152 c 0.38,0 43.3,0 43.3,0 33.59,0 51.88,14.926 51.88,37.695 0,22.395 -16.43,35.457 -47.03,35.457 z m 86.22,-138.093 c 0,-39.563 -26.5,-66.0629 -86.6,-66.0629 h -79.49 V 322.094 h 77.26 c 56.36,0 81.36,-25.379 81.36,-61.953 0,-23.887 -13.81,-41.43 -39.93,-51.133 30.98,-7.836 47.4,-27.992 47.4,-54.117" /><path
         id="path36"
         style="fill:#ffffff;fill-opacity:1;fill-rule:nonzero;stroke:none"
         d="m 198.879,130.602 c -8.012,-7.754 -17.395,-13.821 -28.156,-18.227 -10.774,-4.402 -22.481,-6.586 -35.086,-6.586 -12.641,0 -24.34,2.184 -35.102,6.586 -10.7655,4.406 -20.16,10.473 -28.1717,18.227 -8.0078,7.753 -14.2891,16.886 -18.8086,27.445 -4.3789,10.187 -6.6133,21.219 -6.7734,33.031 H 68.043 c 0.2461,-3.644 1.0429,-7.043 2.4336,-10.238 1.6289,-3.836 3.9062,-7.156 6.8086,-9.965 2.914,-2.816 6.3242,-5.02 10.2148,-6.602 3.918,-1.621 8.1523,-2.402 12.762,-2.402 4.57,0 8.812,0.797 12.726,2.402 3.899,1.582 7.321,3.786 10.235,6.602 2.91,2.816 5.179,6.133 6.82,9.965 1.09,2.531 1.816,5.207 2.184,8.031 h 6.816 c 0.371,-2.824 1.066,-5.5 2.16,-8.031 1.649,-3.836 3.938,-7.156 6.817,-9.965 2.929,-2.816 6.335,-5.02 10.234,-6.602 3.926,-1.621 8.152,-2.402 12.738,-2.402 4.594,0 8.844,0.797 12.754,2.402 3.899,1.582 7.297,3.786 10.234,6.602 2.899,2.816 5.184,6.133 6.817,9.965 1.371,3.195 2.164,6.605 2.398,10.238 h 21.274 c -0.145,-11.812 -2.406,-22.844 -6.785,-33.031 -4.512,-10.559 -10.793,-19.692 -18.805,-27.445 m -79.477,62.679 c 0,-2.648 -0.484,-5.121 -1.441,-7.402 -0.977,-2.258 -2.348,-4.234 -4.082,-5.91 -1.707,-1.668 -3.731,-2.965 -6.055,-3.926 -2.32,-0.945 -4.847,-1.41 -7.562,-1.41 -2.7307,0 -5.2503,0.465 -7.5745,1.41 -2.3164,0.961 -4.3359,2.258 -6.0664,3.926 -1.7148,1.676 -3.0664,3.652 -4.0664,5.91 -0.9649,2.281 -1.4727,4.742 -1.4727,7.402 0,2.657 0.5078,5.114 1.4727,7.391 1,2.269 2.3516,4.262 4.0664,5.93 1.7305,1.652 3.75,2.98 6.0664,3.925 2.3242,0.946 4.8438,1.414 7.5745,1.414 2.715,0 5.242,-0.468 7.562,-1.414 2.324,-0.945 4.348,-2.273 6.055,-3.925 1.734,-1.668 3.105,-3.661 4.082,-5.93 0.957,-2.277 1.441,-4.742 1.441,-7.391 m 70.778,0 c 0,-2.648 -0.481,-5.121 -1.465,-7.402 -0.981,-2.258 -2.332,-4.234 -4.063,-5.91 -1.714,-1.668 -3.75,-2.965 -6.074,-3.926 -2.328,-0.945 -4.844,-1.41 -7.57,-1.41 -2.723,0 -5.235,0.465 -7.567,1.41 -2.304,0.961 -4.332,2.258 -6.05,3.926 -1.746,1.676 -3.09,3.652 -4.063,5.91 -0.984,2.281 -1.473,4.742 -1.473,7.402 0,2.657 0.489,5.114 1.473,7.391 0.973,2.269 2.317,4.262 4.063,5.93 1.718,1.652 3.746,2.98 6.05,3.925 2.332,0.946 4.844,1.414 7.567,1.414 2.726,0 5.242,-0.468 7.57,-1.414 2.324,-0.945 4.36,-2.273 6.074,-3.925 1.731,-1.668 3.082,-3.661 4.063,-5.93 0.984,-2.277 1.465,-4.742 1.465,-7.391 M 54.6914,228.895 c 15.0899,4.933 35.1524,11.199 35.1524,11.199 44.0972,13.863 50.0082,30.222 50.0082,30.222 0,0 9.253,-16.359 41.289,-27.179 0,0 17.703,-5.739 34.14,-11.594 0.809,-1.633 1.676,-3.234 2.403,-4.938 2.906,-6.722 4.867,-13.82 5.914,-21.273 h -22.637 c -0.051,0.129 -0.109,0.266 -0.148,0.395 -1.649,3.843 -3.934,7.144 -6.833,9.961 -2.91,2.812 -6.328,5.019 -10.234,6.613 -3.91,1.597 -8.16,2.422 -12.738,2.422 -4.574,0 -8.824,-0.825 -12.735,-2.422 -3.918,-1.594 -7.324,-3.801 -10.234,-6.613 -2.898,-2.817 -5.187,-6.118 -6.816,-9.961 -0.528,-1.204 -0.946,-2.446 -1.317,-3.704 h -8.547 c -0.371,1.258 -0.789,2.5 -1.316,3.704 -1.641,3.843 -3.91,7.144 -6.82,9.961 -2.914,2.812 -6.325,5.019 -10.235,6.613 -3.898,1.597 -8.156,2.422 -12.726,2.422 -4.5901,0 -8.844,-0.825 -12.7425,-2.422 -3.9101,-1.594 -7.3203,-3.801 -10.2343,-6.613 -2.9024,-2.817 -5.1797,-6.118 -6.8086,-9.961 -0.0664,-0.129 -0.1211,-0.266 -0.168,-0.395 H 47.6719 c 1.0195,7.453 2.9844,14.539 5.8828,21.273 0.3398,0.786 0.7422,1.512 1.1367,2.29 m 206.2066,42.652 c -6.925,16.086 -16.496,30.035 -28.714,41.883 -12.235,11.836 -26.563,21.09 -43.012,27.804 -16.43,6.723 -34.27,10.067 -53.535,10.067 -19.274,0 -37.1409,-3.344 -53.5628,-10.067 C 65.6484,334.527 51.3203,325.266 39.0938,313.43 26.8594,301.582 17.2852,287.633 10.3711,271.547 3.45313,255.441 0,238 0,219.223 0,200.43 3.45313,183.016 10.3711,166.895 17.2852,150.801 26.8594,136.836 39.0938,125.02 51.3203,113.191 65.6484,103.91 82.0742,97.2031 98.5156,90.5039 116.363,87.1563 135.637,87.1563 c 19.265,0 37.105,3.3476 53.535,10.0468 16.422,6.7069 30.777,15.9879 43.012,27.8169 12.218,11.816 21.789,25.781 28.714,41.875 6.918,16.097 10.364,33.535 10.364,52.328 0,18.777 -3.446,36.218 -10.364,52.324" /></g></g></svg>
