<?xml version="1.0" encoding="utf-8"?>
<!-- Generator: Adobe Illustrator 21.1.0, SVG Export Plug-In . SVG Version: 6.00 Build 0)  -->
<svg version="1.1" id="Layer_1" xmlns="http://www.w3.org/2000/svg" xmlns:xlink="http://www.w3.org/1999/xlink" x="0px" y="0px"
	 viewBox="0 0 931.9 231.6" style="enable-background:new 0 0 931.9 231.6;" xml:space="preserve">
<style type="text/css">
	.st0{fill:#FFFFFF;}
</style>
<g>
	<path class="st0" d="M0.5,144.1c15.6-28.5,33.4-55.8,47.2-85.2c3.7-7.8,7.8-15.5,8.3-24.3c0.1-1.4,0.5-2.3,2.1-2.9
		c9.8-3.5,19.4,2.4,20.2,12.7c1.2,15.8,1.2,31.6,3.2,47.3c1.3,10,3.8,19.9,7.1,29.9c7.5-15.1,14.7-29.9,22.1-44.5
		c10.9-21.3,23.2-41.9,35.8-62.2c3.9-6.4,8.4-12.3,16-14.7c1.6-0.5,4,0.9,5,1.3c5.4,2.4,7.3,6.7,4.9,12.2c-1.4,3.2-3.4,6.1-5.7,8.7
		c-20.1,22.4-34.2,48.6-48.2,74.9c-8.2,15.4-15.6,31.2-22.3,47.3c-3.4,8.2-11.4,10.3-18.7,5.2c-1.6-1.1-2.8-2.7-2.8-4.5
		c0.3-13.6-4.8-26.1-7.2-39.1C65,92.7,64,79.3,63.5,64.4c-5,9.4-9.5,17.6-13.7,25.9c-6.5,12.5-12.9,25.1-19.2,37.7
		c-3,6.1-6,12-6.1,19.2c-0.1,4.7-4.5,7.1-9.1,7.8c-5.4,0.8-10.4-0.4-14.8-4C0,150.6,0,148.8,0,147.5C0,146.4,0.1,145,0.5,144.1z"/>
	<path class="st0" d="M428.4,133c-6.1-7.8-12.4-14-17.2-21.5c-2.7-4.2-5-8.7-5.7-13.7c-1.5-10.7,3.1-19.4,13.2-24.6
		c9.9-5.1,20.7-6.3,31.6-4.8c4.3,0.6,8.5,2.4,10,7.2c1.2,3.7-0.4,6.9-3,9.5c-3,3-6.7,3.4-10.7,2.4c-4.5-1.2-9.1-1.8-13.8-1.5
		c-8.6,0.6-12.1,5.6-9.7,14c1.8,6.1,5.5,11,9.4,15.7c4.2,5,8.6,9.7,12.9,14.6c3.7,4.2,5.5,8.9,2.7,14.2c-2.8,5.2-7.3,7.5-13.3,6.8
		c-15.7-1.7-31.5-3.3-47.2-5.1c-7.2-0.8-9.1-4.7-6-11.2c1.2-2.4,2.8-4.6,4.9-6.2c2.6-2,4.8-2.6,8.4-0.8
		C405.1,133,416.3,133.4,428.4,133z"/>
	<path class="st0" d="M931.6,104.1c-2.3-4.8-6.5-6.7-11.5-7.8c-4.3-0.9-4.4,3.2-6.5,4.9c-0.8,0.6-1.5,1.3-2.3,2
		c-17.4,14.3-37.2,23.8-58.8,29.6c-1.5,0.4-3.1,0.9-4.9-0.1c4.9-3.9,9.2-8,12.2-13.2c6.2-10.5,1.6-19.5-10.5-20.4
		c-3.3-0.2-6.6,0-9.9,0.6c-4.7,0.9-9,2.9-13.4,4.2c-0.8-1.2-0.1-1.9,0.2-2.6c3.8-10.1,0-15.9-10.8-16.2c-1.3,0-2.7,0-4,0
		c-2.7,0-4.4,0.9-4.3,4c0,5.4-2.9,9.1-7.1,12.4c-14.2,11.2-29.6,20.4-46.2,27.3c-4.7,2-9.6,3.8-14.7,4.6c-1.5,0.2-3.1,0.8-4.2-0.6
		c-1.1-1.5,0.1-3,0.9-4.1c2.4-3.8,5.1-7.4,7.7-11.1c2.5-3.6,3.1-7.3,1-11.2c-2.1-4.1-5.9-4.4-9.9-4.1c-1.8,0.1-3.6,0.5-5.4,0.9
		c-12.2,2.8-21.5-1.7-28.5-11.6c-3.9-5.5-8.4-6.9-14.7-5.1c-2.5,0.7-3.9,1.8-3.4,4.9c0.9,5.7-1.3,10.4-5,14.6
		c-7.4,8.2-22.3,11.2-32.3,6.6c-2-0.9-2.9-2.4-3.8-4.3c-1.9-4-4.5-7.6-9.1-8.5c-10.4-2-20.4-0.6-27.3,8c-5.7,7-12.8,11.5-20.7,15.1
		c-13.6,6.3-27.4,12.2-42.8,12.5c-8.3,0.2-11.8-3.6-11.9-11.9c0-1.8,0.1-3.7,0.5-5.5c6.7-28.2,21.9-51.4,42.1-71.7
		c2-2,4.5-3.4,7.3-4.2c4.1-1.2,6.8,0.3,8.4,4c1.3,3.1,1.1,6.2-0.1,9.2c-2.7,7.3-6.7,13.7-12.9,18.6c-0.8,0.6-1.5,1.2-1.9,2.2
		c-1.9,4.5,0.1,10.9,4.4,13.8c3.7,2.5,9,1.8,12.5-2.6c9.7-12,15.7-25.7,15.3-41.3c-0.5-19.1-15.9-28-33.2-19.8
		c-5.8,2.7-10.8,6.5-15.3,11c-19.1,19-32.5,41.6-42,66.6c-3,7.8-4.6,16-4.2,24.4c0.8,14.5,10.3,24.1,24.8,25
		c11.9,0.8,23.1-2.4,34-6.6c8.1-3.1,16-6.8,24.1-10.2c2.7,13.8,9.2,17.8,22.5,13.7c9.3-2.9,16.3-9.1,21.6-16.9
		c2.6-3.8,4.6-5.6,9.3-3.5c2.7,1.3,6.2,1.3,9.3,1.3c15.3,0.3,27.8-5.5,37.4-17.5c1-1.2,1.4-3.8,4.1-2c7.4,5.1,15.7,7.7,25,8.3
		c-2.4,5.2-5.4,9.7-6.2,15c-1.4,9.2,3.5,15.3,12.8,15.7c5,0.2,9.9-0.6,14.8-2c15.9-4.6,30.5-12.1,45-20c1.4-0.8,2.9-1.5,5.3-2.7
		c-12.5,26.8-24.4,52.6-36.4,78.3c-2.5,5.3-4.9,10.6-6,16.4c-0.8,4.4-0.9,8.8,4.6,10.7c1.1,0.3,2.5,0.4,3.9,0.4
		c1.4,0,2.9-0.1,4.3-0.4c5.9-1.5,7.4-6.3,8.8-11.5c7.4-27.9,17-54.9,32-79.7c4.9-8.2,10.9-15.6,19.6-20.1c4.8-2.5,9.8-4.4,15.9-3.6
		c-1.5,3.6-3.7,6-5.9,8.5c-3.9,4.5-8.8,7.5-13.9,10.4c-3.4,2-5.4,4.9-4.7,9.1c0.8,4.2,4,5.4,7.6,6.2c3.5,0.8,6.9,0.6,10.4,0.1
		c33.2-4.6,63.3-17.3,91.6-34.7c2.6-1.6,4.9-3.5,5.7-6.6c0.1-1,0.2-1.8,0.1-2.7C931.9,105.8,931.9,104.8,931.6,104.1z M611.2,134.3
		c-3-0.4-3.1-2.5-1.7-4.3c3.8-5,9.5-7.5,14.7-10.7c1.1-0.7,1.7,0.4,1.7,2C625.9,125.1,615.4,134.8,611.2,134.3z"/>
	<path class="st0" d="M401.4,105.4c-0.8-4.6-5-7.4-10.9-7.5c-2.6,0-4.9,0.6-7.1,2c-7.8,5-16.2,5.5-24.9,2.8
		c-10.2-3.2-12.9-2.5-19.8,6c-5.5,6.7-10.5,13.8-16.8,19.7c-1.7,1.6-3.4,3.9-5.8,3.2c-2.7-0.8-2.6-4-3.3-6.3
		c-0.2-0.8-0.2-1.7-0.3-2.5c-0.9-5.3-0.7-10.6-0.9-15.9c-0.2-4.3-2.1-7.7-6.8-8.7c-4.5-0.9-7.2,1.4-9.1,5.2
		c-4.5,8.9-11.6,15.8-18.1,23.1c-4.4,4.9-7.3,4-9.3-2.3c-1.5-4.7-1.4-9.5-1.6-14.3c-0.5-9-8.1-13.9-16.5-10.8
		c-1.1,0.4-2.5,0.5-2.4,2c0.2,5.3-3.6,8-6.9,10.9c-9.9,8.5-21.1,15-33.2,19.9c-8.3,3.4-16.9,5.1-25.8,4.1
		c-6.9-0.7-12.8-3.1-16.3-9.8c-1.7-3.2-1.4-4.8,2.3-6.2c12.9-4.7,24.8-11.2,35.6-19.8c4.3-3.5,8.2-7.3,10.6-12.4
		c4.2-9.2-0.5-18.2-10.4-19.9c-6.5-1.1-12.9-0.1-19.2,1.7c-17.1,5-27.7,17-34.6,32.8c-0.6,1.4-0.5,3.3-2.7,3.7
		c-4.4,0.8-9,1.1-12.5-1.4c-3.4-2.5-5.2-0.7-7,1.3c-4.5,5-3.4,12.2,2.4,15.9c4.1,2.6,8.7,3.2,13.4,2.9c2.4-0.2,3.3,0.4,3.8,3
		c2.2,10.3,8.8,16.8,18.7,20.2c9.2,3.1,18.6,3.6,28.1,2.3c19.4-2.7,36.2-11.7,52.6-21.8c1.5-0.9,2.7-2.5,4.8-2.2
		c1.4,6.4,3,12.7,6.5,18.3c4,6.4,9.2,8,16.3,5.4c4.6-1.7,8.5-4.5,12-7.9c3.4-3.4,6.6-7,10.3-10.9c1,3.9,2.3,7.4,4,10.6
		c5.4,9.9,13.8,12.2,23.4,6.4c5-3,9.4-6.9,13.3-11.2c4.4-4.8,8.6-9.8,12.9-14.5c3.1-3.4,6.4-4.9,11.5-3.8
		c11.2,2.6,22.2,0.4,32.8-3.6C399.5,113.3,402.1,109.5,401.4,105.4z M190.3,83.7c1.8-0.5,3.9-1.2,4.9,0.7c0.9,1.7-0.8,3.1-2,4.1
		c-7.2,6.3-15.9,9.8-25.1,12.5C173.3,92.3,180.8,86.7,190.3,83.7z"/>
</g>
</svg>
