<?xml version="1.0" encoding="utf-8"?>
<!-- Generator: Adobe Illustrator 24.3.0, SVG Export Plug-In . SVG Version: 6.00 Build 0)  -->
<svg version="1.1" id="レイヤー_1" xmlns="http://www.w3.org/2000/svg" xmlns:xlink="http://www.w3.org/1999/xlink" x="0px"
	 y="0px" viewBox="0 0 988.31 193.54" style="enable-background:new 0 0 988.31 193.54;" xml:space="preserve">
<style type="text/css">
	.st0{fill:#ffffff;}
</style>
<g>
	<path class="st0" d="M156.47,104.32l-30.58-44.37c0.82-1.25-0.19-3.24-0.54-3.64c-1.26-1.42-3.42-2.69-7.78-2.17
		c-1.51,0.18-3.6,1.21-5.94,2.44h-4.83v2.47c-3.13,1.49-6.35,2.64-9.11,2.27c-3.41-0.46-6.74-2.9-8.81-4.74
		c-2.65-5.88-5.06-11.06-2.59-11.69c2.41-0.62,5-0.32,7.41-0.54c2.49-0.23,7.79,1.4,8.73-1.67c0.07-1.93-2.49-2.46-3.9-3.07
		c-2.21-0.95-3.95-2.24-5.9-3.6c-3.84-2.68-7.67-3.27-12.21-2.34c-1.97,0.4-4.15,2.17-7.14,4.87c-1.99,1.8-3.74,4.86-6.44,9.78
		c-2.55,4.65-13.16,27.76-13.96,46.07c-0.62,14.11,1.85,37.56,3.27,39.97c-1.48,3.21-3,8.92-5.12,9.52c-3.22,0.91-4.18,3.14-1,3.04
		c3.18-0.1,5.01-0.65,6.3-1.46c1.68-1.06,5.4-5.95,5.61-6.09c0.02,0.36-0.93,5.13-1,5.45c-1.11,4.63-1.7,6,1.29,4.21
		c0.31-0.19,1.76-0.08,2.2,0.11c1.3,0.57,2.94,0.58,3.77,0.68c3.46,0.4,4.93-1.6,2.01-4.18c-1.08-1.73-0.76-4.22-0.74-6.44
		c4.82-0.44,7.99-2.31,7.99-2.31c0.4,1.38,2.2,4.99,2.21,7.31c0.01,1.11-0.69,1.68-0.38,2.38c0.58,1.28,3.18-0.68,4.35,0.11
		c3.44,0.98,5.29,2.26,8.18,0.23c1.8-2.24-1.6-2.69-3.71-5.12c-0.72-0.82-1.81-3.68-1.81-3.66c-0.15-2.04-1.66-8.89,1.11-16.22
		c4.96-13.13,8.11-24.2,7.84-33.35c3.44-2.65,8.34-6.09,11.55-9.08v58.37h18.72V90.12l32.9,47.74h16.77V56.58h-18.72V104.32z
		 M89.28,38.63c0.4-0.21,0.89-0.05,1.1,0.36s0.05,0.89-0.36,1.1c-0.4,0.21-0.89,0.05-1.1-0.36C88.72,39.33,88.88,38.84,89.28,38.63z
		 M86.57,111.82c-2.94,8.5-7.92,19.35-15.04,22.99c-0.48,0.25-1.35-0.1-1.3-0.81c0.05-0.71,0.1-1.58,0.14-2.41
		c0.07-1.51-1.2-1.27-1.89-0.9c-1.31,0.7-2.62,0.37-3.37-0.83c-0.25-0.4,1.19-7.89,1.81-17.27c0.69-10.48,0.38-15.7,2.13-16.15
		c3.31-0.85,13.76-3.38,22.12-7.22c0.25-0.11,0,0,0.26-0.14C91.26,98.65,89.19,104.25,86.57,111.82z M73.89,75.58
		c-2.52-0.49-5-5.15-2.51-13.99c2.7-9.58-0.62-19.38,6.35-23.05c0.06-0.03,2.87-0.63,3.96,0.32c0.93,0.81,1.31,2.35,2,3.61
		c0.14,0.26,0.25,1.45-0.61,1.95c-0.75,0.43-0.77,1.52-0.64,2.43c0.48,3.21,8.2,22.64,9.21,30.49
		C83.31,79.94,76.57,76.11,73.89,75.58z M94.7,76.56c-0.13-0.55-0.32-1.41-0.54-2.44l12.64-4.84v4.12
		C104,74.34,99.41,75.05,94.7,76.56z"/>
	<path class="st0" d="M211.83,56.58l-29.03,81.28h19.35l5.16-15.48h28.39l5.16,15.48h19.35l-29.03-81.28H211.83z M212.47,106.26
		l9.03-27.09l9.03,27.09H212.47z"/>
	<polygon class="st0" points="252.86,74.65 276.08,74.65 276.08,137.87 294.79,137.87 294.79,74.64 318.01,74.64 318.01,56.58 
		252.86,56.58 	"/>
	<rect x="326.49" y="56.58" class="st0" width="18.71" height="81.29"/>
	<polygon class="st0" points="390.34,112.7 372.28,56.58 352.93,56.58 380.67,137.86 400.02,137.86 427.76,56.58 408.4,56.58 	"/>
	<polygon class="st0" points="454.18,105.6 490.31,105.6 490.31,87.54 454.18,87.54 454.18,74.64 493.53,74.64 493.53,56.58 
		435.47,56.58 435.47,137.85 494.82,137.85 494.82,119.79 454.18,119.79 	"/>
	<path class="st0" d="M577.49,55.93c-21.94,0-40,18.06-40,41.29c0,23.23,18.07,41.29,40,41.29s40-18.06,40-41.29
		C617.49,73.99,599.42,55.93,577.49,55.93z M577.49,120.44c-11.61,0-21.29-9.68-21.29-23.22c0-13.54,9.68-23.22,21.29-23.22
		s21.29,9.68,21.29,23.22C598.78,110.76,589.1,120.44,577.49,120.44z"/>
	<path class="st0" d="M665.41,120.44c-11.61,0-21.29-9.68-21.29-23.22c0-13.54,9.68-23.22,21.29-23.22
		c9.67,0,15.48,5.81,17.41,12.25l19.35-1.29c-3.87-15.48-17.42-29.03-36.77-29.03c-21.94,0-40,18.06-40,41.29
		c0,23.23,18.07,41.29,40,41.29c20,0,33.55-13.55,37.42-29.03l-19.35-1.29C681.53,114.64,675.73,120.45,665.41,120.44z"/>
	<polygon class="st0" points="732.33,105.6 768.46,105.6 768.46,87.54 732.33,87.54 732.33,74.64 771.68,74.64 771.68,56.58 
		713.62,56.58 713.62,137.85 772.97,137.85 772.97,119.79 732.33,119.79 	"/>
	<path class="st0" d="M808.45,56.58l-29.03,81.28h19.35l5.16-15.48h28.39l5.16,15.48h19.35L827.8,56.58H808.45z M809.1,106.26
		l9.03-27.09l9.03,27.09H809.1z"/>
	<polygon class="st0" points="914.11,56.58 914.11,104.32 881.21,56.58 864.44,56.58 864.44,137.86 883.15,137.86 883.15,90.12 
		916.05,137.86 932.82,137.86 932.82,56.58 	"/>
</g>
<g id="レイヤー_2_1_">
</g>
<g id="レイヤー_3">
</g>
<g id="レイヤー_4">
</g>
</svg>
