<svg xmlns="http://www.w3.org/2000/svg" xmlns:xlink="http://www.w3.org/1999/xlink" width="345.567" height="431" viewBox="0 0 345.567 431">
  <defs>
    <linearGradient id="linear-gradient" x1="0.5" x2="0.878" y2="1.024" gradientUnits="objectBoundingBox">
      <stop offset="0" stop-color="#fff"/>
      <stop offset="1" stop-color="#e57f21"/>
    </linearGradient>
  </defs>
  <g id="guitar" transform="translate(-1053.433 -446)">
    <path id="Path_5" data-name="Path 5" d="M3389,877s-336.7-39.7-344.7-117.4,42.1-62.4,37.4-118-6-111.9,80-158.6,120.6,24,166.6,8,60.7-24.7,60.7-24.7Z" transform="translate(-1990)" fill="#e57f21"/>
    <g id="layer1" transform="translate(900.268 149.393)">
      <g id="Group_2" data-name="Group 2" transform="translate(191.732 296.607)">
        <path id="Path_4" data-name="Path 4" d="M220.147,296.607a1.467,1.467,0,0,0-1.219.635c-.345.459-.46,1.058-.53,2.644-.092,2.321-.3,3.723-.6,3.907s-.253,1.1.092,1.724c.161.3,1.1,1.77,2.068,3.265.966,1.471,1.77,2.758,1.77,2.827a4.038,4.038,0,0,0,.507.851,32.715,32.715,0,0,1,2.575,4.759c2.045,4.046,2.206,4.414,2.206,4.736,0,.183.092.321.23.321.115,0,.23.138.23.322a57.417,57.417,0,0,0,2.6,6.276c.344.643.643.8,2.391,1.333a11.972,11.972,0,0,1,6.046,3.356,40.963,40.963,0,0,1,3.909,7.219c.092.253.459,1.058.781,1.793a8.95,8.95,0,0,1,.6,1.609,1.126,1.126,0,0,0,.184.53,4.394,4.394,0,0,1,.459,1.126,43.751,43.751,0,0,0,1.678,4.07,2.6,2.6,0,0,1,.207.989c0,.321.092.574.23.574.115,0,.23.253.23.551,0,.322.092.645.229.712a.661.661,0,0,1,.23.507,4.215,4.215,0,0,0,.368,1.172,24.823,24.823,0,0,1,1.264,3.381,11.209,11.209,0,0,0,.828,1.976,1.439,1.439,0,0,1,.3.8,1.229,1.229,0,0,0,.207.691,10.965,10.965,0,0,1,.943,3.471c0,.413-.138.528-.576.528a5.037,5.037,0,0,0-1.471.368c-.8.321-.943.482-1.173,1.448a3.62,3.62,0,0,0,.207,2.506,9.985,9.985,0,0,1,.484,3.609V375.4l-1.012,1.081c-1.357,1.472-1.517,1.862-1.517,3.54A24.557,24.557,0,0,1,245.25,386a2.791,2.791,0,0,0,.046,2.9,25.562,25.562,0,0,1,1.15,2.46,15.335,15.335,0,0,0,1.058,2.254,3.317,3.317,0,0,1,.436,1.195,5.029,5.029,0,0,0,1.035,1.77,9.078,9.078,0,0,1,1.035,1.5,7.069,7.069,0,0,0,.437,1.079c.229.53.666,1.633.92,2.461a9.6,9.6,0,0,0,.828,1.953,1.918,1.918,0,0,1,.344.781,14.394,14.394,0,0,0,1.54,3.633,1.114,1.114,0,0,1,.3.622,58.423,58.423,0,0,0,4.552,8.068c.276.368,1.058,1.426,1.7,2.323a6.4,6.4,0,0,0,1.494,1.678c.138,0,.322.207.414.459a3.139,3.139,0,0,0,.9,1.081,11.41,11.41,0,0,1,2.575,4.782c.505,1.678.735,1.976,2,2.575.528.252,1.54.735,2.252,1.079a3.943,3.943,0,0,1,2.483,2.438c.161.436.391,1.012.507,1.264a15.085,15.085,0,0,1,1.356,5.931,6.994,6.994,0,0,1-.781,3.817,2.407,2.407,0,0,0-.184,1.035c.069.505-.115.643-1.632,1.264a4.512,4.512,0,0,1-1.61.238,11.386,11.386,0,0,1-3.838-.721,29.01,29.01,0,0,1-4.069-2.16,8.861,8.861,0,0,0-1.15-.806,11.3,11.3,0,0,1-1.333-.964,7.275,7.275,0,0,0-1.1-.806c-.345-.206-.62-.459-.62-.551s-.207-.184-.46-.184-.459-.115-.459-.229c0-.154-.187-.226-.485-.226a5.939,5.939,0,0,0-2.274.639l-1.265.62.023,1.15c.023.62.161,1.977.322,2.989.138,1.01.344,3.172.413,4.827a13.535,13.535,0,0,0,.46,3.517,13.46,13.46,0,0,0,2.644,2.046c4.46,2.873,4.873,3.149,6.712,4.758,6.092,5.311,8.185,9.127,8.208,14.966,0,3.2-.161,3.978-1.173,5.311a20.1,20.1,0,0,0-1.609,2.736c-.437.9-.874,1.77-.966,1.954a27.531,27.531,0,0,0-1.586,3.356,5.1,5.1,0,0,1-.92,1.2c-.41.427-.737.689-.863.689-.037,0-.057-.023-.057-.069,0-.184-.115-.345-.23-.345-.138,0-.229.207-.229.484a3.3,3.3,0,0,1-.989,1.448,14.288,14.288,0,0,0-1.311,1.471c-.184.276-.436.507-.6.507-.138,0-.576.459-.989,1.035a18.092,18.092,0,0,1-1.77,2.022,16.7,16.7,0,0,0-1.885,2.116c-.459.62-1.379,1.7-2,2.367a18.465,18.465,0,0,0-1.793,2.185c-.367.528-.941,1.264-1.287,1.655a6.472,6.472,0,0,0-1.862,3.931,3.336,3.336,0,0,1-.368,1.564c-.321.505-.3.6.184,1.1.943.943,1.38,1.793,1.242,2.392-.092.3-.23.551-.345.551s-.321.345-.459.758a2.425,2.425,0,0,1-1.012,1.2,4.622,4.622,0,0,0-.851.6c-.069.069-1.035.689-2.162,1.357a20.7,20.7,0,0,0-4.391,3.562,45.328,45.328,0,0,1-3.7,3.335c-1.816,1.333-2.023,1.517-8.92,8.414-6.345,6.322-10.736,10.921-13.633,14.254-.528.62-1.241,1.425-1.563,1.816-.344.367-.874,1.056-1.218,1.494s-.668.851-.737.92-.413.528-.8,1.035c-.367.505-.735.966-.8,1.035-.321.252-6,7.4-6.276,7.885a1.845,1.845,0,0,1-.551.666,25.482,25.482,0,0,0-1.609,2.183c-.735,1.127-1.4,2.07-1.471,2.139s-.53.9-1.012,1.839a23.194,23.194,0,0,1-1.242,2.16,13.912,13.912,0,0,0-1.173,1.862c-.436.781-1.264,2.208-1.838,3.127-.576.943-1.15,1.907-1.311,2.16-.138.253-.712,1.334-1.265,2.414l-.987,1.954.023,2.759a12.02,12.02,0,0,0,.436,4.023,38.857,38.857,0,0,0,2.943,6.024,6.115,6.115,0,0,1,.712,1.1,9.276,9.276,0,0,0,.574.92,5.405,5.405,0,0,1,.6.989,6.258,6.258,0,0,0,.851,1.242,1.249,1.249,0,0,1,.413.8c0,.23.069.413.184.413.092,0,.3.345.482.758.184.391.758,1.4,1.265,2.231a28.134,28.134,0,0,1,1.724,2.9,3.312,3.312,0,0,0,.528.8,8.589,8.589,0,0,1,.758,1.172c.253.484,1.2,2.07,2.093,3.563a68.1,68.1,0,0,1,3.563,6.276c.551,1.081,1.058,2,1.127,2.07.161.161.989,1.747,2.575,4.942,2.552,5.172,4.345,8.736,5.172,10.23.436.828,1.333,2.484,1.954,3.679.643,1.2,1.241,2.231,1.31,2.3a23.8,23.8,0,0,1,1.2,2.183,29.152,29.152,0,0,0,4.345,6.207,21.58,21.58,0,0,1,1.563,1.954,20.339,20.339,0,0,0,2.414,2.644c2.392,2.252,2.8,2.6,4.024,3.264a23.856,23.856,0,0,1,2.068,1.288,5.7,5.7,0,0,0,2.644.874c2.438.3,2.461.321,2.461,1.448a1.869,1.869,0,0,1-.345,1.287,1.919,1.919,0,0,0-.345,1.288,3.42,3.42,0,0,1-.275,1.471c-.23.345-.23.622,0,1.242a4.031,4.031,0,0,1-.851,4,3.463,3.463,0,0,1-1.265.989c-.782.161-1.333,1.2-1.333,2.46.023,1.219-.576,2.346-1.242,2.346-.184,0-.322.092-.322.229a.259.259,0,0,1-.275.23,1.582,1.582,0,0,0-1.1,1.081c0,.459-.46.874-1.173,1.058a19.141,19.141,0,0,0-3.656,2.206,17.989,17.989,0,0,1-1.724,1.173c-2.9,1.839-3.563,2.552-4.138,4.483a3.723,3.723,0,0,0,.276,3.563c1.035,1.839,2.367,2.16,9.034,2.183a76.377,76.377,0,0,0,12.415-.92c4.345-.735,6.851-1.379,8.576-2.206a4.108,4.108,0,0,1,1.218-.437c.184,0,.322-.115.322-.23,0-.137-.138-.229-.322-.229a.594.594,0,0,1-.482-.253c-.207-.3.069-1.356.344-1.356.115,0,1.518-.622,3.1-1.38s2.988-1.379,3.1-1.379a7.064,7.064,0,0,0,1.081-.437,31.454,31.454,0,0,1,3.287-1.4c1.081-.368,1.586-.574,2.414-.92.368-.161.943-.391,1.265-.507.322-.137.874-.367,1.219-.551a3.182,3.182,0,0,1,.874-.321,76.992,76.992,0,0,0,8.942-4.323c0-.092.345-.344.737-.574a4.17,4.17,0,0,0,1.172-.989c.368-.482.391-.666.138-1.425a6.57,6.57,0,0,0-.482-1.081,1.791,1.791,0,0,1-.184-.851c0-.436-.115-.643-.345-.643-.3,0-.344-.207-.207-1.1.115-.943,0-1.54-.712-3.633-1.448-4.161-2.183-5.38-3.356-5.38-.505,0-.92-1.172-.482-1.333.505-.161.3-.966-.3-1.242a1.485,1.485,0,0,1-.735-.851c-.23-1.081-4.965-5.311-5.908-5.311-.207,0-.622-.39-.943-.9-.782-1.148-2.415-2.321-3.266-2.321-.574,0-.758-.161-1.172-1.012a3.352,3.352,0,0,0-.851-1.15.516.516,0,0,1-.345-.436,1.566,1.566,0,0,0-.413-.758,6.38,6.38,0,0,1-1.2-2.208,10.658,10.658,0,0,0-1.609-2.483,3.129,3.129,0,0,1-.92-1.793,14.571,14.571,0,0,0-2.323-4.483,1.113,1.113,0,0,1-.436-.92,3.126,3.126,0,0,0-1.127-2.252,5.809,5.809,0,0,1-1.976-3.586,4.646,4.646,0,0,0-.783-1.54,5.961,5.961,0,0,1-.943-1.862,3.257,3.257,0,0,0-.782-1.448c-.6-.507-.828-.874-1.976-3.15-.507-1.012-1.012-2-1.127-2.183a16.868,16.868,0,0,1-1.265-3.035,2.644,2.644,0,0,0-.551-1.035,11.764,11.764,0,0,1-1.2-2.022,18.417,18.417,0,0,0-1.287-2.323,2.685,2.685,0,0,1-.553-1.264,3.073,3.073,0,0,0-1.033-1.586,6.793,6.793,0,0,1-1.035-1.265,2.436,2.436,0,0,0-.576-.9,2.289,2.289,0,0,1-.574-.989,5.692,5.692,0,0,0-.8-1.517,4.649,4.649,0,0,1-.8-1.816,5.28,5.28,0,0,0-.414-1.632,23.892,23.892,0,0,1-1.425-3.771,3.05,3.05,0,0,0-.345-.9,4.252,4.252,0,0,1-.344-1.586c0-.735.115-.989.551-1.265,1.035-.62,2.483-1.907,6.092-5.424,1.977-1.908,4.093-3.932,4.736-4.483.62-.553,1.195-1.058,1.264-1.127a4.951,4.951,0,0,1,1.035-.414,7.907,7.907,0,0,0,2.6-1.264.431.431,0,0,1,.368-.161,6.665,6.665,0,0,0,1.517-.689c.689-.368,1.425-.735,1.609-.828.184-.069.553-.207.8-.322.253-.092,1.058-.459,1.793-.782a7.354,7.354,0,0,1,1.77-.6.725.725,0,0,0,.553-.207c.229-.36,3.276-.685,5.171-.685a3.3,3.3,0,0,1,1.472.18,1.275,1.275,0,0,0,.781.252,3.441,3.441,0,0,1,1.035.207c.3.115.989.322,1.563.482a38.023,38.023,0,0,1,9.932,4.621,2.532,2.532,0,0,0,.735.438,8.727,8.727,0,0,1,1.1.643c.551.368,1.563,1.012,2.252,1.448,1.609,1.012,5.587,3.679,5.748,3.863.069.069.528.436,1.033.827.9.666,5.174,4.207,5.4,4.46.069.069.576.505,1.15.966s1.356,1.148,1.724,1.494c.391.368,1.356,1.242,2.185,1.931.8.689,2.045,1.885,2.758,2.621,2.3,2.483,5.587,5.885,9.081,9.471,4.391,4.46,12.553,12.874,12.92,13.288a2.191,2.191,0,0,0,.46.413,23.111,23.111,0,0,1,1.793,1.793,20.948,20.948,0,0,0,4.069,3.609c.528.414,1.081.828,1.219.92.115.115,1.517,1.035,3.1,2.047,3.012,1.931,5.242,3.08,5.977,3.08a.707.707,0,0,1,.576.23.97.97,0,0,0,.689.23c.3,0,.62.092.689.23a1,1,0,0,0,.712.229,2.73,2.73,0,0,1,1.334.576,2.97,2.97,0,0,0,1.012.574.361.361,0,0,1,.321.207,21.6,21.6,0,0,0,3.173,1.77,37.711,37.711,0,0,1,6.689,3.815c2.229,1.977,3.563,3.1,3.977,3.4A14.055,14.055,0,0,1,363,645.3a41.728,41.728,0,0,0,3.909,2.966,1.288,1.288,0,0,1,.413.23,10.323,10.323,0,0,0,2.231,1.379.217.217,0,0,1,.229.23c0,.115.161.23.345.23s.345.092.345.229a.251.251,0,0,0,.252.23,2.94,2.94,0,0,1,.989.574,2.97,2.97,0,0,0,1.012.576,22.354,22.354,0,0,1,3.586,1.862,1.126,1.126,0,0,0,.643.206.536.536,0,0,1,.507.3c.046.138.206.735.367,1.311a30.215,30.215,0,0,0,3.2,7.7,7.527,7.527,0,0,0,1.862,2.183,6.332,6.332,0,0,1,1.173.943,16.406,16.406,0,0,0,3.287,2.07,12.188,12.188,0,0,1,2.575,1.54,2.09,2.09,0,0,0,1.242.6A4.928,4.928,0,0,1,392.5,671a10.446,10.446,0,0,0,2.139.8c.459.092.643.322.758.874.184.9,1.425,2.254,2.07,2.254.759,0,2.206,2.045,2.206,3.126,0,.276.092.6.23.666a7.245,7.245,0,0,1,.23,2.506,11.325,11.325,0,0,0,.16,2.529,5.968,5.968,0,0,1,.76,2.461c0,.436-.253.8-.851,1.264a8.257,8.257,0,0,0-1.058.874c-.345.461.046,6.115.482,6.851.6,1.035,2.162,1.357,7.38,1.472,1.147.035,2.033.058,2.8.058a34.356,34.356,0,0,0,7.111-.863,6.207,6.207,0,0,0,4.138-2.092c1.241-1.494,2.759-4.276,2.759-5.081a1.11,1.11,0,0,1,.206-.758,11.845,11.845,0,0,0,1.035-1.816,5.958,5.958,0,0,0,.828-3.679,53.368,53.368,0,0,0-.943-8.208,40.99,40.99,0,0,0-1.586-5.4,3.253,3.253,0,0,1-.3-.92,31.8,31.8,0,0,0-1.38-4.667c-.207-.461-.161-.735.368-1.655.781-1.38.781-1.724,0-3.266a4.266,4.266,0,0,0-2.323-2.367c-.482-.207-.735-.482-.735-.781,0-.6-.758-1.908-2.023-3.471a31.489,31.489,0,0,0-3.7-3.953,3.985,3.985,0,0,1-.9-1.334,38.923,38.923,0,0,0-2.989-5.149c-.482-.643-1.058-1.471-1.287-1.839a23.476,23.476,0,0,0-6.23-5.449c-1.747-.966-2.07-1.126-2.46-1.126a.641.641,0,0,1-.53-.23,3.169,3.169,0,0,0-1.612-.225,15.6,15.6,0,0,0-2.664.225l-1.242.23-2.529-2.575c-4.46-4.575-9.679-9.381-10.184-9.381a.937.937,0,0,1-.551-.413,15.516,15.516,0,0,0-1.908-1.609c-.9-.645-1.862-1.38-2.185-1.633-1.035-.8-2.851-2.091-4.483-3.172a24.843,24.843,0,0,1-2.068-1.517,6.214,6.214,0,0,0-1.15-.781,5.091,5.091,0,0,1-.8-.507,15.863,15.863,0,0,0-3.54-1.862c-.207,0-.368-.091-.368-.183,0-.253-1.241-.851-3.333-1.656-.253-.091-.851-.344-1.333-.551a4.836,4.836,0,0,0-1.1-.367,5.306,5.306,0,0,1-1.173-.461,4.678,4.678,0,0,0-1.379-.459,2.191,2.191,0,0,1-.828-.207,19.48,19.48,0,0,0-2.92-1.2,5.272,5.272,0,0,1-1.127-.482,1.436,1.436,0,0,0-.689-.184A1.421,1.421,0,0,1,348.4,602.4a5.938,5.938,0,0,0-1.242-2.8c-.551-.322-1.977-5.174-1.977-6.714a1.762,1.762,0,0,0-.206-1.035c-.3-.206-.714-2.988-1.173-8.068-.322-3.771-1.173-11.84-1.609-15.2-.115-1.012-.23-2.9-.23-4.184a16.7,16.7,0,0,0-.276-3.356,2.127,2.127,0,0,1,0-1.61c.138-.321.161-.643.069-.712a12.631,12.631,0,0,1-.229-3.034,36.318,36.318,0,0,0-.161-3.932c-.138-.851-.023-1.264.735-2.874a14.008,14.008,0,0,0,1.379-6.023c.161-2.229.437-3.08,1.173-3.356.758-.275.712-1.494-.115-2.46-.574-.689-.736-.758-2.068-.8a2.883,2.883,0,0,1-1.7-.345,5.437,5.437,0,0,1,0-3.31c.391-.39.345-3.2-.068-5.126a30.98,30.98,0,0,1-.483-3.356c-.161-1.678-.138-1.747.528-2.529a14.355,14.355,0,0,0,1.334-1.816c.345-.576.666-1.058.689-1.1.005-.008.024-.011.056-.011a25.586,25.586,0,0,1,3.508.884c.689.23,1.885.6,2.644.828,1.747.528,2.644,1.035,2.966,1.586.436.735.92,1.265,1.172,1.265a12.211,12.211,0,0,1,1.839.782,16.2,16.2,0,0,0,2.644,1.058,9.156,9.156,0,0,1,1.632.6,1.665,1.665,0,0,0,.754.191.93.93,0,0,0,.947-.582c.092-.229.253-.436.368-.436s.207-.161.207-.322a4.458,4.458,0,0,1,1.31-1.4,21.718,21.718,0,0,0,4.3-4.942,34.164,34.164,0,0,1,2.392-2.943,6.693,6.693,0,0,0,2.114-3.379,12.377,12.377,0,0,1,1.586-2.575c.714-.92,1.862-2.506,2.553-3.54a17.27,17.27,0,0,1,2.068-2.575,31.587,31.587,0,0,0,3.909-4.185,2.07,2.07,0,0,1,.574-.781,1.746,1.746,0,0,0,.574-.964c0-.23.069-.437.184-.437.092,0,.3-.345.484-.735a37.842,37.842,0,0,1,1.678-3.4,18.485,18.485,0,0,0,1.079-2.369c.161-.459.368-.851.484-.851a7.877,7.877,0,0,0,1.586-1.149,7.91,7.91,0,0,1,1.632-1.15.252.252,0,0,0,.23-.253.127.127,0,0,1,.119-.142.177.177,0,0,1,.088.027.073.073,0,0,0,.047.015,2.83,2.83,0,0,0,1.078-.8,3.159,3.159,0,0,1,1.265-.92c.23,0,.391-.092.391-.183,0-.115.252-.345.574-.507a1,1,0,0,0,.574-.828,27.386,27.386,0,0,1,1.15-4.919c.253-.828.574-1.908.712-2.415a29.335,29.335,0,0,1,1.058-3.1c.551-1.494.643-2.046,1.333-9.771.276-3.172.3-4.391.115-5.173-.138-.574-.367-1.494-.505-2.07a12.309,12.309,0,0,0-.414-1.494c-.115-.253-.367-1.035-.6-1.724a12.411,12.411,0,0,0-1.609-2.874,20.892,20.892,0,0,1-1.793-2.873c-.345-.691-.8-1.587-1.058-2a5.112,5.112,0,0,1-.505-1.839l-.069-1.1-1.127-.069q-.169-.012-.333-.012a2.118,2.118,0,0,0-1.023.173c-.142.142-.249.221-.329.221-.177,0-.217-.393-.2-1.346a3.146,3.146,0,0,0-.276-1.656,1.165,1.165,0,0,1-.275-.689,2.193,2.193,0,0,0-.207-.828c-.115-.207-.391-.8-.6-1.31-.23-.507-.507-1.1-.6-1.311-.39-.8-.183-2.069.6-3.771a15.5,15.5,0,0,0,.8-1.93,3.582,3.582,0,0,1,.459-.966,3.19,3.19,0,0,0,.46-1.1,3.278,3.278,0,0,1,.344-1.012,2.976,2.976,0,0,0,.345-1.127c0-.482-1.081-1.907-2.69-3.54-1.885-1.93-2-2.321-1.1-3.746a4.176,4.176,0,0,0,.576-1.173.778.778,0,0,1,.321-.528,6.324,6.324,0,0,0,.943-1.38c.735-1.448,2.254-3.126,2.805-3.126.92-.023,2.275-.943,4.575-3.127a73.692,73.692,0,0,0,5.885-5.839c.46-.574,1.793-2,2.943-3.2,1.885-1.977,3.448-4.23,3.448-5.013,0-.16.092-.3.229-.3.115,0,.23-.138.23-.322a.977.977,0,0,1,.414-.643,10.8,10.8,0,0,0,2.229-3.748,27,27,0,0,0,1.081-5.518c.413-3.585.345-4.276-.735-6.39a16.211,16.211,0,0,0-1.4-2.369,1.808,1.808,0,0,1-.436-1.033,2.9,2.9,0,0,0-.574-1.357,3.024,3.024,0,0,1-.576-1.058,21.22,21.22,0,0,0-2.621-3.654c-.321-.391-1.012-1.242-1.517-1.885a4.111,4.111,0,0,0-2.092-1.609c-.62-.23-1.126-.53-1.126-.691s-.253-.3-.553-.3a1,1,0,0,1-.712-.23c-.069-.138-.413-.23-.759-.23a6.073,6.073,0,0,1-2.483-.759.811.811,0,0,0-.484-.161,10.735,10.735,0,0,1-2.137-1.241c-2.254-1.564-3.656-2.208-4.759-2.208-3.149,0-8.16.689-8.667,1.173a.956.956,0,0,1-.551.207c-.668,0-2.277,1.379-2.782,2.367a4.967,4.967,0,0,1-2.344,2.529c-1.058.276-2.162,1.219-5.541,4.69a3.823,3.823,0,0,1-1.242.989c-.161,0-.436.229-.574.505a5.986,5.986,0,0,1-.874,1.127,20.183,20.183,0,0,0-1.494,1.839,2.837,2.837,0,0,0-.735,2.758c.114,1.334.068,1.564-.322,1.931a1.368,1.368,0,0,0-.461.712,3.886,3.886,0,0,1-1.149,1.265,12.286,12.286,0,0,0-1.839,2.023c-.689,1.126-.758,1.379-1.517,7.149-.461,3.381-.507,3.54-1.564,4.944a4.272,4.272,0,0,0-.828,1.448,13.348,13.348,0,0,1-1.724,3.609,5.927,5.927,0,0,0-1.035,2.8,5.009,5.009,0,0,0,1.449,2.644,1.111,1.111,0,0,1,.344.9c-.046.413-.3.574-1.195.8a4.375,4.375,0,0,1-1.07.186.869.869,0,0,1-.907-.692c-.184-.482-.345-.505-2.206-.528a8.721,8.721,0,0,1-2.254-.207,2.348,2.348,0,0,0-.828-.344,4.34,4.34,0,0,1-1.494-1.1c-2.6-2.713-3.127-3.149-5.2-4.161a29.873,29.873,0,0,0-3.081-1.357c-.505-.138-1.148-.344-1.448-.459a7.024,7.024,0,0,0-1.862-.207c-.966,0-1.379-.092-1.471-.322-.129-.328-.689-.505-1.316-.505a3.173,3.173,0,0,0-1.144.207,8.326,8.326,0,0,1-1.884.482,2.481,2.481,0,0,0-1.219.391,10.175,10.175,0,0,1-2.736.207,12.651,12.651,0,0,0-3.609.344,33.949,33.949,0,0,1-6.253,1.2,3.657,3.657,0,0,0-1.448.321.534.534,0,0,1-.436.207c-.276,0-1.127.53-3.84,2.344a1.61,1.61,0,0,1-.825.379,2.96,2.96,0,0,1-1.222-.539,4.844,4.844,0,0,0-2.384-.584,5.675,5.675,0,0,0-1.708.261,30.373,30.373,0,0,0-3.4,1.173.882.882,0,0,1-.385.116c-.251,0-.5-.192-1-.692a3.329,3.329,0,0,0-1.126-.851,6.9,6.9,0,0,0-2.438,1.081,1.441,1.441,0,0,0-.918,1.471c-.069.92-.115.966-1.2,1.311a3.558,3.558,0,0,1-1.012.23,1.031,1.031,0,0,1-.574-.184,7.247,7.247,0,0,0-2.748-.279c-.177,0-.366,0-.563,0a11.759,11.759,0,0,1-2.965-.207,2.2,2.2,0,0,0-1.173-.206,14.1,14.1,0,0,1-2.437-.276c-1.288-.276-1.379-.345-1.908-1.379a5.431,5.431,0,0,1-.551-1.449,1.774,1.774,0,0,0-.23-.758,17.782,17.782,0,0,1-1.379-3.2,2,2,0,0,0-.207-.712,13.643,13.643,0,0,1-.943-2.208,7.084,7.084,0,0,0-.437-1.127c-.229-.528-.551-1.333-.712-1.77a7.017,7.017,0,0,0-1.149-2.414.726.726,0,0,1-.23-.6,2.3,2.3,0,0,0-.207-.851,26.268,26.268,0,0,1-1.2-2.874c-.16-.459-.39-.851-.482-.851s-.184-.207-.184-.46a3.772,3.772,0,0,0-.253-1.079c-.505-1.219-.964-2.254-1.379-3.15-.666-1.4-.574-1.885.461-2.529a5.222,5.222,0,0,0,1.264-1.1,2.107,2.107,0,0,0-.069-2.415,4.966,4.966,0,0,0-3.173-1.169,2.773,2.773,0,0,0-.344.02,4.145,4.145,0,0,1-.5.046c-.413,0-.511-.2-.86-.989-.276-.6-.553-1.288-.668-1.541-.183-.482-1.056-2.6-1.724-4.115a15.011,15.011,0,0,1-.574-1.494c-.184-.53-1.264-3.218-1.816-4.506-.115-.253-.6-1.448-1.058-2.644-.482-1.2-.966-2.275-1.056-2.414a.918.918,0,0,1-.207-.576,2.8,2.8,0,0,0-.3-.92c-.161-.321-.528-1.195-.828-1.953s-.643-1.632-.758-1.954c-.138-.322-.322-.782-.437-1.035-.505-1.264-.964-2.345-1.148-2.69a1.986,1.986,0,0,1-.207-.735c0-.184-.069-.368-.184-.414a5.436,5.436,0,0,1-.6-1.333c-.23-.689-.62-1.724-.874-2.3s-.62-1.4-.828-1.839c-.184-.437-.437-.989-.53-1.2a2.113,2.113,0,0,1-.206-.758,2.091,2.091,0,0,0-.207-.758,11.534,11.534,0,0,1-1.4-3.863c0-.62-.115-.851-.437-.943-.6-.161-.943-1.035-.943-2.437a8.824,8.824,0,0,1,.758-3.517c.322-.344.138-1.287-.413-2.114a3.143,3.143,0,0,1-.576-1.7,2.339,2.339,0,0,0-2.414-2.252c-1.081,0-1.264-.207-1.264-1.4a2.811,2.811,0,0,0-2.736-2.782l-1.058-.069-.069-1.127a2.425,2.425,0,0,0-2.552-2.552c-1.448-.046-1.862-.39-1.862-1.517a1.67,1.67,0,0,0-.23-1.012c-.138-.069-.229-.391-.229-.689,0-.623-.771-1.056-1.475-1.056a1.189,1.189,0,0,0-.871.321c-.117.141-.2.21-.3.21s-.179-.064-.3-.187a4.5,4.5,0,0,1-.735-2.667,1.769,1.769,0,0,0-1.727-1.78,1.524,1.524,0,0,0-.917.308.8.8,0,0,1-.412.19c-.106,0-.2-.062-.324-.19a1.078,1.078,0,0,1-.069-1.379c.39-.391-.253-1.4-1.219-1.954a2.75,2.75,0,0,0-1.322-.4,2.13,2.13,0,0,0-.356.031,2.134,2.134,0,0,1-.337.034c-.477,0-.813-.3-2.1-1.644a24.856,24.856,0,0,0-2.483-2.275A2.492,2.492,0,0,0,220.147,296.607Z" transform="translate(-191.732 -296.607)" fill="url(#linear-gradient)"/>
      </g>
    </g>
  </g>
</svg>
