<svg id="Settings" xmlns="http://www.w3.org/2000/svg" viewBox="0 0 28.35 28.35"><defs><style>.cls-1{fill:#fff;}</style></defs><title>maintenance-white</title><path class="cls-1" d="M11.3,7.85l3,3.05a.71.71,0,0,1,0,1l-2.43,2.43a.71.71,0,0,1-1,0l-3-3.05a5.53,5.53,0,0,0,7.27,6.93l3.25,3.25a5.13,5.13,0,1,0,3.09-3.09l-3.25-3.25A5.53,5.53,0,0,0,11.3,7.85ZM25.23,21.19,26,23.95l-2,2-2.76-.74-.74-2.76,2-2Zm0,0"/><path class="cls-1" d="M14.92,19.14a6.32,6.32,0,0,1-2.32.24l-.3,1.74H10.47l-.32-1.9a.83.83,0,0,0-.61-.66,7.56,7.56,0,0,1-1.87-.77.85.85,0,0,0-.89,0L5.21,19,3.89,17.66,5,16.1a.84.84,0,0,0,0-.91,7.19,7.19,0,0,1-.8-1.9.84.84,0,0,0-.66-.6l-1.92-.33V10.51l1.89-.32a.83.83,0,0,0,.67-.61A7.23,7.23,0,0,1,5,7.67a.82.82,0,0,0,0-.9L3.83,5.19,5.13,3.89,6.69,5A.84.84,0,0,0,7.6,5a7.2,7.2,0,0,1,1.9-.8.84.84,0,0,0,.6-.66l.33-1.92h1.84l.32,1.89a.83.83,0,0,0,.61.67,7.41,7.41,0,0,1,2,.8.83.83,0,0,0,.9,0l1.55-1.13,1.32,1.32L17.81,6.73a.83.83,0,0,0,0,.9,7.28,7.28,0,0,1,.79,1.9.81.81,0,0,0,.66.61l1.9.32v1.84l-1.74.29a6.31,6.31,0,0,1-.24,2.32l.39.39A9,9,0,0,0,20,14.17l1.45-.24a1.58,1.58,0,0,0,1.32-1.56v-2a1.56,1.56,0,0,0-1.31-1.56L20,8.6a9.26,9.26,0,0,0-.55-1.33l.86-1.2a1.57,1.57,0,0,0-.17-2L18.75,2.64a1.6,1.6,0,0,0-2-.17l-1.2.86a9,9,0,0,0-1.39-.57l-.24-1.43A1.58,1.58,0,0,0,12.33,0h-2A1.57,1.57,0,0,0,8.8,1.33L8.55,2.8a8.84,8.84,0,0,0-1.33.56L6,2.5a1.61,1.61,0,0,0-2,.17L2.61,4.07a1.58,1.58,0,0,0-.17,2L3.3,7.31a8.88,8.88,0,0,0-.54,1.34l-1.43.24A1.58,1.58,0,0,0,0,10.45v2A1.57,1.57,0,0,0,1.33,14l1.47.25a8.85,8.85,0,0,0,.56,1.33l-.85,1.18a1.57,1.57,0,0,0,.17,2l1.39,1.39a1.6,1.6,0,0,0,2,.17l1.22-.87A9,9,0,0,0,8.6,20l.24,1.45a1.58,1.58,0,0,0,1.56,1.32h2a1.57,1.57,0,0,0,1.56-1.32L14.18,20a9.13,9.13,0,0,0,1.14-.47Z"/><rect class="cls-1" x="9.84" y="9.84" width="3.09" height="3.09" rx="0.52" ry="0.52" transform="translate(-4.72 11.39) rotate(-45)"/></svg>