<svg id="Sad_face" data-name="Sad face" xmlns="http://www.w3.org/2000/svg" viewBox="0 0 28.35 28.35"><defs><style>.cls-1{fill:#fff;}</style></defs><title>sad-face-white</title><path class="cls-1" d="M14.17,2.1A12.07,12.07,0,1,1,2.1,14.17,12.09,12.09,0,0,1,14.17,2.1m0-2.1A14.17,14.17,0,1,0,28.35,14.17,14.17,14.17,0,0,0,14.17,0Z"/><circle class="cls-1" cx="10.22" cy="10.14" r="2.2"/><circle class="cls-1" cx="18.13" cy="10.14" r="2.2"/><path class="cls-1" d="M20.89,20.88a1,1,0,0,1-1-.62c-.06-.13-1.2-2.37-5.76-2.37s-5.71,2.28-5.76,2.38A1.06,1.06,0,0,1,7,20.78a1,1,0,0,1-.54-1.36c.06-.15,1.62-3.64,7.68-3.64s7.62,3.49,7.68,3.64a1,1,0,0,1-.55,1.38A1,1,0,0,1,20.89,20.88Z"/></svg>