<svg id="Archive" xmlns="http://www.w3.org/2000/svg" viewBox="0 0 28.35 28.35"><defs><style>.cls-1{fill:#3f547f;}</style></defs><title>archive-blue</title><path class="cls-1" d="M27.22,6.66a1,1,0,0,0-.08-.26.91.91,0,0,0-.61-.51L14.59.1a1,1,0,0,0-.87,0l-12,5.84a1,1,0,0,0-.57.87V21.5a1,1,0,0,0,.56.9l12,5.82.4.12,0-.29h0l0,.3h.09l.14,0h0l12.26-5.92a1,1,0,0,0,.56-.9V6.67ZM13.15,13.32V25.75L3.1,20.87V8.44Zm2,0,4.41-2.14v3a1,1,0,0,0,2,0V10.21l3.69-1.79V20.85l-10.09,4.9ZM11,3.65,14.15,2.1l9.78,4.74L20.75,8.39Zm7.49,5.85-4.32,2.09L4.37,6.84,8.69,4.75Z"/></svg>