<svg id="Landing" xmlns="http://www.w3.org/2000/svg" viewBox="0 0 28.35 28.35"><defs><style>.cls-1{fill:#e35325;}</style></defs><title>autopilot-landing-orange</title><path class="cls-1" d="M2.2,11.31h0a.62.62,0,0,0-.29,1.19l8.61,2.87L7.65,16.51a.5.5,0,0,0,.1,1l1.88.31H9.8l7.14-1.19,6.87,1.12c2.63.39,3-.55,3-.84a1.32,1.32,0,0,0-.33-1c-.34-.44-1-.62-1.84-1.06-.29-.15-.55-.56-.7-.67-.52-.41-.76-.59-3.23-1L7.21,10.87,4.9,6.08a.62.62,0,0,0-.45-.34l-.88-.15a.62.62,0,0,0-.72.63L3,11.45Zm0,0"/><path class="cls-1" d="M28.35,21.56H0v1.2H28.35v-1.2Zm0,0"/></svg>