<svg id="Blacklist_-_Remove" data-name="Blacklist - Remove" xmlns="http://www.w3.org/2000/svg" viewBox="0 0 28.35 28.35"><defs><style>.cls-1{fill:#3f547f;}</style></defs><title>blacklist-remove-sec</title><path class="cls-1" d="M18.35,12.09A2.09,2.09,0,0,0,16.26,10H2a2,2,0,0,0-2,2V26.26a2.09,2.09,0,0,0,2.09,2.09H16.26a2.09,2.09,0,0,0,2.09-2.09h0Zm-2.08,12.6a1.59,1.59,0,0,1-1.59,1.59h-11a1.59,1.59,0,0,1-1.59-1.59h0V13.61A1.59,1.59,0,0,1,3.66,12h11a1.59,1.59,0,0,1,1.59,1.59h0V24.68Z"/><path class="cls-1" d="M4.62,20.17h9.11a1,1,0,1,0,0-2H4.62a1,1,0,1,0,0,2Z"/><path class="cls-1" d="M4.62,23.56h9.11a1,1,0,1,0,0-2H4.62a1,1,0,1,0,0,2Z"/><path class="cls-1" d="M4.62,16.78h9.11a1,1,0,0,0,0-2H4.62a1,1,0,1,0,0,2Z"/><path class="cls-1" d="M19.79,0a8.56,8.56,0,1,0,8.56,8.56A8.59,8.59,0,0,0,19.79,0Zm4.28,9.41H15.51V7.7h8.56Zm0,0"/></svg>