<svg id="Date" xmlns="http://www.w3.org/2000/svg" viewBox="0 0 28.35 24.63"><defs><style>.cls-1{fill:#3f547f;}</style></defs><title>calendar-blue</title><path class="cls-1" d="M12.32,13.14a.42.42,0,0,0,.52.29l.08,0,.77-.42v6.59a.42.42,0,0,0,.42.42h2a.42.42,0,0,0,.42-.42h0V10.1a.42.42,0,0,0-.42-.42H14.55a.42.42,0,0,0-.2,0l-2.27,1.21a.42.42,0,0,0-.21.47Z"/><rect class="cls-1" x="5.09" width="4.31" height="8.1" rx="0.57" ry="0.57"/><rect class="cls-1" x="18.95" width="4.31" height="8.1" rx="0.57" ry="0.57"/><path class="cls-1" d="M27.16,3h-2.9V7h2.49V22.71H1.6V7H4.09V3H1.19A1.19,1.19,0,0,0,0,4.16s0,0,0,0V23.45a1.19,1.19,0,0,0,1.19,1.19h26a1.19,1.19,0,0,0,1.19-1.19h0V4.2A1.19,1.19,0,0,0,27.19,3Z"/><rect class="cls-1" x="10.41" y="3.01" width="7.54" height="3.95"/></svg>