<svg id="Date" xmlns="http://www.w3.org/2000/svg" viewBox="0 0 28.35 24.63"><defs><style>.cls-1{fill:#fff;}</style></defs><title>date</title><path class="cls-1" d="M12.32,15.37a.42.42,0,0,0,.6.26l.77-.42v6.59a.42.42,0,0,0,.42.42h2a.42.42,0,0,0,.42-.42V12.33a.42.42,0,0,0-.42-.42H14.55a.42.42,0,0,0-.2,0l-2.27,1.21a.42.42,0,0,0-.21.47Zm0,0" transform="translate(0 -2.23)"/><rect class="cls-1" x="5.09" width="4.31" height="8.1" rx="0.57" ry="0.57"/><rect class="cls-1" x="18.95" width="4.31" height="8.1" rx="0.57" ry="0.57"/><path class="cls-1" d="M27.16,5.24h-2.9V9.19h2.49V24.94H1.6V9.2H4.09v-4H1.19A1.19,1.19,0,0,0,0,6.43V25.68a1.19,1.19,0,0,0,1.19,1.19h26a1.19,1.19,0,0,0,1.19-1.19V6.43A1.19,1.19,0,0,0,27.16,5.24Z" transform="translate(0 -2.23)"/><rect class="cls-1" x="10.41" y="3.01" width="7.54" height="3.95"/></svg>