<svg id="wizard-video" xmlns="http://www.w3.org/2000/svg" viewBox="0 0 28.35 28.35"><defs><style>.cls-1{fill:#3f547f;}</style></defs><title>wizard-video</title><path class="cls-1" d="M27.13,0H1.22A.57.57,0,0,0,.7.61V27.73a.57.57,0,0,0,.52.61H27.13a.57.57,0,0,0,.52-.61V.61A.57.57,0,0,0,27.13,0ZM21.21,1.2a.09.09,0,0,1,.08-.1H23a.09.09,0,0,1,.08.1h0V3.45a.09.09,0,0,1-.08.1H21.29a.09.09,0,0,1-.08-.1h0Zm3.37,3.61A1.37,1.37,0,0,1,26,6.13s0,0,0,.05v16a1.37,1.37,0,0,1-1.37,1.37H3.76A1.37,1.37,0,0,1,2.4,22.17h0v-16A1.37,1.37,0,0,1,3.76,4.81ZM18,1.2a.09.09,0,0,1,.08-.1h1.75a.09.09,0,0,1,.08.1h0V3.45a.09.09,0,0,1-.08.1H18.1a.09.09,0,0,1-.08-.1h0Zm-3.19,0a.09.09,0,0,1,.08-.1h1.75a.09.09,0,0,1,.08.1h0V3.45a.09.09,0,0,1-.08.1H14.9a.09.09,0,0,1-.08-.1h0Zm-3.19,0a.09.09,0,0,1,.08-.1h1.75a.09.09,0,0,1,.08.1h0V3.45a.09.09,0,0,1-.08.1H11.71a.09.09,0,0,1-.08-.1h0Zm-3.19,0a.09.09,0,0,1,.08-.1h1.75a.09.09,0,0,1,.08.1h0V3.45a.09.09,0,0,1-.08.1H8.51a.09.09,0,0,1-.08-.1h0Zm-3.19,0a.09.09,0,0,1,.08-.1H7.07a.09.09,0,0,1,.08.1h0V3.45a.09.09,0,0,1-.08.1H5.32a.09.09,0,0,1-.08-.1h0ZM4,3.45a.09.09,0,0,1-.08.1H2.12A.09.09,0,0,1,2,3.45V1.2a.09.09,0,0,1,.08-.1h1.8A.09.09,0,0,1,4,1.2M3.94,27a.09.09,0,0,1-.08.1H2.11A.09.09,0,0,1,2,27V24.72a.09.09,0,0,1,.08-.1H3.86a.09.09,0,0,1,.08.1h0Zm3.21,0a.09.09,0,0,1-.08.1H5.32a.09.09,0,0,1-.08-.1h0V24.72a.09.09,0,0,1,.08-.1H7.07a.09.09,0,0,1,.08.1h0Zm3.19,0a.09.09,0,0,1-.08.1H8.51a.09.09,0,0,1-.08-.1h0V24.72a.09.09,0,0,1,.08-.1h1.75a.09.09,0,0,1,.08.1h0Zm3.19,0a.09.09,0,0,1-.08.1H11.71a.09.09,0,0,1-.08-.1h0V24.72a.09.09,0,0,1,.08-.1h1.75a.09.09,0,0,1,.08.1h0Zm3.19,0a.09.09,0,0,1-.08.1H14.9a.09.09,0,0,1-.08-.1h0V24.72a.09.09,0,0,1,.08-.1h1.75a.09.09,0,0,1,.08.1h0Zm3.19,0a.09.09,0,0,1-.08.1H18.1A.09.09,0,0,1,18,27V24.72a.09.09,0,0,1,.08-.1h1.75a.09.09,0,0,1,.08.1h0Zm3.19,0a.09.09,0,0,1-.08.1H21.29a.09.09,0,0,1-.08-.1h0V24.72a.09.09,0,0,1,.08-.1H23a.09.09,0,0,1,.08.1h0Zm3.19,0a.09.09,0,0,1-.08.1H24.49a.09.09,0,0,1-.08-.1h0V24.72a.09.09,0,0,1,.08-.1h1.75a.09.09,0,0,1,.08.1h0Zm0-23.52a.09.09,0,0,1-.08.1H24.49a.09.09,0,0,1-.08-.1h0V1.2a.09.09,0,0,1,.08-.1h1.75a.09.09,0,0,1,.08.1h0Z"/><path class="cls-1" d="M19.69,14.77l-10.34,6a.7.7,0,0,1-1-.6V8.2a.7.7,0,0,1,1-.6l10.34,6a.7.7,0,0,1,0,1.17Z"/></svg>