<svg id="wizard-content" xmlns="http://www.w3.org/2000/svg" viewBox="0 0 28.35 28.35"><defs><style>.cls-1{fill:#3f547f;}</style></defs><title>wizard-content</title><path class="cls-1" d="M26.35,2.08A2.09,2.09,0,0,0,24.26,0H4A2,2,0,0,0,2,2V26.26a2.09,2.09,0,0,0,2.09,2.09H24.26a2.09,2.09,0,0,0,2.09-2.09h0Zm-2.08,22.6a1.59,1.59,0,0,1-1.59,1.59h-17a1.59,1.59,0,0,1-1.59-1.59h0V3.6A1.59,1.59,0,0,1,5.66,2h17a1.59,1.59,0,0,1,1.59,1.59h0V24.68Z"/><path class="cls-1" d="M6.8,7.14H21.91a1,1,0,0,0,0-2H6.8a1,1,0,0,0,0,2Z"/><path class="cls-1" d="M6.8,12.53H21.91a1,1,0,0,0,0-2H6.8a1,1,0,1,0,0,2Z"/><path class="cls-1" d="M6.8,17.93H21.91a1,1,0,0,0,0-2H6.8a1,1,0,1,0,0,2Z"/><path class="cls-1" d="M6.8,23.21H21.91a1,1,0,0,0,0-2H6.8a1,1,0,1,0,0,2Z"/></svg>