<svg id="Content_insights" data-name="Content insights" xmlns="http://www.w3.org/2000/svg" viewBox="0 0 28.35 28.35"><defs><style>.cls-1{fill:#3f547f;}</style></defs><title>content-insights-blue</title><path class="cls-1" d="M21.23,10.62A10.62,10.62,0,1,0,10.62,21.23h0A10.62,10.62,0,0,0,21.23,10.62Zm-10.62,8a8,8,0,1,1,8-8h0a8,8,0,0,1-8,8Z"/><path class="cls-1" d="M27.53,23.78,21,17.28A12.49,12.49,0,0,1,17.28,21l6.5,6.5a2.65,2.65,0,0,0,3.82-3.68l-.07-.07Z"/><rect class="cls-1" x="13.28" y="5.91" width="0.78" height="9.49"/><rect class="cls-1" x="12.15" y="15.02" width="3.03" height="0.78"/><rect class="cls-1" x="12.15" y="5.53" width="3.03" height="0.78"/><path class="cls-1" d="M9.85,14.32l-.1-.88h0a2.61,2.61,0,0,1-2.14,1,2,2,0,0,1-2.14-2c0-1.69,1.51-2.62,4.22-2.61V9.71A1.44,1.44,0,0,0,8,8.09a3.49,3.49,0,0,0-1.83.52l-.29-.84a4.35,4.35,0,0,1,2.3-.62c2.14,0,2.67,1.46,2.67,2.87v2.62A9.87,9.87,0,0,0,11,14.32H9.85Zm-.19-3.58c-1.39,0-3,.22-3,1.58a1.13,1.13,0,0,0,1.2,1.22,1.74,1.74,0,0,0,1.69-1.17A1.33,1.33,0,0,0,9.67,12V10.74Z"/></svg>