<svg id="Duplicate" xmlns="http://www.w3.org/2000/svg" viewBox="0 0 28.35 28.35"><defs><style>.cls-1{fill:#fff;}</style></defs><title>copy-white</title><path class="cls-1" d="M21.39,6a.85.85,0,0,1,.85.85h0V25.4a.85.85,0,0,1-.85.85H3a.85.85,0,0,1-.85-.85h0V6.86A.85.85,0,0,1,3,6h18.4m0-2.1H3a3,3,0,0,0-3,3V25.4a3,3,0,0,0,3,3H21.39a3,3,0,0,0,3-3V6.86a3,3,0,0,0-3-3Z"/><path class="cls-1" d="M27.3,21.63a1,1,0,0,1-1-1v-15A3.49,3.49,0,0,0,22.85,2.1h-18a1,1,0,1,1,0-2.1h17.9a5.59,5.59,0,0,1,5.58,5.59v15a1,1,0,0,1-1,1Z"/></svg>