<svg id="Desktop" xmlns="http://www.w3.org/2000/svg" viewBox="0 0 28.35 23.66"><defs><style>.cls-1{fill:#ccc;}</style></defs><title>desktop-gray</title><path class="cls-1" d="M26.81,4.73v0H1.53v0A1.67,1.67,0,0,0,0,6.22V22.84a1.63,1.63,0,0,0,.22.83,1.55,1.55,0,0,0,1.44.85h9.13v2.3H9.06a.76.76,0,0,0,0,1.53H19.28a.76.76,0,1,0,0-1.53H17.54v-2.3h9.12a1.55,1.55,0,0,0,1.44-.85,1.68,1.68,0,0,0,.24-.83V6.22a1.71,1.71,0,0,0-1.54-1.5Zm0,1.64V22.84c0,.1,0,.14-.14.14h-25c-.1,0-.14,0-.14-.14V6.22H26.81Zm0,0" transform="translate(0 -4.69)"/></svg>