<?xml version="1.0" encoding="utf-8"?>
<!-- Generator: Adobe Illustrator 19.2.0, SVG Export Plug-In . SVG Version: 6.00 Build 0)  -->
<svg version="1.1" id="Layer_1" xmlns="http://www.w3.org/2000/svg" xmlns:xlink="http://www.w3.org/1999/xlink" x="0px" y="0px"
	 viewBox="0 0 13 13" style="enable-background:new 0 0 13 13;" xml:space="preserve">
<style type="text/css">
	.st0{fill:#CB2027;}
</style>
<path class="st0" d="M11,1.9c-2.5-2.5-6.7-2.5-9.2,0c-2.5,2.5-2.5,6.7,0,9.2c2.5,2.5,6.7,2.5,9.2,0C13.6,8.6,13.6,4.4,11,1.9L11,1.9
	z M10.3,10.4c-2.1,2.1-5.6,2.1-7.8,0c-2.1-2.1-2.1-5.6,0-7.8c2.1-2.1,5.6-2.1,7.8,0C12.5,4.8,12.5,8.2,10.3,10.4L10.3,10.4z
	 M9.4,9.1c0.1,0.2,0,0.4-0.2,0.5C9,9.6,8.8,9.6,8.7,9.4C8.4,8.5,7.5,8,6.6,8c-1,0-1.8,0.5-2.1,1.3C4.4,9.5,4.2,9.6,4.1,9.6
	c0,0-0.1,0-0.1,0C3.8,9.5,3.7,9.3,3.8,9.1C4.2,8,5.3,7.3,6.6,7.3C7.8,7.3,8.9,8,9.4,9.1L9.4,9.1z M4,4.7C4,4.3,4.4,4,4.8,4
	c0.4,0,0.8,0.3,0.8,0.8c0,0.4-0.3,0.8-0.8,0.8C4.4,5.5,4,5.2,4,4.7L4,4.7z M7.5,4.7C7.5,4.3,7.8,4,8.2,4C8.7,4,9,4.3,9,4.7
	c0,0.4-0.3,0.8-0.8,0.8C7.8,5.5,7.5,5.2,7.5,4.7L7.5,4.7z M7.5,4.7"/>
</svg>
