<svg id="Layer_55" data-name="Layer 55" xmlns="http://www.w3.org/2000/svg" viewBox="0 0 28.35 28.35"><defs><style>.cls-1{fill:#ccc;}</style></defs><title>environment-in-app-gray</title><path class="cls-1" d="M20.49,0H7.85A1.92,1.92,0,0,0,5.94,1.91V26.43a1.92,1.92,0,0,0,1.91,1.91H20.49a1.92,1.92,0,0,0,1.91-1.91V1.91A1.92,1.92,0,0,0,20.49,0ZM12.15,1.38h4a.23.23,0,1,1,0,.46h-4a.23.23,0,1,1,0-.46Zm2,26a1,1,0,1,1,1-1,1,1,0,0,1-1,1Zm6.9-2.59H7.27V3h13.8Zm0,0"/><rect class="cls-1" x="8.55" y="7.61" width="2.72" height="2.72"/><rect class="cls-1" x="12.27" y="7.61" width="7.53" height="0.94"/><rect class="cls-1" x="8.55" y="11.33" width="11.25" height="9.41"/><rect class="cls-1" x="8.55" y="21.74" width="11.25" height="1.69"/><rect class="cls-1" x="8.55" y="4.27" width="11.25" height="2.34"/><rect class="cls-1" x="12.27" y="9.39" width="7.53" height="0.94"/></svg>
