<svg id="Hammer" xmlns="http://www.w3.org/2000/svg" viewBox="0 0 32 32"><defs><style>.cls-1{fill:#fff;}</style></defs><title>hammer-white</title><path class="cls-1" d="M11.4,1.17,18.54,7A.46.46,0,0,0,19.19,7l.29-.36A.46.46,0,0,0,19.42,6L12.28.11a.46.46,0,0,0-.65.06l-.29.36a.46.46,0,0,0,.06.65Zm0,0"/><path class="cls-1" d="M2.61,11.89l7.14,5.86a.46.46,0,0,0,.65-.06l.3-.36a.47.47,0,0,0-.07-.65L3.49,10.82a.46.46,0,0,0-.65.07l-.29.36a.46.46,0,0,0,.07.65Zm0,0"/><path class="cls-1" d="M29.53,22.05,15.08,11.26l2.73-3.33a.46.46,0,0,0-.06-.65L11.32,2a.47.47,0,0,0-.65.07L4.22,9.92a.46.46,0,0,0,.06.65l6.43,5.28a.46.46,0,0,0,.65-.06l2.74-3.33L27.51,24.52a.44.44,0,0,0,.64-.05l1.46-1.79a.43.43,0,0,0-.08-.63Zm0,0"/><path class="cls-1" d="M31.83,23.62,31.12,23a.47.47,0,0,0-.65.07l-1.76,2.15a.46.46,0,0,0,.06.65l.71.58a.46.46,0,0,0,.65-.07l1.75-2.14a.46.46,0,0,0-.06-.65Zm0,0"/><path class="cls-1" d="M15.1,27.23h-1a.78.78,0,0,0,.21-.53v-.79a.8.8,0,0,0-.8-.8H2.38a.8.8,0,0,0-.8.8v.79a.78.78,0,0,0,.21.53H.8A.8.8,0,0,0,0,28V31.2a.8.8,0,0,0,.8.8H15.1a.8.8,0,0,0,.8-.8V28a.8.8,0,0,0-.8-.8ZM14,30.9H2a.84.84,0,0,1-.84-.84v-.84A.83.83,0,0,1,2,28.4H14a.84.84,0,0,1,.84.83v.84a.84.84,0,0,1-.84.84Zm0,0"/></svg>