<svg id="Help" xmlns="http://www.w3.org/2000/svg" viewBox="0 0 28.35 28.35"><defs><style>.cls-1{fill:#333;}.cls-2{fill:#fff;}</style></defs><title>help-dark-gray</title><path class="cls-1" d="M14.17,0A14.17,14.17,0,1,0,28.35,14.17,14.17,14.17,0,0,0,14.17,0Z"/><path class="cls-2" d="M18.25,6.48A7.15,7.15,0,0,0,14,5.24a6,6,0,0,0-3.32.87,5.36,5.36,0,0,0-2.29,4.62v.15h3.52v-.15A3.17,3.17,0,0,1,12.41,9a1.84,1.84,0,0,1,1.71-.79,2,2,0,0,1,1.69.64,2.48,2.48,0,0,1,.47,1.46,2.17,2.17,0,0,1-.52,1.27,2.68,2.68,0,0,1-.6.62,14.54,14.54,0,0,0-2.55,2.05A3.74,3.74,0,0,0,12,16.74V17h3.42v-.14a2.27,2.27,0,0,1,.14-.92,2.44,2.44,0,0,1,.9-1.1l.9-.62a9.68,9.68,0,0,0,1.75-1.57A4.22,4.22,0,0,0,20,10.16,4.27,4.27,0,0,0,18.25,6.48Z"/><path class="cls-2" d="M13.93,18.83h-.07a2.13,2.13,0,0,0,0,4.27h.08a2.13,2.13,0,1,0,0-4.27Z"/></svg>