<svg id="Info" xmlns="http://www.w3.org/2000/svg" viewBox="0 0 28.35 28.35"><defs><style>.cls-1{fill:#fff;}</style></defs><title>info-white</title><path class="cls-1" d="M14.17,0A14.17,14.17,0,1,0,28.35,14.17,14.17,14.17,0,0,0,14.17,0Zm2.34,21.93c-.73.28-1.3.5-1.73.65a4.5,4.5,0,0,1-1.5.23,3,3,0,0,1-2-.65,2.06,2.06,0,0,1-.73-1.63,6.17,6.17,0,0,1,.05-.78c0-.27.09-.56.17-.9l.91-3.2c.08-.31.15-.6.2-.87a4,4,0,0,0,.08-.76,1.16,1.16,0,0,0-.26-.85,1.41,1.41,0,0,0-1-.24A2.64,2.64,0,0,0,10,13l-.63.21.24-1c.59-.24,1.16-.45,1.7-.62a5,5,0,0,1,1.54-.26,2.92,2.92,0,0,1,2,.63,2.09,2.09,0,0,1,.71,1.64c0,.14,0,.38,0,.73a5,5,0,0,1-.18,1l-.9,3.19c-.08.26-.14.55-.2.88a4.61,4.61,0,0,0-.09.74,1.08,1.08,0,0,0,.28.87,1.58,1.58,0,0,0,1,.23,2.86,2.86,0,0,0,.74-.12,4.28,4.28,0,0,0,.6-.2ZM16.36,9a2.27,2.27,0,0,1-3,0,1.88,1.88,0,0,1-.63-1.42,1.9,1.9,0,0,1,.63-1.43,2.27,2.27,0,0,1,3,0A1.9,1.9,0,0,1,17,7.55,1.88,1.88,0,0,1,16.36,9Z"/></svg>