<svg id="Money" xmlns="http://www.w3.org/2000/svg" viewBox="0 0 32 32"><defs><style>.cls-1{fill:#fff;}</style></defs><title>money-white</title><path class="cls-1" d="M8.63,3.89l.87.38c-.6.37-.87.73-.8,1.07s.39.66,1,.91a5.12,5.12,0,0,0,1.89.38A12.15,12.15,0,0,0,14.93,6a4.7,4.7,0,0,1,.87-.19,1,1,0,0,1,.51.07c.1,0,.41.18-.36.51a3.19,3.19,0,0,1-1.54.27,1.88,1.88,0,0,0-1.07.19l-.46.29c-.2.13-.24.29-.11.44a1.26,1.26,0,0,0,.77.28,8.24,8.24,0,0,0,3.35-.39L18.06,8a2.16,2.16,0,0,0,1.51,0c.42-.18.42-.48,0-.66l-1.21-.53c.53-.34.81-.68.83-1s-.3-.74-.95-1a4.88,4.88,0,0,0-1.58-.37A6.28,6.28,0,0,0,15,4.48c-.5.09-1.26.28-2.25.56a4.24,4.24,0,0,1-.87.18.91.91,0,0,1-.36-.06c-.35-.15-.06-.34.25-.47A2.8,2.8,0,0,1,13,4.45a1.63,1.63,0,0,0,1-.25L14.26,4a.26.26,0,0,0,0-.45,1.61,1.61,0,0,0-.88-.23A7.71,7.71,0,0,0,11,3.62l-.88-.39a2.15,2.15,0,0,0-1.51,0c-.42.18-.42.48,0,.66Zm0,0"/><path class="cls-1" d="M27,8.59a3.81,3.81,0,0,0,.11-.89v-1c0-1.91-1.43-3.66-4-4.92A20.93,20.93,0,0,0,14.1,0,20.93,20.93,0,0,0,5.15,1.82c-2.59,1.26-4,3-4,4.92v1c0,1.89,1.39,3.61,3.91,4.87a4.31,4.31,0,0,0-.12.89v.17c-2.45,1.25-3.8,3-3.8,4.81v1A4.7,4.7,0,0,0,3,22.95a3.85,3.85,0,0,0-.25,1.36v1c0,1.91,1.43,3.66,4,4.92A20.94,20.94,0,0,0,15.72,32a20.94,20.94,0,0,0,8.95-1.82c2.59-1.26,4-3,4-4.92v-1a4.69,4.69,0,0,0-1.87-3.55,3.86,3.86,0,0,0,.25-1.36v-.17c2.45-1.25,3.8-3,3.8-4.81v-1c0-1.88-1.39-3.61-3.9-4.87Zm-24-2.66A5.64,5.64,0,0,1,5.88,3.3,19.27,19.27,0,0,1,14.1,1.65,19.27,19.27,0,0,1,22.32,3.3a5.65,5.65,0,0,1,2.93,2.63c-1.33,2.31-5.94,4-11.15,4s-9.83-1.68-11.15-4Zm0,11.7a4.89,4.89,0,0,1,2.13-2.19C5.49,16.95,6.83,18.3,9,19.34a20.94,20.94,0,0,0,8.95,1.82l1,0a22.91,22.91,0,0,1-4.78.49c-5.22,0-9.83-1.68-11.15-4Zm23.93,5.86c-1.33,2.31-5.94,4-11.15,4-4.53,0-8.6-1.27-10.47-3.12a21,21,0,0,0,8.85,1.77A20.93,20.93,0,0,0,23,24.32a8.88,8.88,0,0,0,2.9-2.12,3.68,3.68,0,0,1,.93,1.29Zm-9-6.86c-4.56,0-8.65-1.28-10.5-3.14a23.12,23.12,0,0,0,6.7.94A20.94,20.94,0,0,0,23,12.62a8.3,8.3,0,0,0,3.22-2.53,5.51,5.51,0,0,1,2.79,2.56c-1.33,2.31-5.94,4-11.15,4Zm0,0"/></svg>