<svg id="Layer_59" data-name="Layer 59" xmlns="http://www.w3.org/2000/svg" viewBox="0 0 28.35 28.35"><title>not-supported-outbrain</title><path d="M27.26,8.64a13.55,13.55,0,0,0-3-4.43,14,14,0,0,0-4.49-2.94A14.49,14.49,0,0,0,14.17.19a14.49,14.49,0,0,0-5.6,1.07A13.94,13.94,0,0,0,4.09,4.2a13.53,13.53,0,0,0-3,4.43A14,14,0,0,0,0,14.17a14,14,0,0,0,1.08,5.54,13.52,13.52,0,0,0,3,4.43,14,14,0,0,0,4.49,2.94,14.51,14.51,0,0,0,5.6,1.06,14.51,14.51,0,0,0,5.6-1.06,14,14,0,0,0,4.49-2.94,13.54,13.54,0,0,0,3-4.43,14.05,14.05,0,0,0,1.08-5.54,14.06,14.06,0,0,0-1.08-5.54M5.71,13.15C7.29,12.63,9.39,12,9.39,12c4.61-1.47,5.23-3.2,5.23-3.2s1,1.73,4.32,2.88c0,0,1.85.61,3.57,1.23.09.17.17.34.25.52a8.83,8.83,0,0,1,.62,2.25H21l0,0a3.22,3.22,0,0,0-.71-1.05,3.32,3.32,0,0,0-1.07-.7,3.63,3.63,0,0,0-2.66,0,3.32,3.32,0,0,0-1.07.7,3.21,3.21,0,0,0-.71,1.05,3,3,0,0,0-.14.39h-.89a3,3,0,0,0-.14-.39,3.18,3.18,0,0,0-.71-1.05,3.32,3.32,0,0,0-1.07-.7,3.63,3.63,0,0,0-2.66,0,3.32,3.32,0,0,0-1.07.7,3.21,3.21,0,0,0-.71,1.05l0,0H5a8.83,8.83,0,0,1,.62-2.25l.12-.24m14.16,3.77a2,2,0,0,1-.15.78,1.92,1.92,0,0,1-.42.63,2,2,0,0,1-.64.42,2.16,2.16,0,0,1-1.58,0,2,2,0,0,1-.64-.42A1.94,1.94,0,0,1,16,17.7a2.09,2.09,0,0,1,0-1.57,1.94,1.94,0,0,1,.42-.63,2,2,0,0,1,.64-.41,2.14,2.14,0,0,1,1.58,0,2,2,0,0,1,.64.41,1.92,1.92,0,0,1,.42.63,2,2,0,0,1,.15.78m-7.39,0a2,2,0,0,1-.15.78,1.94,1.94,0,0,1-.42.63,2,2,0,0,1-.64.42,2.16,2.16,0,0,1-1.58,0,2,2,0,0,1-.64-.42,1.92,1.92,0,0,1-.42-.63,2.07,2.07,0,0,1,0-1.57,1.92,1.92,0,0,1,.42-.63,2,2,0,0,1,.64-.41,2.14,2.14,0,0,1,1.58,0,2,2,0,0,1,.64.41,1.94,1.94,0,0,1,.42.63,2,2,0,0,1,.15.78m8.3,6.63a9.19,9.19,0,0,1-2.94,1.93,9.51,9.51,0,0,1-3.67.7,9.51,9.51,0,0,1-3.67-.7,9.2,9.2,0,0,1-2.94-1.93,8.84,8.84,0,0,1-2-2.91,9.14,9.14,0,0,1-.71-3.5H7.11a3.24,3.24,0,0,0,.25,1.08,3.2,3.2,0,0,0,.71,1.06,3.3,3.3,0,0,0,1.07.7,3.59,3.59,0,0,0,2.66,0,3.3,3.3,0,0,0,1.07-.7,3.26,3.26,0,0,0,.94-1.9h.71a3.26,3.26,0,0,0,.94,1.9,3.3,3.3,0,0,0,1.07.7,3.59,3.59,0,0,0,2.66,0,3.3,3.3,0,0,0,1.07-.7A3.21,3.21,0,0,0,21,18.24a3.3,3.3,0,0,0,.25-1.08h2.22a9.14,9.14,0,0,1-.71,3.5,8.83,8.83,0,0,1-2,2.91"/></svg>