<svg id="Layer_44" data-name="Layer 44" xmlns="http://www.w3.org/2000/svg" viewBox="0 0 28.35 28.35"><defs><style>.cls-1{fill:#fff;}</style></defs><title>question-white</title><path class="cls-1" d="M20.65,2a11.35,11.35,0,0,0-6.79-2A9.57,9.57,0,0,0,8.59,1.38C6.33,2.82,5.11,5.29,5,8.72V9h5.59V8.72A5,5,0,0,1,11.37,6a2.92,2.92,0,0,1,2.71-1.26,3.1,3.1,0,0,1,2.68,1,3.93,3.93,0,0,1,.75,2.32,3.45,3.45,0,0,1-.82,2,4.26,4.26,0,0,1-1,1,23.07,23.07,0,0,0-4,3.26c-.78.92-.83,2-.9,3.92v.46h5.42v-.23A3.61,3.61,0,0,1,16.42,17a3.87,3.87,0,0,1,1.43-1.74l1.42-1A15.36,15.36,0,0,0,22,11.82a6.7,6.7,0,0,0,1.35-4A6.78,6.78,0,0,0,20.65,2Z"/><path class="cls-1" d="M13.78,21.57h-.12a3.39,3.39,0,0,0-.08,6.78h.13a3.39,3.39,0,1,0,.07-6.78Z"/></svg>