<svg id="Settings" xmlns="http://www.w3.org/2000/svg" viewBox="0 0 32 32"><defs><style>.cls-1{fill:#fff;}</style></defs><title>settings-white</title><path class="cls-1" d="M30.16,12.43l-2-.35a11.88,11.88,0,0,0-.78-1.87l1.21-1.69a2.22,2.22,0,0,0-.24-2.86l-2-1.95a2.26,2.26,0,0,0-2.86-.24l-1.68,1.2a11.7,11.7,0,0,0-2-.8l-.34-2A2.21,2.21,0,0,0,17.32,0H14.56a2.21,2.21,0,0,0-2.19,1.85L12,3.92a11.67,11.67,0,0,0-1.86.79L8.48,3.51a2.25,2.25,0,0,0-2.86.24l-2,2a2.22,2.22,0,0,0-.24,2.86l1.22,1.71a12.32,12.32,0,0,0-.76,1.88l-2,.34A2.21,2.21,0,0,0,0,14.68v2.77a2.21,2.21,0,0,0,1.85,2.19L3.92,20a11.77,11.77,0,0,0,.79,1.87l-1.2,1.66a2.22,2.22,0,0,0,.24,2.86l2,2a2.26,2.26,0,0,0,2.85.24l1.71-1.22a13.23,13.23,0,0,0,1.81.75l.34,2A2.21,2.21,0,0,0,14.61,32h2.77a2.21,2.21,0,0,0,2.19-1.85l.35-2a11.88,11.88,0,0,0,1.87-.78l1.68,1.2a2.27,2.27,0,0,0,2.87-.24l1.95-1.95a2.22,2.22,0,0,0,.24-2.86l-1.2-1.69a12.48,12.48,0,0,0,.78-1.88l2-.34A2.21,2.21,0,0,0,32,17.38V14.62A2.19,2.19,0,0,0,30.16,12.43Zm-4.08,6.16A10.38,10.38,0,0,1,25,21.27,1.17,1.17,0,0,0,25,22.54l1.57,2.22-1.83,1.83L22.55,25A1.15,1.15,0,0,0,21.28,25a10.18,10.18,0,0,1-2.68,1.11,1.12,1.12,0,0,0-.85.93l-.46,2.67H14.7L14.26,27a1.16,1.16,0,0,0-.86-.93A10.59,10.59,0,0,1,10.78,25a1.19,1.19,0,0,0-1.26.07l-2.21,1.6L5.46,24.82,7,22.62a1.19,1.19,0,0,0,0-1.27A10.13,10.13,0,0,1,6,18.67,1.18,1.18,0,0,0,5,17.82l-2.69-.46V14.77L5,14.33a1.17,1.17,0,0,0,.94-.87A10.33,10.33,0,0,1,7,10.78,1.15,1.15,0,0,0,7,9.52L5.37,7.29,7.2,5.46,9.4,7a1.17,1.17,0,0,0,1.27.05A10.1,10.1,0,0,1,13.35,6,1.2,1.2,0,0,0,14.2,5l.46-2.69h2.59L17.69,5a1.17,1.17,0,0,0,.87.94A10.77,10.77,0,0,1,21.3,7a1.19,1.19,0,0,0,1.27,0l2.18-1.6L26.6,7.24,25,9.45A1.17,1.17,0,0,0,25,10.72a10.07,10.07,0,0,1,1.12,2.68,1.13,1.13,0,0,0,.93.85l2.67.46v2.58L27,17.74A1.16,1.16,0,0,0,26.08,18.59Z"/><path class="cls-1" d="M16,8.93A7.07,7.07,0,1,0,23.07,16,7.07,7.07,0,0,0,16,8.93ZM20.74,16A4.74,4.74,0,1,1,16,11.26,4.74,4.74,0,0,1,20.74,16Z"/></svg>