<svg id="Happy_face_blue" data-name="Happy face blue" xmlns="http://www.w3.org/2000/svg" viewBox="0 0 28.35 28.35"><defs><style>.cls-1{fill:#3f547f;}</style></defs><title>smiley-blue</title><path class="cls-1" d="M14.17,2.1A12.07,12.07,0,1,1,2.1,14.17,12.09,12.09,0,0,1,14.17,2.1m0-2.1A14.17,14.17,0,1,0,28.35,14.17,14.17,14.17,0,0,0,14.17,0Z" transform="translate(0 0)"/><circle class="cls-1" cx="10.22" cy="10.14" r="2.2"/><circle class="cls-1" cx="18.13" cy="10.14" r="2.2"/><path class="cls-1" d="M14.17,21.88c-6.14,0-7.66-4.54-7.72-4.73a1,1,0,0,1,2-.65c.05.15,1.18,3.28,5.72,3.28s5.68-3.14,5.72-3.28a1.06,1.06,0,0,1,1.32-.67,1,1,0,0,1,.67,1.31C21.83,17.34,20.31,21.88,14.17,21.88Z" transform="translate(0 0)"/></svg>