<?xml version="1.0" encoding="utf-8"?>
<!-- Generator: Adobe Illustrator 20.1.0, SVG Export Plug-In . SVG Version: 6.00 Build 0)  -->
<svg version="1.1" id="Layer_1" xmlns="http://www.w3.org/2000/svg" xmlns:xlink="http://www.w3.org/1999/xlink" x="0px" y="0px"
	 viewBox="0 0 593.4 96.9" style="enable-background:new 0 0 593.4 96.9;" xml:space="preserve">
<style type="text/css">
	.st0{fill:#BCBCBC;}
</style>
<title>zemanta-logo-white</title>
<path class="st0" d="M0,95.2V77.9l36.9-55.8H1.3V0h68.9v17.2l-37,55.9h38v22.1H0z"/>
<path class="st0" d="M120.2,78.6c9.4,0,13.7-2.1,17.4-3.7l7.6,15.4c-5.5,2.9-12.2,6.6-27.7,6.6c-24.8,0-39.6-13.8-39.6-37.2
	S94.9,23,115.1,23c24.3,0,35.2,15.9,32.6,45h-42.2C106.9,75,111.6,78.6,120.2,78.6z M123.2,51.5c-0.2-6.4-2.3-11-8.4-11
	c-5.8,0-9,3.4-10.2,11H123.2z"/>
<path class="st0" d="M245.7,23C261,23,266,33,266,46.5v48.7h-25.7V51.9c0-5.7-1.4-7.8-5.9-7.8c-4,0-6.6,2.9-8.9,5.7v45.4h-25.7V51.9
	c0-5.7-2-7.8-5.9-7.8c-4.9,0-7.4,3.7-8.9,5.4v45.7h-25.7V24.7h25.2v7.9c3.9-4.5,9.9-9.6,20.8-9.6c9.7,0,15.3,4,18,10.6
	C229.6,26.5,235.7,23,245.7,23z"/>
<path class="st0" d="M318.8,95.2c-0.8-2.2-1.2-4.5-1.4-6.8c-4.6,5.6-11.5,8.7-18.7,8.6c-12.1,0-22-7-22-20.6
	c0-18,17.8-25.5,37.5-25.5h2v-2.2c0-4-1.9-6.2-9.5-6.2c-8.4,0-15,4.3-17.6,6l-10.3-15.1C283.5,29.3,294,23,309.9,23
	c22.3,0,31.7,7.6,31.7,28.2v19.5c-0.1,8.2,0.6,16.4,2.3,24.5L318.8,95.2z M316.1,65.8h-2c-8.1,0-13.6,2.6-13.6,8.2
	c0,3.4,2.6,5.5,7,5.5c3.2,0,6.2-1.1,8.6-3.3L316.1,65.8L316.1,65.8z"/>
<path class="st0" d="M398.3,95.2V51.9c0-5.7-2-7.8-7-7.8c-4.8,0-8.5,4-10,5.7v45.4h-25.8V24.7h25.1v8c5.5-6.4,13.5-9.9,21.9-9.7
	c15.9,0,21.4,10,21.4,23.5v48.7H398.3z"/>
<path class="st0" d="M433.1,43.5V24.7H444V4.3h25.6v20.4h15.6v18.7h-15.6v23.1c0,6.9,1.6,9.6,6.2,9.6c3.1-0.1,6.2-0.8,9-2.2l5,19
	c-3.6,1.7-10.2,3.9-19.9,3.9c-20.3,0-25.9-9.9-25.9-24.6V43.5H433.1z"/>
<path class="st0" d="M536.4,95.2c-0.8-2.2-1.3-4.5-1.4-6.8c-4.6,5.6-11.5,8.7-18.7,8.6c-12.2,0-22-7-22-20.6
	c0-18,17.8-25.5,37.5-25.5h2v-2.2c0-4-1.8-6.2-9.5-6.2c-8.4,0-15,4.3-17.6,6l-10.3-15.1c4.7-4.1,15.3-10.4,31.2-10.4
	c22.3,0,31.8,7.6,31.8,28.2v19.5c-0.1,8.2,0.6,16.4,2.3,24.5L536.4,95.2z M533.6,65.8h-2c-8.2,0-13.6,2.6-13.6,8.2
	c0,3.4,2.6,5.5,7,5.5c3.2,0,6.2-1.1,8.5-3.3L533.6,65.8L533.6,65.8z"/>
<path class="st0" d="M574.3,2.1v9.8h-2.5V2.1h-3.3V0h9.1v2.1H574.3z"/>
<path class="st0" d="M584.9,11.9l-2-6.1C582.7,5,582.4,4,582.4,4l0,0c0,0-0.1,1-0.2,1.8l-0.7,6.1h-2.3L580.9,0h2.5l2.4,7.3
	c0.3,0.9,0.6,2.1,0.6,2.1l0,0c0,0,0.3-1.1,0.7-2.1l2.5-7.3h2.4l1.6,11.9h-2.6l-0.8-6.1C590,4.9,590,4,590,4h0c0,0-0.2,0.9-0.5,1.7
	l-2,6.2L584.9,11.9z"/>
</svg>
