<?xml version="1.0" encoding="utf-8"?>
<!-- Generator: Adobe Illustrator 21.1.0, SVG Export Plug-In . SVG Version: 6.00 Build 0)  -->
<svg version="1.1" id="Layer_1" xmlns="http://www.w3.org/2000/svg" xmlns:xlink="http://www.w3.org/1999/xlink" x="0px" y="0px"
	 viewBox="0 0 747.3 205.5" style="enable-background:new 0 0 747.3 205.5;" xml:space="preserve">
<style type="text/css">
	.st0{fill:#EF8421;}
	.st1{fill:#231F20;}
</style>
<title>zemanta-logo-white</title>
<g id="Layer_2">
	<path class="st0" d="M70.6,15.9H19.1v16.3H3.3V0h88.3v13.7L22.1,116h73.6v15.9H0v-14.2L70.6,15.9z"/>
	<path class="st0" d="M193.1,89.4h-59.9v21c-0.5,2.8,1.5,5.5,4.3,6c0,0,0,0,0.1,0h52.9v15.2h-53.8c-13.2,0-19.9-6.4-19.9-19.4V52.7
		c0-14.7,6.8-22.1,20.7-22.1h34.2c14.1,0,21.2,6.8,21.4,20.7L193.1,89.4z M133.5,74.6h43V53.4c0.4-3.7-2.2-7-5.9-7.4
		c-0.6-0.1-1.2-0.1-1.8,0h-26.9c-4-0.8-7.8,1.8-8.6,5.8c-0.2,0.8-0.2,1.6-0.1,2.4L133.5,74.6z"/>
	<path class="st0" d="M270.5,131.5V46.1h-33.8v85.4h-17.2V46.1h-12.1V30.9h110.3c13.9,0,20.7,6.4,20.7,19v66.2h11v15.2h-28V51.5
		c0.3-2.6-1.4-4.9-4-5.3h-29.8v85.3L270.5,131.5z"/>
	<path class="st0" d="M440.2,116h12.1v15.2h-63.6c-14.7,0-21.4-6.6-21.4-19.6V93.3c0-12.6,7.4-19,21.4-19h34.4V59.6
		c1-6.7-3.6-12.9-10.3-13.9c-1.1-0.2-2.3-0.2-3.4,0h-20.3v11.9h-16.1V30.9h36.2c20.5,0,30.9,9.5,30.9,28.2L440.2,116z M423.2,116
		V89.4h-32.6c-2.8-0.4-5.5,1.5-6,4.3c-0.1,0.5-0.1,0.9,0,1.4v14.7c-0.3,3.1,1.9,5.8,4.9,6.2h0L423.2,116z"/>
	<path class="st0" d="M529.1,131.5v-79c0.3-3.2-2-6.1-5.2-6.4h-35.6v85.4h-17.2V46.1h-11V30.9h66.6c9.4-1.4,18.2,5.2,19.6,14.6
		c0.2,1.6,0.2,3.2,0,4.8v66.2h11v15.2L529.1,131.5z"/>
	<path class="st0" d="M576.1,46.1h-13.2V30.9h13.2V0h17v30.9h24.3v15.2h-24.3v63.1c-0.5,3.5,1.9,6.8,5.4,7.4c0.6,0.1,1.3,0.1,1.9,0
		h11.9c1.8,0.1,3.5,0.1,5.3,0v15.2h-20.4c-14.1,0-21.2-7.5-21.2-22.5V46.1z"/>
	<path class="st0" d="M706.1,116h12.1v15.2h-63.6c-14.7,0-21.4-6.6-21.4-19.6V93.3c0-12.6,7.4-19,21.4-19h34.4V59.6
		c1-6.7-3.6-12.9-10.3-13.9c-1.2-0.2-2.4-0.2-3.6,0h-20.6v11.9h-15.8V30.9H675c20.5,0,31.1,9.5,31.1,28L706.1,116z M689.1,116V89.4
		H656c-2.8-0.4-5.5,1.5-6,4.3c-0.1,0.5-0.1,0.9,0,1.4v14.7c-0.3,3.1,1.9,5.8,4.9,6.2h0L689.1,116L689.1,116z"/>
	<path class="st0" d="M729.5,1.9h-4V16h-2.3V1.9h-3v2h-2.1V0h11.4L729.5,1.9z"/>
	<path class="st0" d="M739.3,12L744,0h3.3v16H745V2l0,0c0,0.7-4.1,11.7-4.1,11.7h-3.1L733.4,2l0,0v14h-2.3V1.9h-1.3V0h4.7L739.3,12z
		"/>
	<path class="st1" d="M236.5,194.6l-0.5-3.8h-0.2c-1,1.4-2.3,2.5-3.7,3.3c-1.4,0.7-3,1-4.5,1c-2,0.1-4-0.5-5.5-1.8
		c-1.4-1.3-2.1-3.1-2-5c-0.1-2.2,1-4.3,2.9-5.5c2-1.3,4.8-2,8.5-2.1l4.6-0.1V179c0.1-1.8-0.4-3.7-1.4-5.2c-1.1-1.3-2.8-1.9-4.5-1.8
		c-2.4,0.1-4.8,0.7-6.9,1.9l-0.8-1.9c2.4-1.2,5.1-1.8,7.8-1.9c2.7,0,4.6,0.7,5.9,2.1s1.9,3.5,2,6.4v16L236.5,194.6z M227.6,193.1
		c4.2,0.4,7.9-2.7,8.3-6.9c0-0.5,0-0.9,0-1.4v-2.3l-4.2,0.2c-3.4,0.2-5.8,0.7-7.2,1.6c-1.4,0.9-2.3,2.5-2.2,4.2
		c-0.1,1.3,0.4,2.6,1.4,3.5C224.8,192.7,226.2,193.2,227.6,193.1L227.6,193.1z"/>
	<path class="st1" d="M262.6,194.6V179c0-2.4-0.5-4.2-1.5-5.3c-1.3-1.2-3-1.8-4.7-1.7c-2.9,0-5,0.7-6.3,2.2c-1.3,1.5-2,3.8-2,7.1
		v13.2h-2.2v-24h1.9l0.4,3.3h0.1c1.6-2.5,4.3-3.8,8.3-3.8c5.5,0,8.2,2.9,8.2,8.8v15.7H262.6z"/>
	<path class="st1" d="M543.3,163.9c-4.1,0-7.2,1.3-9.6,3.9s-3.5,6.1-3.5,10.7c0,4.6,1.1,8.2,3.3,10.8c2.2,2.6,5.3,3.8,9.4,3.8
		c2.5,0,5-0.3,7.5-1v2c-2.6,0.8-5.3,1.2-8,1.1c-4.5,0-8.1-1.5-10.7-4.4s-3.9-7-3.9-12.3c-0.1-3,0.6-6,1.9-8.7c1.2-2.4,3-4.5,5.4-5.8
		c2.5-1.4,5.3-2.1,8.2-2c2.9,0,5.8,0.6,8.5,1.8l-0.9,2C548.4,164.5,545.9,163.9,543.3,163.9z"/>
	<path class="st1" d="M577,182.6c0,3.9-1,7-2.9,9.2c-2,2.2-4.9,3.5-7.9,3.3c-2,0-3.9-0.5-5.6-1.5c-1.6-1.1-2.9-2.6-3.7-4.4
		c-0.9-2.1-1.3-4.3-1.3-6.6c0-3.9,1-7,2.9-9.2c2-2.2,4.9-3.4,7.8-3.3c3-0.1,5.8,1.1,7.8,3.3C576,175.7,577,178.7,577,182.6z
		 M558,182.6c0,3.3,0.7,5.9,2.2,7.7c3,3.4,8.2,3.7,11.6,0.7c0.2-0.2,0.5-0.5,0.7-0.7c1.5-1.8,2.2-4.4,2.2-7.7s-0.7-5.9-2.2-7.7
		c-1.5-1.8-3.8-2.9-6.2-2.7c-2.4-0.1-4.7,0.9-6.1,2.7C558.7,176.7,558,179.3,558,182.6L558,182.6z"/>
	<path class="st1" d="M613.7,194.6v-15.7c0-2.3-0.5-4.1-1.4-5.1c-1.1-1.1-2.6-1.7-4.2-1.6c-2.5,0-4.3,0.7-5.5,2s-1.8,3.5-1.8,6.4
		v14.1h-2.2v-16.4c0-4.1-1.9-6.1-5.6-6.1c-2.5,0-4.4,0.7-5.5,2.2s-1.7,3.8-1.7,7v13.3h-2.2v-24h1.8l0.5,3.3h0.1
		c0.6-1.2,1.6-2.2,2.8-2.8c1.2-0.7,2.6-1,4-1c3.8,0,6.2,1.4,7.3,4.3h0.1c0.7-1.3,1.8-2.4,3.2-3.2c1.4-0.8,2.9-1.1,4.5-1.1
		c2.6,0,4.6,0.7,5.9,2.1c1.3,1.4,2,3.6,2,6.7v15.7H613.7z"/>
	<path class="st1" d="M633.9,195.1c-3.7,0-6.4-1.4-8.1-4.2h-0.2l0.1,1.9c0.1,1.1,0.1,2.3,0.1,3.6v9.2h-2.2v-34.9h1.9l0.4,3.4h0.1
		c1.7-2.6,4.3-3.9,7.9-3.9c3.2,0,5.7,1.1,7.4,3.2s2.5,5.2,2.5,9.3c0,4-0.9,7-2.7,9.2C639.4,194,636.7,195.2,633.9,195.1z
		 M633.9,193.1c2.2,0.1,4.4-0.9,5.7-2.7c1.3-1.8,2-4.4,2-7.7c0-7.1-2.6-10.6-7.7-10.6c-2.8,0-4.9,0.8-6.2,2.3c-1.3,1.5-2,4-2,7.5
		v0.7c0,3.8,0.6,6.4,1.9,8S631,193.1,633.9,193.1L633.9,193.1z"/>
	<path class="st1" d="M665.1,194.6l-0.5-3.8h-0.2c-1,1.4-2.3,2.5-3.7,3.3c-1.4,0.7-3,1-4.5,1c-2,0.1-4-0.5-5.5-1.8
		c-1.4-1.3-2.1-3.1-2-5c-0.1-2.2,1-4.3,2.9-5.5c2-1.3,4.8-2,8.5-2.1l4.6-0.1V179c0.1-1.8-0.4-3.7-1.4-5.2c-1.1-1.3-2.8-1.9-4.5-1.8
		c-2.4,0.1-4.8,0.7-6.9,1.9l-0.8-1.9c2.4-1.2,5.1-1.8,7.8-1.9c2.7,0,4.6,0.7,5.9,2.1s1.9,3.5,2,6.4v16L665.1,194.6z M656.3,193.1
		c4.2,0.4,7.9-2.7,8.3-6.9c0-0.5,0-0.9,0-1.4v-2.3l-4.2,0.2c-3.4,0.2-5.8,0.7-7.2,1.6c-1.4,0.9-2.3,2.5-2.2,4.2
		c-0.1,1.3,0.4,2.6,1.4,3.5C653.5,192.8,654.9,193.2,656.3,193.1L656.3,193.1z"/>
	<path class="st1" d="M691.3,194.6V179c0-2.4-0.5-4.2-1.5-5.3c-1.3-1.2-3-1.8-4.7-1.7c-2.9,0-5,0.7-6.3,2.2c-1.3,1.5-2,3.8-2,7.1
		v13.2h-2.2v-24h1.9l0.4,3.3h0.1c1.6-2.5,4.3-3.8,8.3-3.8c5.5,0,8.2,2.9,8.2,8.8v15.7H691.3z"/>
	<path class="st1" d="M697.3,170.6h2.3l5.1,13.5c1.5,4.1,2.5,6.9,2.9,8.4h0.1c0.6-1.9,1.6-4.7,3-8.5l5.1-13.4h2.3l-10.8,27.9
		c-0.5,1.6-1.3,3.2-2.2,4.6c-0.5,0.8-1.2,1.4-2.1,1.8c-0.9,0.4-1.9,0.6-2.9,0.6c-1,0-1.9-0.2-2.8-0.5v-1.9c0.9,0.2,1.8,0.4,2.8,0.3
		c0.7,0,1.4-0.2,2-0.5c0.6-0.4,1.2-1,1.6-1.7c0.6-1.1,1.2-2.3,1.6-3.5c0.6-1.6,1-2.7,1.2-3.2L697.3,170.6z"/>
	<path class="st0" d="M324.9,171.1c-0.1-0.9,0.3-1.7,0.9-2.3c0.7-0.5,1.6-0.8,2.5-0.7c0.6,0,1.3,0.1,1.9,0.3
		c0.6,0.2,0.9,0.3,1.1,0.4v14.8c-0.1,2.1,0.5,4.2,1.8,5.8c1.2,1.3,3,2,5.5,2s4.3-0.7,5.5-2c1.3-1.7,2-3.7,1.8-5.8v-12.5
		c-0.1-0.9,0.3-1.7,0.9-2.3c0.7-0.5,1.6-0.8,2.5-0.7c0.6,0,1.3,0.1,1.9,0.3c0.6,0.2,0.9,0.3,1.1,0.4V185c0,1.8-0.3,3.5-1,5.2
		c-0.6,1.5-1.6,2.8-2.8,3.9c-1.3,1.1-2.8,1.9-4.4,2.4c-3.6,1.1-7.5,1.1-11.2,0c-1.6-0.5-3.1-1.3-4.4-2.4c-1.2-1.1-2.2-2.4-2.8-3.9
		c-0.7-1.6-1-3.4-1-5.2L324.9,171.1z"/>
	<path class="st0" d="M357.5,163.1c-0.1-0.9,0.3-1.7,0.9-2.3c0.7-0.5,1.6-0.8,2.5-0.7c0.6,0,1.3,0.1,1.9,0.3c0.6,0.2,1,0.3,1.2,0.4
		v7.4h8.2c0.9-0.1,1.9,0.2,2.6,0.8c0.5,0.6,0.8,1.4,0.8,2.2c0,0.6-0.1,1.2-0.3,1.8c-0.1,0.4-0.3,0.8-0.5,1.2H364v12.6
		c0,0.8,0.1,1.6,0.4,2.4c0.2,0.6,0.6,1.1,1.1,1.5c0.5,0.4,1,0.7,1.6,0.8c0.6,0.2,1.3,0.2,2,0.2c1,0,2-0.2,3-0.5c0.7-0.2,1.4-0.6,2-1
		l2.6,4.3c-0.3,0.2-0.7,0.5-1.3,0.8c-0.6,0.4-1.3,0.7-2,1c-0.9,0.3-1.7,0.6-2.6,0.8c-1.1,0.2-2.1,0.3-3.2,0.3
		c-3.3,0-5.8-0.9-7.5-2.6c-1.7-1.8-2.6-4.2-2.5-6.7L357.5,163.1z"/>
	<path class="st0" d="M379.4,157.8c-0.1-0.9,0.3-1.7,0.9-2.3c0.7-0.5,1.6-0.8,2.5-0.7c0.6,0,1.3,0.1,1.9,0.3
		c0.6,0.2,0.9,0.3,1.1,0.4v16.2c1.1-1.3,2.4-2.3,3.9-3.1c1.8-0.9,3.7-1.3,5.7-1.3c2,0,3.9,0.4,5.7,1.1c1.7,0.7,3.3,1.8,4.6,3.1
		c1.3,1.4,2.3,3,3,4.7c0.7,1.9,1.1,3.9,1.1,6c0,2.1-0.4,4.1-1.1,6c-0.7,1.8-1.8,3.4-3.2,4.7c-1.4,1.3-3,2.4-4.8,3.1
		c-1.9,0.8-4,1.2-6.1,1.1c-2.1,0-4.2-0.3-6.1-1c-1.8-0.6-3.5-1.7-4.8-3c-1.4-1.4-2.5-3.2-3.2-5.1c-0.8-2.3-1.2-4.7-1.1-7.2
		L379.4,157.8z M394.5,191.4c1.2,0,2.4-0.2,3.5-0.7c1-0.4,2-1.1,2.8-1.9c0.8-0.8,1.4-1.8,1.8-2.9c0.4-1.2,0.6-2.4,0.6-3.6
		c0-1.3-0.2-2.5-0.6-3.7c-0.4-1.1-1-2.1-1.8-2.9c-0.8-0.8-1.7-1.5-2.8-1.9c-1.1-0.5-2.3-0.7-3.5-0.7c-1.2,0-2.4,0.2-3.6,0.7
		c-1,0.4-2,1.1-2.7,2c-0.8,0.9-1.4,1.9-1.8,2.9c-0.4,1.2-0.7,2.4-0.7,3.6c0,1.3,0.2,2.5,0.7,3.7c0.8,2.2,2.4,3.9,4.6,4.7
		C392.1,191.2,393.3,191.4,394.5,191.4"/>
	<path class="st0" d="M413.6,178.2c0-3.5,1.1-6.1,3.2-8c2.1-1.9,5.1-2.8,8.8-2.8c2-0.1,3.9,0.3,5.8,1c1.3,0.4,2.2,1.6,2.2,3
		c0,0.7-0.2,1.3-0.5,1.9c-0.2,0.4-0.5,0.8-0.9,1.1c-0.8-0.3-1.6-0.6-2.4-0.8c-1.1-0.3-2.1-0.4-3.2-0.4c-4.4,0-6.6,2.3-6.6,7v16.4
		h-6.4L413.6,178.2z"/>
	<path class="st0" d="M461.5,196.3c-0.4,0.1-1,0.2-1.8,0.3s-1.8,0.2-2.8,0.3s-2.3,0.2-3.7,0.3s-2.8,0.1-4.2,0.1
		c-2.4,0.1-4.8-0.2-7.2-0.8c-1.6-0.4-3.1-1-4.4-2c-1-0.8-1.8-1.8-2.2-2.9c-0.4-1.1-0.6-2.2-0.6-3.4c0-1.4,0.2-2.8,0.7-4.1
		c0.5-1.2,1.3-2.2,2.3-2.9c1.3-0.9,2.7-1.5,4.2-1.8c2.1-0.4,4.2-0.6,6.3-0.6c1.4,0,2.8,0,4.1,0.1s2.2,0.2,2.9,0.3
		c0-1.1-0.2-2.2-0.7-3.3c-0.4-0.8-1-1.5-1.8-2c-0.8-0.5-1.7-0.9-2.7-1c-1.2-0.2-2.3-0.3-3.5-0.3c-1.8-0.1-3.5,0.2-5.2,0.7
		c-0.9,0.3-1.8,0.7-2.6,1.2c-0.3-0.3-0.7-0.7-0.9-1.1c-0.4-0.6-0.6-1.2-0.6-1.9c0-0.5,0.1-1.1,0.4-1.5c0.4-0.6,0.9-1.1,1.6-1.4
		c0.9-0.5,1.9-0.8,2.9-0.9c1.5-0.3,3-0.4,4.6-0.3c2,0,4.1,0.2,6.1,0.7c1.7,0.4,3.3,1.1,4.7,2.1c1.3,1,2.4,2.2,3.1,3.7
		c0.8,1.8,1.2,3.7,1.1,5.6L461.5,196.3z M455.1,183.8c-0.4-0.1-1.1-0.2-2.1-0.3c-1.5-0.2-3.1-0.3-4.7-0.2c-2.6,0-4.4,0.4-5.6,1.2
		c-1.2,0.8-1.9,2.2-1.8,3.6c0,0.6,0.1,1.3,0.4,1.9c0.3,0.6,0.7,1.1,1.3,1.4c0.8,0.5,1.6,0.8,2.5,0.9c1.3,0.2,2.6,0.3,3.9,0.3
		c1.4,0,2.8,0,4.1-0.2c1-0.1,1.7-0.2,2-0.3L455.1,183.8z"/>
	<path class="st0" d="M470.5,155.4c2.1,0,3.8,1.8,3.8,3.9c0,2.1-1.8,3.8-3.9,3.8c-2.1,0-3.8-1.8-3.8-3.9c0-1,0.4-2,1.1-2.7
		C468.4,155.8,469.4,155.4,470.5,155.4 M467.3,171.1c-0.1-0.9,0.3-1.7,0.9-2.3c0.7-0.5,1.6-0.8,2.5-0.7c0.6,0,1.3,0.1,1.9,0.3
		c0.6,0.2,0.9,0.3,1.1,0.4v27.7h-6.4L467.3,171.1z"/>
	<path class="st0" d="M479.5,179.3c0-1.7,0.3-3.5,1-5c0.7-1.5,1.7-2.7,2.9-3.8c1.3-1.1,2.8-1.9,4.3-2.4c1.8-0.6,3.6-0.8,5.5-0.8
		c1.9,0,3.7,0.3,5.5,0.8c1.6,0.5,3.1,1.3,4.4,2.4c1.2,1,2.2,2.3,2.8,3.8c0.7,1.6,1,3.3,1,5v17.1h-6.4V181c0.1-2.1-0.5-4.2-1.9-5.8
		c-3.2-2.7-7.8-2.7-11,0c-1.3,1.6-2,3.7-1.8,5.8v15.5h-6.4L479.5,179.3z"/>
	<path class="st0" d="M319.8,169c-1-2.4-2.5-4.6-4.4-6.5c-1.9-1.8-4.1-3.3-6.5-4.3c-5.2-2.1-11.1-2.1-16.3,0c-2.4,1-4.7,2.4-6.5,4.3
		c-1.9,1.8-3.4,4-4.4,6.5c-2.1,5.2-2.1,11,0,16.2c1,2.4,2.5,4.6,4.4,6.5c1.9,1.8,4.1,3.3,6.5,4.3c5.2,2.1,11.1,2.1,16.3,0
		c2.4-1,4.7-2.5,6.5-4.3c1.9-1.8,3.4-4,4.4-6.5C321.9,180,321.9,174.2,319.8,169 M288.4,175.6c2.3-0.8,5.4-1.7,5.4-1.7
		c6.7-2.1,7.6-4.7,7.6-4.7s1.4,2.5,6.3,4.2c0,0,2.7,0.9,5.2,1.8c0.1,0.3,0.3,0.5,0.4,0.8c0.4,1,0.7,2.2,0.9,3.3h-3.5v-0.1
		c-0.2-0.6-0.6-1.1-1-1.5c-0.5-0.4-1-0.8-1.6-1c-1.2-0.5-2.6-0.5-3.9,0c-0.6,0.2-1.1,0.6-1.6,1c-0.4,0.4-0.8,1-1,1.5
		c-0.1,0.2-0.1,0.4-0.2,0.6h-1.4c-0.1-0.2-0.1-0.4-0.2-0.6c-0.2-0.6-0.6-1.1-1-1.5c-0.5-0.4-1-0.8-1.6-1c-1.2-0.5-2.6-0.5-3.9,0
		c-0.6,0.2-1.1,0.6-1.6,1c-0.4,0.4-0.8,1-1,1.5v0.1h-3.5c0.2-1.1,0.5-2.2,0.9-3.3c0-0.1,0.1-0.2,0.2-0.3 M309.2,181.1
		c0,0.4-0.1,0.8-0.2,1.1c-0.1,0.3-0.4,0.7-0.6,0.9c-0.3,0.3-0.6,0.5-0.9,0.6c-0.7,0.3-1.6,0.3-2.3,0c-0.3-0.1-0.7-0.3-0.9-0.6
		c-0.3-0.3-0.5-0.6-0.6-0.9c-0.3-0.7-0.3-1.5,0-2.3c0.1-0.3,0.4-0.7,0.6-0.9c0.3-0.3,0.6-0.5,0.9-0.6c0.7-0.3,1.6-0.3,2.3,0
		c0.3,0.1,0.7,0.3,0.9,0.6c0.3,0.3,0.5,0.6,0.6,0.9C309.1,180.3,309.2,180.7,309.2,181.1 M298.4,181.1c0,0.4-0.1,0.8-0.2,1.1
		c-0.1,0.3-0.4,0.7-0.6,0.9c-0.3,0.3-0.6,0.5-0.9,0.6c-0.7,0.3-1.6,0.3-2.3,0c-0.3-0.1-0.7-0.3-0.9-0.6c-0.3-0.3-0.5-0.6-0.6-0.9
		c-0.3-0.7-0.3-1.5,0-2.3c0.1-0.3,0.4-0.7,0.6-0.9c0.3-0.3,0.6-0.5,0.9-0.6c0.7-0.3,1.6-0.3,2.3,0c0.3,0.1,0.7,0.3,0.9,0.6
		c0.3,0.3,0.5,0.6,0.6,0.9C298.3,180.3,298.4,180.7,298.4,181.1 M310.5,190.8c-1.2,1.2-2.7,2.2-4.3,2.8c-3.4,1.4-7.3,1.4-10.7,0
		c-1.6-0.7-3.1-1.6-4.3-2.8c-1.2-1.2-2.2-2.6-2.9-4.2c-0.7-1.6-1-3.4-1-5.1h3.2c0,0.5,0.1,1.1,0.4,1.6c0.2,0.6,0.6,1.1,1,1.5
		c0.5,0.4,1,0.8,1.6,1c1.2,0.5,2.6,0.5,3.9,0c0.6-0.2,1.1-0.6,1.6-1c0.8-0.7,1.2-1.7,1.4-2.8h1c0.1,1.1,0.6,2,1.4,2.8
		c0.5,0.4,1,0.8,1.6,1c1.2,0.5,2.6,0.5,3.9,0c0.6-0.2,1.1-0.6,1.6-1c0.4-0.4,0.8-1,1-1.5c0.2-0.5,0.3-1,0.4-1.6h3.2
		c0,1.7-0.3,3.5-1,5.1C312.7,188.1,311.7,189.6,310.5,190.8"/>
</g>
</svg>
