<?xml version="1.0" encoding="utf-8"?>
<!-- Generator: Adobe Illustrator 20.1.0, SVG Export Plug-In . SVG Version: 6.00 Build 0)  -->
<svg version="1.1" id="Layer_1" xmlns="http://www.w3.org/2000/svg" xmlns:xlink="http://www.w3.org/1999/xlink" x="0px" y="0px"
	 viewBox="0 0 101.6 17.9" style="enable-background:new 0 0 101.6 17.9;" xml:space="preserve">
<style type="text/css">
	.st0{fill:#BCBCBC;}
</style>
<title>zemanta-logo-gray</title>
<path class="st0" d="M9.6,2.2h-7v2.2H0.4V0h12v1.9L3,15.8h10v2.2H0V16L9.6,2.2z"/>
<path class="st0" d="M26.3,12.1h-8.1V15c-0.1,0.4,0.2,0.7,0.6,0.8c0.1,0,0.1,0,0.2,0h7v2.1h-7.3c-1.8,0-2.7-0.9-2.7-2.6V7.2
	c0-2,0.9-3,2.8-3h4.7c1.9,0,2.9,0.9,2.9,2.8L26.3,12.1z M18.2,10.1H24V7.3c0-0.7-0.4-1-1.1-1h-3.7c-0.5-0.1-1.1,0.3-1.2,0.8
	c0,0.1,0,0.2,0,0.3L18.2,10.1z"/>
<path class="st0" d="M36.8,17.9V6.3h-4.6v11.6h-2.3V6.3h-1.7V4.2h15c1.9,0,2.8,0.9,2.8,2.6v9h1.5v2.1h-3.8V7c0-0.4-0.2-0.7-0.5-0.7
	c-0.1,0-0.1,0-0.2,0h-3.9v11.6H36.8z"/>
<path class="st0" d="M59.9,15.8h1.6v2.1h-8.6c-2,0-2.9-0.9-2.9-2.7v-2.5c0-1.7,1-2.6,2.9-2.6h4.7v-2c0.1-0.9-0.5-1.8-1.4-1.9
	c-0.2,0-0.3,0-0.5,0h-2.8v1.6h-2.2V4.2h4.9c2.8,0,4.2,1.3,4.2,3.8L59.9,15.8z M57.5,15.8v-3.6h-4.4c-0.4-0.1-0.7,0.2-0.8,0.6
	c0,0.1,0,0.1,0,0.2v2c0,0.4,0.3,0.8,0.7,0.8c0,0,0.1,0,0.1,0H57.5z"/>
<path class="st0" d="M71.9,17.9V7.1c0-0.4-0.3-0.8-0.7-0.9c-0.1,0-0.1,0-0.2,0h-4.6v11.6h-2.3V6.3h-1.5V4.2h9.1
	c1.3-0.2,2.5,0.7,2.7,2c0,0.2,0,0.4,0,0.7v9h1.5v2.1L71.9,17.9z"/>
<path class="st0" d="M78.3,6.3h-1.8V4.2h1.8V0h2.3v4.2h3.3v2.1h-3.3v8.6c0,0.7,0.3,1,1,1h1.6c0.2,0,0.5,0,0.7,0v2.1h-2.8
	c-1.9,0-2.9-1-2.9-3.1V6.3z"/>
<path class="st0" d="M96,15.8h1.6v2.1H89c-2,0-2.9-0.9-2.9-2.7v-2.5c0-1.7,1-2.6,2.9-2.6h4.7v-2c0.1-0.9-0.5-1.8-1.4-1.9
	c-0.2,0-0.3,0-0.5,0H89v1.6h-2.2V4.2h4.9C94.6,4.2,96,5.5,96,8L96,15.8z M93.7,15.8v-3.6h-4.5c-0.4-0.1-0.7,0.2-0.8,0.6
	c0,0.1,0,0.1,0,0.2v2c0,0.4,0.2,0.8,0.7,0.8c0.1,0,0.1,0,0.2,0L93.7,15.8z"/>
<g>
	<path class="st0" d="M99.2,0.3h-0.5v1.9h-0.3V0.3h-0.4v0.3h-0.3V0h1.6V0.3z"/>
	<path class="st0" d="M100.5,1.6l0.6-1.6h0.5v2.2h-0.3l0-1.7c0-0.1,0-0.2,0-0.3h0c0,0.1,0,0.2-0.1,0.3l-0.5,1.3h-0.4l-0.5-1.3
		c0-0.1,0-0.2-0.1-0.3h0c0,0.1,0,0.2,0,0.3l0,1.7h-0.3V0.3h-0.2V0h0.6L100.5,1.6z"/>
</g>
</svg>
