<svg id="Layer_1" data-name="Layer 1" xmlns="http://www.w3.org/2000/svg" viewBox="0 0 593.43 96.93"><defs><style>.cls-1{fill:#fff;}</style></defs><title>zemanta-logo-white</title><path class="cls-1" d="M3.29,99.74V82.44L40.18,26.69H4.57V4.53H73.47V21.69l-37,55.9h38V99.74H3.29Z" transform="translate(-3.29 -4.53)"/><path class="cls-1" d="M123.53,83.17c9.43,0,13.71-2.14,17.4-3.74l7.61,15.45c-5.46,2.86-12.18,6.58-27.73,6.58-24.75,0-39.6-13.75-39.6-37.18s17-36.74,37.18-36.74c24.27,0,35.16,15.85,32.57,45H108.79C110.24,79.57,114.92,83.17,123.53,83.17Zm3-27.17c-.16-6.44-2.31-11-8.45-11-5.84,0-9,3.43-10.17,11Z" transform="translate(-3.29 -4.53)"/><path class="cls-1" d="M249,27.54c15.33,0,20.32,10,20.32,23.46V99.74H243.6V56.43c0-5.72-1.44-7.85-5.87-7.85-4,0-6.59,2.86-8.87,5.71V99.74h-25.7V56.43c0-5.72-2-7.85-5.88-7.85-4.87,0-7.45,3.7-8.88,5.43V99.74H162.66V29.26h25.17v7.9c3.87-4.47,9.87-9.61,20.75-9.61,9.7,0,15.3,4,18,10.57C232.86,31,239,27.54,249,27.54Z" transform="translate(-3.29 -4.53)"/><path class="cls-1" d="M322.05,99.74a26.4,26.4,0,0,1-1.41-6.84,23.72,23.72,0,0,1-18.73,8.57c-12.15,0-22-7-22-20.57,0-18,17.76-25.46,37.46-25.46h2V53.28c0-4-1.88-6.15-9.45-6.15-8.44,0-15,4.31-17.59,6L282.05,38c4.7-4.13,15.27-10.43,31.16-10.43,22.3,0,31.71,7.6,31.71,28.18V75.29a114,114,0,0,0,2.29,24.45Zm-2.68-29.44h-2c-8.13,0-13.58,2.58-13.58,8.15,0,3.44,2.58,5.46,7,5.46a12.62,12.62,0,0,0,8.59-3.28V70.29Z" transform="translate(-3.29 -4.53)"/><path class="cls-1" d="M401.55,99.74V56.43c0-5.72-2-7.85-7-7.85-4.84,0-8.55,4-10,5.71V99.74H358.8V29.26h25.14v8a28,28,0,0,1,21.9-9.72c15.87,0,21.44,10,21.44,23.46V99.74Z" transform="translate(-3.29 -4.53)"/><path class="cls-1" d="M436.43,48V29.26h10.86V8.81h25.59V29.26h15.58V48H472.88V71.14c0,6.86,1.57,9.61,6.16,9.61a22.05,22.05,0,0,0,9-2.16l5,19c-3.63,1.73-10.18,3.86-19.88,3.86-20.34,0-25.9-9.86-25.9-24.59V48Z" transform="translate(-3.29 -4.53)"/><path class="cls-1" d="M539.65,99.74a24.62,24.62,0,0,1-1.43-6.84,23.68,23.68,0,0,1-18.73,8.57c-12.18,0-22-7-22-20.57,0-18,17.75-25.46,37.47-25.46h2V53.28c0-4-1.85-6.15-9.45-6.15-8.41,0-15,4.31-17.55,6L499.63,38c4.72-4.13,15.3-10.43,31.16-10.43,22.28,0,31.75,7.6,31.75,28.18V75.29a112.43,112.43,0,0,0,2.28,24.45Zm-2.73-29.44h-2c-8.16,0-13.56,2.58-13.56,8.15,0,3.44,2.56,5.46,7,5.46a12.41,12.41,0,0,0,8.55-3.28V70.29Z" transform="translate(-3.29 -4.53)"/><path class="cls-1" d="M577.59,6.62v9.8h-2.53V6.62h-3.29V4.53h9.11V6.62Z" transform="translate(-3.29 -4.53)"/><path class="cls-1" d="M588.19,16.41l-2-6.14c-.25-.74-.5-1.69-.5-1.72h0s-.06,1-.17,1.76l-.73,6.09h-2.3l1.66-11.88h2.45L589,11.87c.28.9.59,2.06.59,2.06h0s.34-1.15.65-2.06l2.48-7.34h2.42l1.6,11.88h-2.56l-.76-6.13c-.09-.82-.17-1.72-.17-1.72h-.05s-.23.9-.48,1.69l-2.05,6.17Z" transform="translate(-3.29 -4.53)"/></svg>