<svg id="Layer_1" data-name="Layer 1" xmlns="http://www.w3.org/2000/svg" viewBox="0 0 97.62 17.88"><defs><style>.cls-1{fill:#fff;}</style></defs><title>zemanta-logo-white</title><path class="cls-1" d="M82.49,72.39h-7v2.22H73.34V70.23h12v1.86L75.89,86h10v2.16h-13V86.25Z" transform="translate(-72.89 -70.23)"/><path class="cls-1" d="M99.14,82.38H91v2.85a.71.71,0,0,0,.78.81h7v2.07H91.46c-1.8,0-2.7-.87-2.7-2.64V77.4c0-2,.93-3,2.82-3h4.65c1.92,0,2.88.93,2.91,2.82Zm-8.1-2h5.85V77.49c0-.66-.36-1-1.05-1H92.18A1,1,0,0,0,91,77.61Z" transform="translate(-72.89 -70.23)"/><path class="cls-1" d="M109.67,88.11V76.5h-4.59V88.11h-2.34V76.5h-1.65V74.43h15c1.89,0,2.82.87,2.82,2.58v9h1.5v2.07H116.6V77.22a.64.64,0,0,0-.72-.72H112V88.11Z" transform="translate(-72.89 -70.23)"/><path class="cls-1" d="M132.74,86h1.65v2.07h-8.64c-2,0-2.91-.9-2.91-2.67V82.92c0-1.71,1-2.58,2.91-2.58h4.68v-2a1.66,1.66,0,0,0-1.86-1.89h-2.76v1.62h-2.19V74.43h4.92c2.79,0,4.2,1.29,4.2,3.84Zm-2.31,0V82.38H126a.71.71,0,0,0-.81.78v2A.76.76,0,0,0,126,86Z" transform="translate(-72.89 -70.23)"/><path class="cls-1" d="M144.83,88.11V77.37a.79.79,0,0,0-.9-.87h-4.65V88.11h-2.34V76.5h-1.5V74.43h9.06a2.35,2.35,0,0,1,2.67,2.64v9h1.5v2.07Z" transform="translate(-72.89 -70.23)"/><path class="cls-1" d="M151.22,76.5h-1.8V74.43h1.8v-4.2h2.31v4.2h3.3V76.5h-3.3v8.58q0,1,1,1h1.62a5.44,5.44,0,0,0,.72,0v2.07H154.1q-2.88,0-2.88-3.06Z" transform="translate(-72.89 -70.23)"/><path class="cls-1" d="M168.86,86h1.65v2.07h-8.64c-2,0-2.91-.9-2.91-2.67V82.92c0-1.71,1-2.58,2.91-2.58h4.68v-2a1.66,1.66,0,0,0-1.86-1.89h-2.76v1.62h-2.19V74.43h4.92c2.79,0,4.2,1.29,4.2,3.84Zm-2.31,0V82.38h-4.47a.71.71,0,0,0-.81.78v2a.76.76,0,0,0,.87.84Z" transform="translate(-72.89 -70.23)"/></svg>