<?xml version="1.0" encoding="utf-8"?>
<!-- Generator: Adobe Illustrator 21.1.0, SVG Export Plug-In . SVG Version: 6.00 Build 0)  -->
<svg version="1.1" id="wizard-mobile-app" xmlns="http://www.w3.org/2000/svg" xmlns:xlink="http://www.w3.org/1999/xlink" x="0px"
	 y="0px" viewBox="0 0 28.4 28.4" style="enable-background:new 0 0 28.4 28.4;" xml:space="preserve">
<style type="text/css">
	.st0{fill:#333f48;}
</style>
<title>wizard-mobile-app</title>
<path class="st0" d="M20.5,0H7.9c-1.1,0-2,0.9-2,1.9v24.5c0,1.1,0.9,1.9,1.9,1.9h12.6c1.1,0,1.9-0.9,1.9-1.9V1.9
	C22.4,0.9,21.5,0,20.5,0z M12.1,1.4h4c0.1,0,0.2,0.1,0.2,0.2s-0.1,0.2-0.2,0.2h-4c-0.1,0-0.2-0.1-0.2-0.2S12,1.4,12.1,1.4z
	 M14.1,27.4c-0.6,0-1-0.4-1-1s0.4-1,1-1s1,0.4,1,1S14.7,27.4,14.1,27.4z M21,24.8H7.3V3h13.8L21,24.8z"/>
</svg>
