<?xml version="1.0" encoding="utf-8"?>
<!-- Generator: Adobe Illustrator 21.1.0, SVG Export Plug-In . SVG Version: 6.00 Build 0)  -->
<svg version="1.1" id="Content_insights" xmlns="http://www.w3.org/2000/svg" xmlns:xlink="http://www.w3.org/1999/xlink" x="0px"
	 y="0px" viewBox="0 0 28.4 28.4" style="enable-background:new 0 0 28.4 28.4;" xml:space="preserve">
<style type="text/css">
	.st0{fill:#333f48;}
</style>
<title>content-insights-blue</title>
<path class="st0" d="M21.2,10.6C21.2,4.8,16.5,0,10.6,0S0,4.7,0,10.6s4.7,10.6,10.6,10.6l0,0l0,0C16.5,21.2,21.2,16.5,21.2,10.6z
	 M10.6,18.6c-4.4,0-8-3.6-8-8s3.6-8,8-8s8,3.6,8,8l0,0C18.6,15,15,18.6,10.6,18.6z"/>
<path class="st0" d="M27.5,23.8L21,17.3c-1,1.5-2.2,2.8-3.7,3.7l6.5,6.5c1,1.1,2.7,1.1,3.8,0.1S28.6,24.9,27.5,23.8L27.5,23.8
	L27.5,23.8z"/>
<rect x="13.3" y="5.9" class="st0" width="0.8" height="9.5"/>
<rect x="12.1" y="15" class="st0" width="3" height="0.8"/>
<rect x="12.1" y="5.5" class="st0" width="3" height="0.8"/>
<path class="st0" d="M9.9,14.3l-0.1-0.9l0,0c-0.5,0.7-1.3,1-2.1,1c-1.1,0.1-2.1-0.8-2.1-1.9v-0.1c0-1.7,1.5-2.6,4.2-2.6V9.7
	c0.1-0.8-0.4-1.5-1.2-1.6c-0.2,0-0.3,0-0.5,0c-0.6,0-1.3,0.2-1.8,0.5L5.9,7.8c0.7-0.4,1.5-0.6,2.3-0.6c2.1,0,2.7,1.5,2.7,2.9v2.6
	c0,0.6,0.1,1.1,0.1,1.7H9.9V14.3z M9.7,10.7c-1.4,0-3,0.2-3,1.6c-0.1,0.6,0.4,1.2,1,1.2c0.1,0,0.1,0,0.2,0c0.8,0,1.4-0.5,1.7-1.2
	c0.1-0.1,0.1-0.2,0.1-0.4V10.7L9.7,10.7z"/>
</svg>
