<?xml version="1.0" encoding="utf-8"?>
<!-- Generator: Adobe Illustrator 21.1.0, SVG Export Plug-In . SVG Version: 6.00 Build 0)  -->
<svg version="1.1" id="Restore" xmlns="http://www.w3.org/2000/svg" xmlns:xlink="http://www.w3.org/1999/xlink" x="0px" y="0px"
	 viewBox="0 0 28.4 28.4" style="enable-background:new 0 0 28.4 28.4;" xml:space="preserve">
<style type="text/css">
	.st0{fill:#333f48;}
</style>
<title>restore-sec</title>
<path class="st0" d="M28.3,5.3c-0.1-0.2-0.2-0.4-0.5-0.5L17.6,0.3c-0.3-0.1-0.7-0.1-0.9,0.2l-2.8,3.4l-10.2,5C3.5,8.9,3.4,9,3.4,9.1
	l0,0v0.1l0,0l-3.2,4.6C-0.1,14.2,0,14.7,0.4,15l0,0l2.7,1.3v5.8c0,0.3,0.2,0.6,0.5,0.8l10.3,5l0.3,0.1h0.1h0.1l0,0l10.7-5
	c0.3-0.1,0.5-0.4,0.5-0.8V9.7L28.2,6C28.4,5.8,28.4,5.5,28.3,5.3z M14.3,5.6l8.4,4.1l-8.4,4.1L6,9.7L14.3,5.6z M4.3,10.8l8.4,4.1
	l0.5,0.3L11,18.4L2.1,14L4.3,10.8z M4.9,21.7v-4.5l6.1,3c0.1,0.1,0.2,0.1,0.4,0.1l0,0c0.3,0,0.5-0.1,0.7-0.3l1.5-2.2v8.1L4.9,21.7z
	 M23.9,21.7l-8.6,4.2V15.2l8.6-4.2V21.7z M24.5,8.6l-8.9-4.3L17.5,2l8.9,3.8L24.5,8.6z"/>
</svg>
