<?xml version="1.0" encoding="utf-8"?>
<!-- Generator: Adobe Illustrator 21.1.0, SVG Export Plug-In . SVG Version: 6.00 Build 0)  -->
<svg version="1.1" id="Send" xmlns="http://www.w3.org/2000/svg" xmlns:xlink="http://www.w3.org/1999/xlink" x="0px" y="0px"
	 viewBox="0 0 28.4 28.4" style="enable-background:new 0 0 28.4 28.4;" xml:space="preserve">
<style type="text/css">
	.st0{fill:#333f48;}
</style>
<title>send-blue</title>
<path class="st0" d="M9.4,26.1c0,0.3,0.2,0.5,0.5,0.5c0.1,0,0.2,0,0.3-0.1l3.2-2.1l-3.9-1.8v3.5H9.4z"/>
<path class="st0" d="M28.2,1.9c-0.1-0.1-0.2-0.1-0.3-0.1c-0.1,0-0.1,0-0.2,0L0.4,15.1C0,15.3-0.2,15.8,0,16.2
	c0.1,0.2,0.2,0.3,0.4,0.4L7.6,20L22,8.2L9.4,20.9l8.9,4.3c0.4,0.2,0.9,0,1.1-0.4l0,0l8.8-22.3C28.4,2.2,28.3,2,28.2,1.9z"/>
</svg>
