<?xml version="1.0" encoding="utf-8"?>
<!-- Generator: Adobe Illustrator 22.0.1, SVG Export Plug-In . SVG Version: 6.00 Build 0)  -->
<svg version="1.1" id="Settings" xmlns="http://www.w3.org/2000/svg" xmlns:xlink="http://www.w3.org/1999/xlink" x="0px" y="0px"
	 viewBox="0 0 32 32" style="enable-background:new 0 0 32 32;" xml:space="preserve">
<style type="text/css">
	.st0{fill:#333f48;}
</style>
<title>settings-sec</title>
<path class="st0" d="M30.2,12.4l-2-0.4c-0.2-0.6-0.5-1.3-0.8-1.9l1.2-1.7c0.6-0.9,0.5-2.1-0.2-2.9l-2-2c-0.8-0.8-2-0.9-2.9-0.2
	l-1.7,1.2c-0.6-0.3-1.3-0.6-2-0.8l-0.3-2C19.3,0.8,18.4,0,17.3,0h-2.8c-1.1,0-2,0.8-2.2,1.9l-0.3,2c-0.6,0.2-1.3,0.5-1.9,0.8
	L8.5,3.5C7.6,2.9,6.4,3,5.6,3.7l-2,2c-0.8,0.8-0.9,2-0.2,2.9l1.2,1.7c-0.3,0.6-0.6,1.2-0.8,1.9l-2,0.3c-1,0.2-1.8,1.1-1.8,2.1v2.8
	c0,1.1,0.8,2,1.9,2.2l2,0.4c0.2,0.6,0.5,1.3,0.8,1.9l-1.2,1.7c-0.6,0.9-0.5,2.1,0.2,2.9l2,2c0.8,0.7,2,0.8,2.9,0.2l1.7-1.2
	c0.6,0.3,1.2,0.5,1.8,0.8l0.3,2c0.2,1.1,1.1,1.8,2.1,1.8h2.8c1.1,0,2-0.8,2.2-1.9l0.4-2c0.6-0.2,1.3-0.5,1.9-0.8l1.7,1.2
	c0.9,0.6,2.1,0.5,2.9-0.2l2-2c0.8-0.8,0.9-2,0.2-2.9l-1.2-1.7c0.3-0.6,0.6-1.2,0.8-1.9l2-0.3c1.1-0.2,1.9-1.1,1.9-2.2v-2.8
	C32,13.5,31.2,12.6,30.2,12.4z M26.1,18.6c-0.2,0.9-0.6,1.8-1.1,2.7c-0.2,0.4-0.2,0.9,0,1.3l1.6,2.2l-1.8,1.8L22.5,25
	c-0.4-0.3-0.9-0.3-1.3,0c-0.8,0.5-1.7,0.9-2.7,1.1c-0.4,0.1-0.8,0.5-0.9,0.9l-0.5,2.7h-2.6L14.3,27c-0.1-0.5-0.4-0.8-0.9-0.9
	c-0.9-0.2-1.8-0.6-2.6-1.1c-0.4-0.2-0.9-0.2-1.3,0.1l-2.2,1.6l-1.8-1.9L7,22.6c0.2-0.4,0.2-0.9,0-1.3c-0.5-0.8-0.8-1.7-1-2.7
	c-0.1-0.5-0.5-0.8-1-0.9l-2.7-0.5v-2.6L5,14.3c0.5-0.1,0.8-0.4,0.9-0.9c0.2-0.9,0.6-1.8,1.1-2.7c0.3-0.4,0.3-0.9,0-1.3L5.4,7.3
	l1.8-1.8L9.4,7c0.4,0.3,0.9,0.3,1.3,0.1c0.8-0.5,1.7-0.8,2.7-1.1c0.5-0.1,0.8-0.5,0.8-1l0.5-2.7h2.6L17.7,5c0.1,0.5,0.4,0.8,0.9,0.9
	c1,0.2,1.9,0.6,2.7,1.1c0.4,0.2,0.9,0.2,1.3,0l2.2-1.6l1.9,1.8L25,9.4c-0.2,0.4-0.2,0.9,0,1.3c0.5,0.8,0.9,1.7,1.1,2.7
	c0.1,0.4,0.5,0.8,0.9,0.9l2.7,0.5v2.6L27,17.7C26.6,17.8,26.2,18.2,26.1,18.6z"/>
<path class="st0" d="M16,8.9c-3.9,0-7.1,3.2-7.1,7.1s3.2,7.1,7.1,7.1s7.1-3.2,7.1-7.1l0,0C23.1,12.1,19.9,8.9,16,8.9z M20.7,16
	c0,2.6-2.1,4.7-4.7,4.7s-4.7-2.1-4.7-4.7s2.1-4.7,4.7-4.7l0,0C18.6,11.3,20.7,13.4,20.7,16z"/>
</svg>
