<?xml version="1.0" encoding="utf-8"?>
<!-- Generator: Adobe Illustrator 21.1.0, SVG Export Plug-In . SVG Version: 6.00 Build 0)  -->
<svg version="1.1" id="Layer_53" xmlns="http://www.w3.org/2000/svg" xmlns:xlink="http://www.w3.org/1999/xlink" x="0px" y="0px"
	 viewBox="0 0 28.4 28.4" style="enable-background:new 0 0 28.4 28.4;" xml:space="preserve">
<style type="text/css">
	.st0{fill:#333f48;}
</style>
<title>sort-descending-sec</title>
<path class="st0" d="M24.6,24h2.3c0.8,0,1.4,0.6,1.4,1.4v1.5c0,0.8-0.6,1.4-1.4,1.4h-2.3c-0.8,0-1.4-0.6-1.4-1.4v-1.5
	C23.2,24.6,23.9,24,24.6,24z"/>
<path class="st0" d="M16.9,16h2.3c0.8,0,1.4,0.6,1.4,1.4v9.5c0,0.8-0.6,1.4-1.4,1.4h-2.3c-0.8,0-1.4-0.6-1.4-1.4v-9.5
	C15.5,16.6,16.1,16,16.9,16z"/>
<path class="st0" d="M9.2,8h2.3c0.8,0,1.4,0.6,1.4,1.4v17.5c0,0.8-0.6,1.4-1.4,1.4H9.2c-0.8,0-1.4-0.6-1.4-1.4V9.4
	C7.7,8.6,8.4,8,9.2,8z"/>
<path class="st0" d="M1.4,0h2.3c0.8,0,1.4,0.6,1.4,1.4v25.5c0,0.8-0.6,1.4-1.4,1.4H1.4c-0.8,0-1.4-0.6-1.4-1.4V1.4
	C0,0.6,0.6,0,1.4,0z"/>
</svg>
