<svg id="wizard-ecommerce" xmlns="http://www.w3.org/2000/svg" viewBox="0 0 28.35 28.35"><defs><style>.cls-1{fill:#3f547f;}</style></defs><title>wizard-ecommerce</title><path class="cls-1" d="M26.8,8.11,7.08,6.2H6.76L6,2.38a1.07,1.07,0,0,0,0-.2,1.1,1.1,0,0,0-.72-.67L1.44.41A1.1,1.1,0,1,0,.76,2.5l.07,0L4,3.45,7.72,21.62a1.1,1.1,0,0,0,1.1,1H25a1.1,1.1,0,1,0,0-2.2H9.72L9.2,17.77H25.29A1.74,1.74,0,0,0,27,16.44l1.3-6.57A1.68,1.68,0,0,0,26.9,8h-.14Z"/><path class="cls-1" d="M14.12,25.79a2.2,2.2,0,1,1-2.2-2.2,2.2,2.2,0,0,1,2.2,2.2Z"/><path class="cls-1" d="M24.57,25.79a2.2,2.2,0,1,1-2.17-2.23,2.2,2.2,0,0,1,2.17,2.23h0Z"/></svg>