<svg id="Content" xmlns="http://www.w3.org/2000/svg" viewBox="0 0 28.35 28.35"><defs><style>.cls-1{fill:#3f547f;}</style></defs><title>comment-blue</title><path class="cls-1" d="M28.35,2.09A2.09,2.09,0,0,0,26.26,0H2A2,2,0,0,0,0,2V21.26a2.09,2.09,0,0,0,2.09,2.09h1.6v5l7.73-5H26.26a2.09,2.09,0,0,0,2.09-2.09Zm-2.08,17.6a1.59,1.59,0,0,1-1.59,1.59H10.8l-5.13,3.5v-3.5h-2a1.59,1.59,0,0,1-1.59-1.59V3.61A1.59,1.59,0,0,1,3.66,2h21a1.59,1.59,0,0,1,1.59,1.59Zm0,0"/><path class="cls-1" d="M6.71,8.15H21.82a1,1,0,1,0,0-2H6.71a1,1,0,1,0,0,2Zm0,0"/><path class="cls-1" d="M6.71,12.54H21.82a1,1,0,1,0,0-2H6.71a1,1,0,1,0,0,2Zm0,0"/><path class="cls-1" d="M6.71,16.93H21.82a1,1,0,1,0,0-2H6.71a1,1,0,1,0,0,2Zm0,0"/></svg>