<svg id="Desktop" xmlns="http://www.w3.org/2000/svg" viewBox="0 0 28.35 23.66"><defs><style>.cls-1{fill:#3f547f;}</style></defs><title>device-desktop-blue</title><path class="cls-1" d="M26.81,0H1.53A1.67,1.67,0,0,0,0,1.53V18.15A1.63,1.63,0,0,0,.22,19a1.55,1.55,0,0,0,1.44.85h9.13v2.3H9.06a.77.77,0,0,0,0,1.53H19.28a.77.77,0,1,0,0-1.53H17.54v-2.3h9.12A1.55,1.55,0,0,0,28.1,19a1.68,1.68,0,0,0,.24-.83V1.53A1.71,1.71,0,0,0,26.8,0Zm0,1.64V18.15c0,.1,0,.14-.14.14h-25c-.1,0-.14,0-.14-.14V1.53H26.81Z"/></svg>