<svg id="Edit" xmlns="http://www.w3.org/2000/svg" viewBox="0 0 28.35 28.35"><defs><style>.cls-1{fill:#3f547f;}</style></defs><title>edit</title><path class="cls-1" d="M26.77,1.57a5.36,5.36,0,0,0-7.58,0L3.82,16.86a1.13,1.13,0,0,0-.27.41L.07,26.85A1.13,1.13,0,0,0,.31,28a1.13,1.13,0,0,0,.81.35,1.1,1.1,0,0,0,.33,0l8.66-2.66a1.18,1.18,0,0,0,.46-.28L26.77,9.15a5.35,5.35,0,0,0,0-7.58Zm-15.21,18a1.1,1.1,0,0,0-.87-.41H9.2v-1.5a1.12,1.12,0,0,0-1.12-1.12H7.3L17,6.87h0l.21-.21a3.13,3.13,0,1,1,4.43,4.43l-10,10,.13-.62A1.1,1.1,0,0,0,11.56,19.57ZM8.08,21.38H9.31L8.82,23.7l-2.88.89a3.89,3.89,0,0,0-.86-1.32,4.75,4.75,0,0,0-1-.78l1.35-3.71H7v1.49A1.12,1.12,0,0,0,8.08,21.38Zm18-16a3.1,3.1,0,0,1-.92,2.21L24.74,8A5.34,5.34,0,0,0,20.32,3.6l.51-.51a3.13,3.13,0,0,1,5.28,2.27Z"/></svg>