<svg id="Browse" xmlns="http://www.w3.org/2000/svg" viewBox="0 0 28.35 28.35"><defs><style>.cls-1{fill:#3f547f;}</style></defs><title>folder</title><path class="cls-1" d="M28.12,12.63a2.28,2.28,0,0,0-1-1,3,3,0,0,0-1.47-.36H22.81v-.38a3.35,3.35,0,0,0-3.33-3.33H11.4V7a3.2,3.2,0,0,0-1-2.35,3.2,3.2,0,0,0-2.35-1H3.33A3.2,3.2,0,0,0,1,4.7,3.2,3.2,0,0,0,0,7V21.3a3.2,3.2,0,0,0,1,2.35,3.2,3.2,0,0,0,2.35,1H19.48a4.86,4.86,0,0,0,2.08-.51,4.83,4.83,0,0,0,1.72-1.3l4.38-7.39a2.84,2.84,0,0,0,.68-1.78,2.33,2.33,0,0,0-.22-1ZM1.9,7A1.42,1.42,0,0,1,3.33,5.62H8.08A1.42,1.42,0,0,1,9.5,7V8a1.42,1.42,0,0,0,1.43,1.43h8.55a1.42,1.42,0,0,1,1.42,1.42v.38H9.5a4.8,4.8,0,0,0-2.08.51A5,5,0,0,0,5.7,13L1.9,19.71Zm24.28,7.18-4.37,7.39a3.4,3.4,0,0,1-2.33,1.11H3.33q-.79,0-.79-.52a1.08,1.08,0,0,1,.27-.59l4.36-7.39a3.06,3.06,0,0,1,1.06-.78,3,3,0,0,1,1.27-.32H25.66q.79,0,.79.52a1,1,0,0,1-.27.58Zm0,0"/></svg>