<svg id="Restore" xmlns="http://www.w3.org/2000/svg" viewBox="0 0 28.35 28.35"><defs><style>.cls-1{fill:#3f547f;}</style></defs><title>restore-sec</title><path class="cls-1" d="M28.32,5.28a.8.8,0,0,0-.45-.51L17.58.33a.8.8,0,0,0-.93.22l-2.79,3.4L3.66,8.89a.83.83,0,0,0-.29.24h0l0,.05,0,0L.14,13.82A.85.85,0,0,0,.47,15l2.7,1.34v5.84a.84.84,0,0,0,.48.77l10.29,5,.34.1h.15l.12,0h0L25.08,23a.86.86,0,0,0,.48-.77V9.74L28.2,6A.8.8,0,0,0,28.32,5.28Zm-14,.33,8.37,4.06-8.37,4.06L6,9.67ZM4.27,10.76l8.45,4.08.53.26L11,18.39,2.09,14Zm.61,10.93V17.23l6.06,3a.81.81,0,0,0,.38.09h0A.85.85,0,0,0,12,20l1.47-2.19v8.1Zm19,0-8.64,4.2V15.21L23.85,11Zm.58-13.07L15.6,4.32,17.49,2l8.85,3.82Z"/></svg>