<?xml version="1.0" encoding="utf-8"?>
<!-- Generator: Adobe Illustrator 21.1.0, SVG Export Plug-In . SVG Version: 6.00 Build 0)  -->
<svg version="1.1" id="Real_Arrow" xmlns="http://www.w3.org/2000/svg" xmlns:xlink="http://www.w3.org/1999/xlink" x="0px" y="0px"
	 viewBox="0 0 28.4 28.4" style="enable-background:new 0 0 28.4 28.4;" xml:space="preserve">
<style type="text/css">
	.st0{fill:#333333;}
</style>
<title>arrow-real-blue</title>
<path class="st0" d="M19.8,5.2c-0.4-0.4-1-0.4-1.4-0.1c0,0,0,0-0.1,0.1c-0.4,0.4-0.4,1,0,1.4l0,0l6.5,6.5H1c-0.6,0-1,0.4-1,1
	s0.4,1,1,1h23.8l-6.5,6.4c-0.4,0.4-0.4,1.1,0,1.5s1.1,0.4,1.5,0l8.2-8.1c0.4-0.4,0.4-1.1,0-1.5L19.8,5.2z"/>
</svg>
