<?xml version="1.0" encoding="utf-8"?>
<!-- Generator: Adobe Illustrator 21.1.0, SVG Export Plug-In . SVG Version: 6.00 Build 0)  -->
<svg version="1.1" id="Blacklist_-_Add" xmlns="http://www.w3.org/2000/svg" xmlns:xlink="http://www.w3.org/1999/xlink" x="0px"
	 y="0px" viewBox="0 0 28.4 28.4" style="enable-background:new 0 0 28.4 28.4;" xml:space="preserve">
<style type="text/css">
	.st0{fill:#333333;}
</style>
<title>blacklist-add-sec</title>
<path class="st0" d="M18.4,12.1c0-1.2-0.9-2.1-2.1-2.1l0,0H2c-1.1,0-2,0.9-2,2v14.3c0,1.2,0.9,2.1,2.1,2.1l0,0h14.2
	c1.2,0,2.1-0.9,2.1-2.1l0,0l0,0V12.1z M16.3,24.7c0,0.9-0.7,1.6-1.6,1.6l0,0h-11c-0.9,0-1.6-0.7-1.6-1.6l0,0l0,0V13.6
	c0-0.9,0.7-1.6,1.6-1.6l0,0h11c0.9,0,1.6,0.7,1.6,1.6l0,0l0,0V24.7L16.3,24.7z"/>
<path class="st0" d="M4.6,20.2h9.1c0.6,0,1-0.4,1-1s-0.4-1-1-1H4.6c-0.6,0-1,0.4-1,1S4.1,20.2,4.6,20.2z"/>
<path class="st0" d="M4.6,23.6h9.1c0.6,0,1-0.4,1-1s-0.4-1-1-1H4.6c-0.6,0-1,0.4-1,1S4.1,23.6,4.6,23.6z"/>
<path class="st0" d="M4.6,16.8h9.1c0.6,0,1-0.4,1-1s-0.4-1-1-1H4.6c-0.6,0-1,0.4-1,1S4.1,16.8,4.6,16.8z"/>
<path class="st0" d="M19.8,0c-4.7,0-8.6,3.8-8.6,8.6s3.8,8.6,8.6,8.6s8.6-3.8,8.6-8.6C28.3,3.8,24.5,0,19.8,0z M24.1,9.4h-3.4v3.4
	H19V9.4h-3.4V7.7H19V4.3h1.7v3.4h3.4V9.4z"/>
</svg>
