<svg id="Layer_1" data-name="Layer 1" xmlns="http://www.w3.org/2000/svg" viewBox="0 0 763 113"><defs><style>.cls-1{fill:#f6931f;}.cls-2{fill:#8ac53f;}.cls-3{fill:#241f20;}</style></defs><title>burdaforward-logo</title><g id="aypA8j.tif"><rect class="cls-1" x="328.24" width="434.76" height="112.76"/><path class="cls-2" d="M328.93,22.82q0,29.07,0,58.14c0,2.88,0,5.75,0,8.63a3.07,3.07,0,0,1-.69,2.41c0,6.9-.06,20.75-.06,20.75H0C0,75.69,0,0,0,0H328.24V19.72"/><path class="cls-3" d="M525.86,61.49a13.37,13.37,0,0,0-.92,3.49q-3.12,12.83-6.21,25.66c-.23,1-.6,1.4-1.7,1.38q-7.78-.1-15.56,0c-1.09,0-1.46-.4-1.77-1.37Q492,66.41,484.18,42.18c-.43-1.34-.35-1.77,1.21-1.75q8.3.12,16.6,0c1.26,0,1.66.45,1.94,1.55,2.21,8.7,4.88,17.27,6.74,26.06.07.33.21.64.36,1.11l5.37-22.27c.4-1.68.91-3.34,1.2-5,.2-1.17.75-1.42,1.85-1.41,4.32.06,8.65.09,13,0,1.4,0,2,.34,2.3,1.76,2,9,4.47,18,6.43,27.58.7-2.85,1.26-5.22,1.87-7.57,1.76-6.79,3.55-13.58,5.29-20.38.25-1,.62-1.39,1.72-1.38,5.53.06,11.06.05,16.6,0,1.17,0,1.47.18,1.07,1.43q-7.85,24.48-15.58,49A1.37,1.37,0,0,1,550.53,92c-5.36,0-10.72,0-16.08,0-1,0-1.33-.39-1.56-1.33-2.26-9.45-4.77-18.85-6.8-28.36C526,62.13,526,61.94,525.86,61.49Z"/><path class="cls-3" d="M702.47,46.11c0-8.43.07-16.37-.05-24.32,0-1.81.5-2.16,2.19-2.12,5.18.11,10.37.08,15.56,0,1.23,0,1.55.38,1.55,1.56q-.06,34.57,0,69.14c0,1.29-.33,1.66-1.64,1.64q-7.52-.11-15,0c-1.25,0-1.76-.26-1.67-1.61.12-1.64,0-3.3,0-5.18-.4.32-.57.4-.66.53-5.17,8-14.13,9.59-22.63,6.67-7.29-2.5-11.7-7.87-13.76-15.06-2.68-9.33-2.48-18.6,2.28-27.33a21.64,21.64,0,0,1,24.09-10.74,15.36,15.36,0,0,1,8.38,5.14Z"/><path class="cls-3" d="M328.25,92c0-.46,0-72.28,0-72.28s35.95,0,53.92,0c1.45,0,1.82.37,1.79,1.81-.09,4.78-.12,9.56,0,14.34,0,1.63-.52,1.86-1.95,1.85-10.31-.06-20.62,0-30.93-.07-1.47,0-1.84.41-1.78,1.83.11,2.82.09,5.65,0,8.47,0,1.24.37,1.53,1.56,1.53,8.41,0,16.82,0,25.23-.06,1.49,0,2,.32,1.93,1.89q-.18,6.39,0,12.79c0,1.53-.52,1.77-1.88,1.76-8.35-.06-16.71,0-25.06-.06-1.47,0-1.8.43-1.79,1.83.07,7.55,0,15.09.06,22.64,0,1.39-.27,1.85-1.76,1.83C341.16,92,334.7,92,328.25,92Z"/><path class="cls-3" d="M600.36,86.14c-6.16,7.2-14,8.28-22.45,6.49a14,14,0,0,1-11.36-13.11c-.44-8,2.65-13,9.58-15.57,3.93-1.48,8.06-1.86,12.16-2.38a33.86,33.86,0,0,0,7.58-1.6c2.54-.95,3.46-2.34,3.14-4.67s-1.67-3.55-4.18-3.87c-4-.51-6.52,1.06-7.69,5-.28.94-.72,1.09-1.57,1.09-5.19,0-10.37,0-15.56,0-1.06,0-1.35-.23-1.22-1.36.82-6.9,4.41-11.92,10.71-14.57,9.81-4.13,19.81-3.81,29.54.34,5.83,2.48,8.82,7.3,9,13.62.18,7,.06,13.94.1,20.92a16.43,16.43,0,0,0,.22,2.4c.17,1.11.81,1.85,2,1.73s1.42.49,1.41,1.5q-.05,4.06,0,8.13c0,.85-.19,1.38-1.1,1.64A25.4,25.4,0,0,1,606,92,8.08,8.08,0,0,1,600.36,86.14Z"/><path class="cls-3" d="M410.51,38.87c10.66.23,19.21,3.53,24.8,12.42,7,11.05,5.62,30.21-8.58,38.46-12,7-29.53,4.53-37.78-5.67-6.86-8.48-7.83-18.19-4.22-28.19,3.48-9.62,10.9-14.81,20.86-16.5C407.4,39.09,409.25,39,410.51,38.87Z"/><path class="cls-3" d="M643.67,47.84c2.26-2.66,4.44-5.14,7.52-6.7a19,19,0,0,1,10.08-1.72c1,.07,1.51.46,1.49,1.61q-.08,6.91,0,13.83c0,1.12-.32,1.38-1.38,1.2a18.36,18.36,0,0,0-7.21.11c-5.69,1.29-9.16,5.8-9.5,12.44-.37,7.25-.13,14.52-.13,21.77,0,1.27-.24,1.67-1.58,1.65q-8-.12-16.08,0c-1.34,0-1.59-.41-1.59-1.65q.06-24.2,0-48.4c0-1.19.28-1.56,1.52-1.55q7.69.11,15.38,0c1.28,0,1.53.43,1.48,1.58C643.61,44,643.67,45.9,643.67,47.84Z"/><path class="cls-3" d="M462.38,47.81c2.89-3.66,6-6.61,10.49-7.82a21.75,21.75,0,0,1,7-.55c1.06.06,1.61.43,1.59,1.69-.08,4.61-.05,9.22,0,13.83,0,1-.2,1.31-1.25,1.13a19,19,0,0,0-7.21.05c-5.41,1.14-8.91,5.27-9.55,11.28-.57,5.29-.17,10.59-.27,15.89q-.07,3.72,0,7.43c0,1-.25,1.3-1.25,1.29-5.53,0-11.07-.08-16.6,0-1.54,0-1.31-.85-1.31-1.75q0-20.75,0-41.5c0-2.31.06-4.61,0-6.92,0-1.16.37-1.44,1.47-1.43,5.13.05,10.26.06,15.39,0,1.24,0,1.58.37,1.53,1.56C462.31,43.93,462.38,45.87,462.38,47.81Z"/><path class="cls-3" d="M91.33,52.72c5.57,2,9.51,5.45,11.38,11,4.31,12.72-3.19,25.17-16.6,27.61a42.48,42.48,0,0,1-7.73.7Q60,92,41.55,92c-1.44,0-1.81-.37-1.81-1.81q.07-34.41,0-68.82c0-1.35.33-1.74,1.71-1.73,12,.06,24,0,36,0,6,0,11.79,1.19,16.66,5.15,5.73,4.65,8,13.68,5.05,20.44C97.87,48.23,96.35,49.69,91.33,52.72Z"/><path class="cls-3" d="M245.57,84.91a26.75,26.75,0,0,1-3.43,4.21c-6.23,5.61-13.33,5.65-20.7,3a18.33,18.33,0,0,1-10.35-9c-5.77-11.28-6-22.76.27-33.87,5.65-10.09,17.55-12.26,26-9.18a14.14,14.14,0,0,1,5.57,4c.49.53.83,1.24,1.59,1.52a3.33,3.33,0,0,0,.26-2c0-7.32,0-14.64,0-22,0-1.38.28-1.9,1.78-1.87,5.24.09,10.49.07,15.73,0,1.21,0,1.7.19,1.69,1.57q-.07,34.58,0,69.17c0,1.13-.19,1.62-1.48,1.6q-7.69-.11-15.39,0c-1.26,0-1.56-.42-1.5-1.58C245.64,88.78,245.57,87.11,245.57,84.91Z"/><path class="cls-3" d="M142.5,85.24a28.42,28.42,0,0,1-5,5c-6.64,4.86-17.54,4.64-23.72-.62-4.39-3.75-5.93-8.85-6-14.38-.12-11.12,0-22.24-.07-33.36,0-1.2.47-1.42,1.53-1.41,5.36,0,10.72.06,16.07,0,1.35,0,1.61.43,1.6,1.67-.05,8.7,0,17.4,0,26.1,0,.52,0,1,0,1.56.11,4.71,2.4,7.37,6.52,7.58s7.44-2.65,8-7a31.37,31.37,0,0,0,.23-3.79c0-8.12,0-16.25,0-24.37,0-1.36.38-1.76,1.74-1.74,5.3.08,10.6.06,15.9,0,1.18,0,1.57.28,1.57,1.52q-.06,24.28,0,48.57c0,1.07-.22,1.51-1.41,1.5q-7.78-.09-15.56,0c-1.2,0-1.46-.43-1.41-1.5C142.56,88.93,142.5,87.33,142.5,85.24Z"/><path class="cls-3" d="M302.24,86.22c-7.06,7.63-15.53,8.71-24.66,5.67-6.86-2.29-10.3-9.23-9.09-16.75a13.47,13.47,0,0,1,8.6-10.82c4.2-1.81,8.68-2.17,13.13-2.75a31,31,0,0,0,7.9-1.76c2.18-.9,3-2.29,2.76-4.42a4.13,4.13,0,0,0-3.77-3.88c-4.29-.71-6.79.79-8.14,5-.23.73-.51,1-1.29,1q-8,0-15.91,0c-1,0-1.21-.29-1.11-1.3.78-7.63,5.81-13.58,13.86-15.89a39.93,39.93,0,0,1,24.14.63c7.35,2.47,11.12,7.69,11.27,15.46.13,6.86,0,13.72,0,20.57,0,2.76.29,3.13,2.9,3.62.67.12.66.46.66,1,0,2.94-.06,5.88,0,8.82a1.4,1.4,0,0,1-1.23,1.55,25.74,25.74,0,0,1-13.81.29A8.16,8.16,0,0,1,302.24,86.22Z"/><path class="cls-3" d="M185.86,47.91c1.39-1.41,2.53-2.83,3.86-4.1,4-3.78,8.78-4.79,14.05-4.34a1.24,1.24,0,0,1,1.3,1.45q-.06,7,0,14c0,1.06-.43,1.27-1.36,1.15a20.93,20.93,0,0,0-5.84-.12c-6.1.93-9.87,4.73-10.75,10.89-.56,4-.28,7.94-.33,11.9s0,7.95,0,11.92c0,1-.27,1.39-1.35,1.38q-8.21-.08-16.42,0c-1.21,0-1.42-.47-1.42-1.52q0-24.28,0-48.56c0-1.09.26-1.51,1.44-1.5q7.69.09,15.38,0c1.14,0,1.5.36,1.46,1.48C185.81,43.92,185.86,45.91,185.86,47.91Z"/><path class="cls-1" d="M702.87,64.82c.05,4.53-.65,7.86-2.79,10.76-3.75,5.1-10.47,4.92-13.57-.57a17.81,17.81,0,0,1-.21-17.84c3.19-6,10.41-6.08,14.17-.39A14.93,14.93,0,0,1,702.87,64.82Z"/><path class="cls-1" d="M599.55,72.21a13.64,13.64,0,0,1-.29,3.78,8.5,8.5,0,0,1-11.64,5.28,4.46,4.46,0,0,1-2.63-4A4.41,4.41,0,0,1,587.15,73,15.25,15.25,0,0,1,592,71.29a30.22,30.22,0,0,0,6.11-1.82c1.23-.55,1.54-.19,1.44,1C599.52,71.05,599.55,71.63,599.55,72.21Z"/><path class="cls-1" d="M419.87,66.47c-.1,3.42-.41,6.79-2,9.89-1.89,3.61-5.09,5.15-8.71,4.24a7.26,7.26,0,0,1-4.82-4.13c-1.87-3.78-2.13-7.86-1.93-12a22.57,22.57,0,0,1,1.31-6.93c1.32-3.51,3.82-5.58,6.88-5.68,3.56-.11,6.11,1.64,7.69,5.29A24,24,0,0,1,419.87,66.47Z"/><path class="cls-2" d="M69.35,61.51c2.19,0,4.38,0,6.56,0,4.34,0,7.2,2.6,7.39,6.58s-2.66,7.08-7,7.24c-4.89.18-9.78,0-14.68.07-.84,0-1.09-.32-1.09-1.12,0-3.86,0-7.71,0-11.57,0-1.06.48-1.23,1.36-1.22C64.4,61.54,66.88,61.51,69.35,61.51Z"/><path class="cls-2" d="M68.31,47.78c-2.13,0-4.26,0-6.39,0-1.08,0-1.38-.37-1.36-1.4.05-3,0-6,0-9,0-1,.3-1.36,1.28-1.33,4.31.11,8.63-.2,12.94.2a5.84,5.84,0,0,1,5.67,5.83c0,3.21-2.22,5.44-5.75,5.62-2.12.1-4.26,0-6.39,0Z"/><path class="cls-2" d="M245.2,65.94a16.93,16.93,0,0,1-2.61,9.3c-3.67,5.46-10.67,5.42-13.87-.3a17.85,17.85,0,0,1-.21-17.7c3.16-6,10.4-6.19,14.18-.52A16.52,16.52,0,0,1,245.2,65.94Z"/><path class="cls-2" d="M301.53,71.9c-.07.86-.12,1.72-.22,2.58a8.28,8.28,0,0,1-10.92,7.14,4.69,4.69,0,0,1-3.57-4.19,4.62,4.62,0,0,1,2.65-4.65A24.64,24.64,0,0,1,295.05,71a32.18,32.18,0,0,0,4.77-1.49c1.5-.68,1.81-.21,1.66,1.18a11.76,11.76,0,0,0,0,1.21Z"/></g></svg>