<?xml version="1.0" encoding="utf-8"?>
<!-- Generator: Adobe Illustrator 21.1.0, SVG Export Plug-In . SVG Version: 6.00 Build 0)  -->
<svg version="1.1" id="wizard-video" xmlns="http://www.w3.org/2000/svg" xmlns:xlink="http://www.w3.org/1999/xlink" x="0px"
	 y="0px" viewBox="0 0 28.4 28.4" style="enable-background:new 0 0 28.4 28.4;" xml:space="preserve">
<style type="text/css">
	.st0{fill:#333333;}
</style>
<title>wizard-video</title>
<path class="st0" d="M27.1,0H1.2C0.9,0,0.7,0.3,0.7,0.6v27.1c0,0.3,0.2,0.6,0.5,0.6h25.9c0.3,0,0.5-0.3,0.5-0.6V0.6
	C27.7,0.3,27.4,0,27.1,0z M21.2,1.2C21.2,1.2,21.2,1.1,21.2,1.2c0.1-0.1,0.1-0.1,0.1-0.1H23c0,0,0.1,0,0.1,0.1l0,0l0,0v2.3
	c0,0,0,0.1-0.1,0.1l0,0h-1.7c0,0-0.1,0-0.1-0.1l0,0l0,0L21.2,1.2z M24.6,4.8c0.8,0,1.4,0.6,1.4,1.3l0,0c0,0,0,0,0,0.1v16
	c0,0.8-0.6,1.4-1.4,1.4l0,0H3.8c-0.8,0-1.4-0.6-1.4-1.4l0,0l0,0v-16c0-0.7,0.6-1.4,1.4-1.4C3.8,4.8,24.6,4.8,24.6,4.8z M18,1.2
	C18,1.2,18,1.1,18,1.2c0.1-0.1,0.1-0.1,0.1-0.1h1.8c0,0,0.1,0,0.1,0.1l0,0l0,0v2.3c0,0,0,0.1-0.1,0.1l0,0h-1.7c0,0-0.1,0-0.1-0.1
	l0,0l0,0L18,1.2z M14.8,1.2C14.8,1.2,14.8,1.1,14.8,1.2c0.1-0.1,0.1-0.1,0.1-0.1h1.8c0,0,0.1,0,0.1,0.1l0,0l0,0v2.3
	c0,0,0,0.1-0.1,0.1l0,0H15c0,0-0.1,0-0.1-0.1l0,0l0,0L14.8,1.2z M11.6,1.2C11.6,1.2,11.6,1.1,11.6,1.2c0.1-0.1,0.1-0.1,0.1-0.1h1.8
	c0,0,0.1,0,0.1,0.1l0,0l0,0v2.3c0,0,0,0.1-0.1,0.1l0,0h-1.7c0,0-0.1,0-0.1-0.1l0,0l0,0L11.6,1.2z M8.4,1.2C8.4,1.2,8.5,1.1,8.4,1.2
	c0.1-0.1,0.1-0.1,0.1-0.1h1.8c0,0,0.1,0,0.1,0.1l0,0l0,0v2.3c0,0,0,0.1-0.1,0.1l0,0H8.5c0,0-0.1,0-0.1-0.1l0,0l0,0V1.2z M5.2,1.2
	C5.2,1.2,5.3,1.1,5.2,1.2c0.1-0.1,0.1-0.1,0.1-0.1h1.8c0,0,0.1,0,0.1,0.1l0,0l0,0v2.3c0,0,0,0.1-0.1,0.1l0,0H5.3c0,0-0.1,0-0.1-0.1
	l0,0l0,0L5.2,1.2z M4,3.4C4,3.5,4,3.5,4,3.4C3.9,3.5,3.9,3.5,4,3.4L2.1,3.5c0,0-0.1,0-0.1-0.1l0,0V1.2c0,0,0-0.1,0.1-0.1l0,0h1.8
	c0,0,0.1,0,0.1,0.1l0,0 M3.9,27C3.9,27,3.9,27.1,3.9,27c-0.1,0.1-0.1,0.1-0.1,0.1H2.1c0,0-0.1,0-0.1-0.1l0,0v-2.3c0,0,0-0.1,0.1-0.1
	l0,0h1.8c0,0,0.1,0,0.1,0.1l0,0l0,0L3.9,27z M7.2,27C7.2,27,7.1,27.1,7.2,27c-0.1,0.1-0.1,0.1-0.1,0.1H5.3c0,0-0.1,0-0.1-0.1l0,0
	l0,0v-2.3c0,0,0-0.1,0.1-0.1l0,0h1.8c0,0,0.1,0,0.1,0.1l0,0l0,0C7.2,24.7,7.2,27,7.2,27z M10.3,27C10.3,27,10.3,27.1,10.3,27
	c-0.1,0.1-0.1,0.1-0.1,0.1H8.5c0,0-0.1,0-0.1-0.1l0,0l0,0v-2.3c0,0,0-0.1,0.1-0.1l0,0h1.8c0,0,0.1,0,0.1,0.1l0,0l0,0V27H10.3z
	 M13.5,27C13.5,27,13.5,27.1,13.5,27c-0.1,0.1-0.1,0.1-0.1,0.1h-1.7c0,0-0.1,0-0.1-0.1l0,0l0,0v-2.3c0,0,0-0.1,0.1-0.1l0,0h1.8
	c0,0,0.1,0,0.1,0.1l0,0l0,0L13.5,27z M16.7,27C16.7,27,16.7,27.1,16.7,27c-0.1,0.1-0.1,0.1-0.1,0.1h-1.7c0,0-0.1,0-0.1-0.1l0,0l0,0
	v-2.3c0,0,0-0.1,0.1-0.1l0,0h1.8c0,0,0.1,0,0.1,0.1l0,0l0,0L16.7,27z M19.9,27C19.9,27,19.9,27.1,19.9,27c-0.1,0.1-0.1,0.1-0.1,0.1
	h-1.7c0,0-0.1,0-0.1-0.1l0,0v-2.3c0,0,0-0.1,0.1-0.1l0,0h1.8c0,0,0.1,0,0.1,0.1l0,0l0,0L19.9,27z M23.1,27
	C23.1,27,23.1,27.1,23.1,27C23,27.1,23,27.1,23,27.1h-1.7c0,0-0.1,0-0.1-0.1l0,0l0,0v-2.3c0,0,0-0.1,0.1-0.1l0,0H23
	c0,0,0.1,0,0.1,0.1l0,0l0,0V27z M26.3,27C26.3,27,26.3,27.1,26.3,27c-0.1,0.1-0.1,0.1-0.1,0.1h-1.7c0,0-0.1,0-0.1-0.1l0,0l0,0v-2.3
	c0,0,0-0.1,0.1-0.1l0,0h1.8c0,0,0.1,0,0.1,0.1l0,0l0,0L26.3,27z M26.3,3.5C26.3,3.5,26.3,3.6,26.3,3.5C26.2,3.6,26.2,3.6,26.3,3.5
	l-1.8,0.1c0,0-0.1,0-0.1-0.1l0,0l0,0V1.2c0,0,0-0.1,0.1-0.1l0,0h1.8c0,0,0.1,0,0.1,0.1l0,0l0,0L26.3,3.5z"/>
<path class="st0" d="M19.7,14.8l-10.3,6c-0.3,0.2-0.8,0-0.9-0.3c0-0.1-0.1-0.2-0.1-0.3v-12c0-0.4,0.3-0.7,0.7-0.7
	c0.1,0,0.2,0,0.3,0.1l10.3,6c0.3,0.2,0.4,0.6,0.2,1C19.8,14.6,19.8,14.7,19.7,14.8z"/>
</svg>
