<?xml version="1.0" encoding="utf-8"?>
<!-- Generator: Adobe Illustrator 21.1.0, SVG Export Plug-In . SVG Version: 6.00 Build 0)  -->
<svg version="1.1" id="Content" xmlns="http://www.w3.org/2000/svg" xmlns:xlink="http://www.w3.org/1999/xlink" x="0px" y="0px"
	 viewBox="0 0 28.4 28.4" style="enable-background:new 0 0 28.4 28.4;" xml:space="preserve">
<style type="text/css">
	.st0{fill:#333333;}
</style>
<title>comment-blue</title>
<path class="st0" d="M28.4,2.1c0-1.2-0.9-2.1-2.1-2.1l0,0H2C0.9,0,0,0.9,0,2v19.3c0,1.2,0.9,2.1,2.1,2.1l0,0h1.6v5l7.7-5h14.8
	c1.2,0,2.1-0.9,2.1-2.1l0,0L28.4,2.1L28.4,2.1z M26.3,19.7c0,0.9-0.7,1.6-1.6,1.6l0,0H10.8l-5.1,3.5v-3.5h-2c-0.9,0-1.6-0.7-1.6-1.6
	l0,0V3.6C2.1,2.7,2.8,2,3.6,2l0,0h21c0.9,0,1.6,0.7,1.6,1.6l0,0L26.3,19.7z"/>
<path class="st0" d="M6.7,8.1h15.1c0.6,0,1-0.4,1-1s-0.4-1-1-1H6.7c-0.6,0-1,0.4-1,1S6.2,8.1,6.7,8.1z"/>
<path class="st0" d="M6.7,12.5h15.1c0.6,0,1-0.4,1-1s-0.4-1-1-1H6.7c-0.6,0-1,0.4-1,1S6.2,12.5,6.7,12.5z"/>
<path class="st0" d="M6.7,16.9h15.1c0.6,0,1-0.4,1-1s-0.4-1-1-1H6.7c-0.6,0-1,0.4-1,1S6.2,16.9,6.7,16.9z"/>
</svg>
