<?xml version="1.0" encoding="utf-8"?>
<!-- Generator: Adobe Illustrator 21.1.0, SVG Export Plug-In . SVG Version: 6.00 Build 0)  -->
<svg version="1.1" id="Edit" xmlns="http://www.w3.org/2000/svg" xmlns:xlink="http://www.w3.org/1999/xlink" x="0px" y="0px"
	 viewBox="0 0 28.4 28.4" style="enable-background:new 0 0 28.4 28.4;" xml:space="preserve">
<style type="text/css">
	.st0{fill:#333333;}
</style>
<title>edit</title>
<path class="st0" d="M26.8,1.6c-2.1-2.1-5.5-2.1-7.6,0L3.8,16.9c-0.1,0.1-0.2,0.3-0.3,0.4L0,26.9c-0.1,0.4,0,0.8,0.2,1.1
	c0.2,0.2,0.5,0.3,0.8,0.4c0.1,0,0.2,0,0.3,0l8.7-2.7c0.2-0.1,0.3-0.2,0.5-0.3L26.8,9.1C28.9,7.1,28.9,3.7,26.8,1.6L26.8,1.6z
	 M11.6,19.6c-0.2-0.3-0.5-0.4-0.9-0.4H9.2v-1.5c0-0.6-0.5-1.1-1.1-1.1l0,0H7.3L17,6.9l0,0l0.2-0.2c1.2-1.2,3.2-1.2,4.4,0
	s1.2,3.2,0,4.4l-10,10l0.1-0.6C11.8,20.2,11.8,19.8,11.6,19.6z M8.1,21.4h1.2l-0.5,2.3l-2.9,0.9c-0.2-0.5-0.5-0.9-0.9-1.3
	c-0.3-0.3-0.6-0.6-1-0.8l1.3-3.7H7v1.5C7,20.9,7.5,21.4,8.1,21.4z M26.1,5.4c0,0.8-0.3,1.6-0.9,2.2L24.7,8c-0.4-2.3-2.2-4-4.4-4.4
	l0.5-0.5C22.1,1.9,24,2,25.2,3.2C25.8,3.8,26.1,4.6,26.1,5.4L26.1,5.4z"/>
</svg>
