<?xml version="1.0" encoding="utf-8"?>
<!-- Generator: Adobe Illustrator 21.1.0, SVG Export Plug-In . SVG Version: 6.00 Build 0)  -->
<svg version="1.1" id="Browse" xmlns="http://www.w3.org/2000/svg" xmlns:xlink="http://www.w3.org/1999/xlink" x="0px" y="0px"
	 viewBox="0 0 28.4 28.4" style="enable-background:new 0 0 28.4 28.4;" xml:space="preserve">
<style type="text/css">
	.st0{fill:#333333;}
</style>
<title>folder</title>
<path class="st0" d="M28.1,12.6c-0.2-0.4-0.6-0.8-1-1c-0.5-0.2-1-0.4-1.5-0.4h-2.8v-0.4c0-1.8-1.5-3.3-3.3-3.3h-8.1V7
	c0-0.9-0.4-1.7-1-2.3C9.8,4,8.9,3.6,8,3.7H3.3C2.4,3.7,1.6,4,1,4.7C0.4,5.3,0,6.1,0,7v14.3c0,0.9,0.4,1.7,1,2.4c0.6,0.6,1.5,1,2.3,1
	h16.1c0.7,0,1.4-0.2,2.1-0.5s1.3-0.7,1.7-1.3l4.4-7.4c0.4-0.5,0.7-1.1,0.7-1.8C28.3,13.3,28.3,13,28.1,12.6L28.1,12.6z M1.9,7
	c0-0.8,0.7-1.4,1.4-1.4h4.8c0.8,0,1.4,0.6,1.4,1.4v1c0,0.8,0.6,1.4,1.4,1.4l0,0h8.5c0.8,0,1.4,0.6,1.4,1.4l0,0v0.4H9.5
	c-0.7,0-1.4,0.2-2.1,0.5C6.8,12,6.2,12.5,5.7,13l-3.8,6.7C1.9,19.7,1.9,7,1.9,7z M26.2,14.2l-4.4,7.4c-0.6,0.7-1.4,1.1-2.3,1.1H3.3
	c-0.5,0-0.8-0.2-0.8-0.5c0-0.2,0.1-0.4,0.3-0.6l4.4-7.4c0.3-0.3,0.7-0.6,1.1-0.8c0.4-0.2,0.8-0.3,1.3-0.3h16.2
	c0.5,0,0.8,0.2,0.8,0.5C26.4,13.8,26.3,14,26.2,14.2z"/>
</svg>
