<?xml version="1.0" encoding="utf-8"?>
<!-- Generator: Adobe Illustrator 21.1.0, SVG Export Plug-In . SVG Version: 6.00 Build 0)  -->
<svg version="1.1" id="History" xmlns="http://www.w3.org/2000/svg" xmlns:xlink="http://www.w3.org/1999/xlink" x="0px" y="0px"
	 viewBox="0 0 28.4 28.4" style="enable-background:new 0 0 28.4 28.4;" xml:space="preserve">
<style type="text/css">
	.st0{fill:#8AC53F;}
</style>
<title>history-orange</title>
<g id="history-2">
	<path class="st0" d="M14.9,0.7c-4.8,0-9.3,2.6-11.6,6.8L0,4.3v9.2h9.2l-4-4c2.6-5.3,9-7.5,14.3-4.8c3.6,1.8,5.9,5.5,5.9,9.5
		c0,5.9-4.8,10.6-10.7,10.6c-4.5,0-8.4-2.8-10-7h-3c2,7.2,9.4,11.4,16.6,9.4c5.9-1.6,9.9-6.9,9.9-13C28.3,6.8,22.3,0.8,14.9,0.7z
		 M12.8,7.8V15l6.7,4l1.1-1.8l-5.7-3.4v-6L12.8,7.8z"/>
</g>
</svg>
