<?xml version="1.0" encoding="utf-8"?>
<!-- Generator: Adobe Illustrator 21.1.0, SVG Export Plug-In . SVG Version: 6.00 Build 0)  -->
<svg version="1.1" id="Search" xmlns="http://www.w3.org/2000/svg" xmlns:xlink="http://www.w3.org/1999/xlink" x="0px" y="0px"
	 viewBox="0 0 28.4 28.3" style="enable-background:new 0 0 28.4 28.3;" xml:space="preserve">
<style type="text/css">
	.st0{fill:#333333;}
</style>
<title>magnifier-blue</title>
<path class="st0" d="M19.7,18.5c1.9-2,3-4.7,3-7.5C22.6,4.9,17.5-0.1,11.4,0C5.2-0.1,0.1,4.8,0,11c0.1,6.2,5.2,11.1,11.4,11
	c2.4,0,4.8-0.8,6.8-2.2l8.5,8.2c0.3,0.4,1,0.5,1.4,0.2s0.5-1,0.2-1.4c-0.1-0.1-0.1-0.1-0.2-0.2L19.7,18.5z M2.1,11
	c0.1-5,4.3-9.1,9.3-9c5-0.1,9.2,4,9.3,9c-0.1,5-4.3,9.1-9.3,9C6.3,20.1,2.2,16,2.1,11z"/>
</svg>
