<?xml version="1.0" encoding="utf-8"?>
<!-- Generator: Adobe Illustrator 21.1.0, SVG Export Plug-In . SVG Version: 6.00 Build 0)  -->
<svg version="1.1" id="Restore" xmlns="http://www.w3.org/2000/svg" xmlns:xlink="http://www.w3.org/1999/xlink" x="0px" y="0px"
	 viewBox="0 0 28.4 28.4" style="enable-background:new 0 0 28.4 28.4;" xml:space="preserve">
<style type="text/css">
	.st0{fill:#333333;}
</style>
<title>restore-sec</title>
<path class="st0" d="M28.3,6.3c-0.1-0.2-0.2-0.4-0.5-0.5L17.6,1.3c-0.3-0.1-0.7-0.1-0.9,0.2l-2.8,3.4l-10.2,5
	c-0.2,0-0.3,0.1-0.3,0.2l0,0v0.1l0,0l-3.2,4.6C-0.1,15.2,0,15.7,0.4,16l0,0l2.7,1.3v5.8c0,0.3,0.2,0.6,0.5,0.8l10.3,5l0.3,0.1h0.1
	h0.1l0,0l10.7-5c0.3-0.1,0.5-0.4,0.5-0.8V10.7L28.2,7C28.4,6.8,28.4,6.5,28.3,6.3z M14.3,6.6l8.4,4.1l-8.4,4.1L6,10.7L14.3,6.6z
	 M4.3,11.8l8.4,4.1l0.5,0.3L11,19.4L2.1,15L4.3,11.8z M4.9,22.7v-4.5l6.1,3c0.1,0.1,0.2,0.1,0.4,0.1l0,0c0.3,0,0.5-0.1,0.7-0.3
	l1.5-2.2v8.1L4.9,22.7z M23.9,22.7l-8.6,4.2V16.2l8.6-4.2V22.7z M24.5,9.6l-8.9-4.3L17.5,3l8.9,3.8L24.5,9.6z"/>
</svg>
