<?xml version="1.0" encoding="utf-8"?>
<!-- Generator: Adobe Illustrator 21.1.0, SVG Export Plug-In . SVG Version: 6.00 Build 0)  -->
<svg version="1.1" id="Upload" xmlns="http://www.w3.org/2000/svg" xmlns:xlink="http://www.w3.org/1999/xlink" x="0px" y="0px"
	 viewBox="0 0 28.4 28.4" style="enable-background:new 0 0 28.4 28.4;" xml:space="preserve">
<style type="text/css">
	.st0{fill:#333333;}
</style>
<title>upload</title>
<path class="st0" d="M5.2,8.6c-0.4,0.4-0.4,1,0,1.4c0,0,0,0,0.1,0.1c0.4,0.4,1,0.4,1.4,0l0,0l6.5-6.4v18.6c0,0.6,0.4,1,1,1
	s1-0.4,1-1V3.6l6.5,6.4c0.4,0.4,1.1,0.4,1.5,0s0.4-1.1,0-1.5L15,0.3c-0.4-0.4-1.1-0.4-1.5,0L5.2,8.6z M26.3,21.9c0-0.6,0.4-1,1-1
	s1,0.4,1,1v5.5c0,0.6-0.4,1-1,1H1.1c-0.6,0-1-0.4-1-1v-5.5c0-0.6,0.4-1,1-1s1,0.4,1,1v4.5h24.3v-4.5H26.3z"/>
</svg>
