<?xml version="1.0" encoding="utf-8"?>
<!-- Generator: Adobe Illustrator 16.2.1, SVG Export Plug-In . SVG Version: 6.00 Build 0)  -->
<!DOCTYPE svg PUBLIC "-//W3C//DTD SVG 1.1//EN" "http://www.w3.org/Graphics/SVG/1.1/DTD/svg11.dtd">
<svg version="1.1" id="Layer_1" xmlns="http://www.w3.org/2000/svg" xmlns:xlink="http://www.w3.org/1999/xlink" x="0px" y="0px"
	 width="68.57px" height="65.714px" viewBox="0 0 68.57 65.714" enable-background="new 0 0 68.57 65.714" xml:space="preserve">
<g id="calendar">
	<path d="M46.268,22.083h-1.009v-1.021c0-1.326-1.08-2.405-2.407-2.405c-1.326,0-2.404,1.079-2.404,2.405v1.021H28.126v-1.021
		c0-1.326-1.078-2.405-2.403-2.405c-1.326,0-2.404,1.079-2.404,2.405v1.021h-1.04c-1.32,0.008-2.393,1.088-2.393,2.408v25.697
		c0,0.384,0.312,0.695,0.694,0.695h27.414c0.381,0,0.691-0.312,0.691-0.695V24.492C48.687,23.174,47.603,22.094,46.268,22.083z
		 M41.833,21.062c0-0.562,0.457-1.02,1.02-1.02c0.562,0,1.018,0.458,1.018,1.02v3.43c0,0.562-0.456,1.02-1.018,1.02
		c-0.562,0-1.02-0.458-1.02-1.02V21.062z M24.702,21.062c0-0.562,0.458-1.02,1.021-1.02c0.561,0,1.017,0.458,1.017,1.02v3.43
		c0,0.562-0.456,1.02-1.017,1.02c-0.562,0-1.021-0.458-1.021-1.02V21.062z M26.744,49.496h-5.471v-5.471h5.471V49.496z
		 M26.744,42.638h-5.471v-5.471h5.471V42.638z M26.744,35.783h-5.471v-5.461h5.471V35.783z M33.603,49.496h-5.472v-5.471h5.472
		V49.496z M33.603,42.638h-5.472v-5.471h5.472V42.638z M33.604,35.783h-5.473v-5.461h5.473V35.783z M40.448,49.496h-5.461v-5.471
		h5.461V49.496z M40.448,42.638h-5.461v-5.471h5.461V42.638z M34.988,35.783v-5.461h5.46v5.461H34.988z M47.302,49.496h-5.469
		v-5.471h5.469V49.496z M47.302,42.638h-5.469v-5.471h5.469V42.638z M47.302,35.783h-5.469v-5.461h5.469V35.783z M47.302,28.937
		H21.273v-4.445c0-0.56,0.463-1.018,1.033-1.021h1.012v1.021c0,1.326,1.079,2.404,2.404,2.404c1.325,0,2.403-1.079,2.403-2.404
		V23.47h12.322v1.021c0,1.326,1.078,2.404,2.404,2.404c1.327,0,2.407-1.079,2.407-2.404V23.47h1.028
		c0.56,0.003,1.015,0.462,1.015,1.021V28.937z"/>
	<path d="M46.268,22.197h-1.122v-1.135c0-1.264-1.027-2.292-2.294-2.292c-1.263,0-2.291,1.028-2.291,2.292v1.135H28.013v-1.135
		c0-1.264-1.027-2.292-2.29-2.292c-1.266,0-2.291,1.028-2.291,2.292v1.135h-1.153c-1.255,0.008-2.28,1.037-2.28,2.295v5.137v6.846
		v6.857v6.857c0,0.322,0.263,0.582,0.581,0.582h6.858h6.858h6.843h6.854c0.318,0,0.578-0.26,0.578-0.582v-6.857v-6.857v-6.846
		v-5.137C48.573,23.234,47.55,22.207,46.268,22.197z M33.717,30.208v5.688h-5.699v-5.688H33.717z M40.561,30.208v5.688h-5.687
		v-5.688H40.561z M47.415,30.208v5.688H41.72v-5.688H47.415z M26.858,35.896H21.16v-5.688h5.698V35.896z M21.16,37.054h5.698v5.697
		H21.16V37.054z M28.018,37.054h5.698v5.697h-5.698V37.054z M34.874,37.054h5.688v5.697h-5.688V37.054z M41.72,37.054h5.695v5.697
		H41.72V37.054z M41.72,21.062c0-0.625,0.508-1.133,1.133-1.133s1.131,0.508,1.131,1.133v1.715v1.715
		c0,0.625-0.506,1.133-1.131,1.133s-1.133-0.508-1.133-1.133v-1.715V21.062z M24.589,21.062c0-0.625,0.506-1.133,1.134-1.133
		c0.624,0,1.13,0.508,1.13,1.133v1.715v1.715c0,0.625-0.506,1.133-1.13,1.133c-0.628,0-1.134-0.508-1.134-1.133v-1.715V21.062z
		 M21.16,24.492c0-0.621,0.506-1.131,1.146-1.135h1.125v1.135c0,1.264,1.025,2.291,2.291,2.291c1.264,0,2.29-1.027,2.29-2.291
		v-1.135h12.549v1.135c0,1.264,1.028,2.291,2.291,2.291c1.267,0,2.294-1.027,2.294-2.291v-1.135h1.143
		c0.621,0.004,1.127,0.514,1.127,1.135v4.559H41.23h-0.091h-0.086h-6.665h-0.092h-0.088h-6.771H21.16V24.492z M21.16,43.912h5.698
		v5.697H21.16V43.912z M28.018,43.912h5.698v5.697h-5.698V43.912z M34.874,43.912h5.688v5.697h-5.688V43.912z M47.415,49.609H41.72
		v-5.697h5.695V49.609z"/>
</g>
</svg>
