<?xml version="1.0" encoding="utf-8"?>
<!-- Generator: Adobe Illustrator 16.2.1, SVG Export Plug-In . SVG Version: 6.00 Build 0)  -->
<!DOCTYPE svg PUBLIC "-//W3C//DTD SVG 1.1//EN" "http://www.w3.org/Graphics/SVG/1.1/DTD/svg11.dtd">
<svg version="1.1" id="svg-source" xmlns="http://www.w3.org/2000/svg" xmlns:xlink="http://www.w3.org/1999/xlink" x="0px" y="0px"
	 width="33.751px" height="33.75px" viewBox="280.67 225.945 33.751 33.75" enable-background="new 280.67 225.945 33.751 33.75"
	 xml:space="preserve">
<g id="link">
	<g id="Expanded">
		<g>
			<g>
				<path fill="#666666" d="M288.993,258.917c-1.634,0-3.17-0.638-4.325-1.792l-1.237-1.235c-2.385-2.384-2.385-6.265,0-8.647
					l8.032-8.032c1.155-1.155,2.69-1.792,4.325-1.792c1.634,0,3.17,0.637,4.325,1.792l1.235,1.235c0.341,0.343,0.341,0.895,0,1.235
					c-0.343,0.342-0.896,0.342-1.235,0l-1.236-1.235c-0.824-0.824-1.922-1.279-3.088-1.279c-1.167,0-2.265,0.456-3.09,1.279
					l-8.031,8.03c-1.703,1.703-1.703,4.475,0,6.179l1.235,1.235c0.825,0.824,1.922,1.28,3.09,1.28c1.167,0,2.264-0.456,3.088-1.28
					l5.561-5.562c0.342-0.342,0.896-0.342,1.235,0c0.343,0.343,0.343,0.895,0,1.234l-5.561,5.562
					C292.162,258.281,290.626,258.917,288.993,258.917z"/>
			</g>
			<g>
				<path fill="#666666" d="M299.496,248.414c-1.634,0-3.17-0.638-4.326-1.792c-0.341-0.343-0.341-0.896,0-1.235
					c0.342-0.342,0.894-0.342,1.236,0c0.824,0.824,1.921,1.279,3.089,1.279c1.166,0,2.265-0.455,3.088-1.279l8.033-8.032
					c1.701-1.703,1.701-4.474,0-6.177l-1.235-1.238c-1.703-1.703-4.476-1.703-6.179,0l-5.562,5.562
					c-0.342,0.342-0.894,0.342-1.235,0c-0.342-0.342-0.342-0.895,0-1.236l5.561-5.561c2.385-2.385,6.265-2.385,8.649,0l1.234,1.235
					c2.385,2.385,2.385,6.266,0,8.648l-8.031,8.032C302.666,247.776,301.128,248.414,299.496,248.414z"/>
			</g>
		</g>
	</g>
</g>
</svg>
