<?xml version="1.0" encoding="utf-8"?>
<!-- Generator: Adobe Illustrator 16.2.1, SVG Export Plug-In . SVG Version: 6.00 Build 0)  -->
<!DOCTYPE svg PUBLIC "-//W3C//DTD SVG 1.1//EN" "http://www.w3.org/Graphics/SVG/1.1/DTD/svg11.dtd">
<svg version="1.1" id="Layer_1" xmlns="http://www.w3.org/2000/svg" xmlns:xlink="http://www.w3.org/1999/xlink" x="0px" y="0px"
	 width="22px" height="22px" viewBox="0 0 128.395 113.58" enable-background="new 0 0 128.395 113.58"
	 xml:space="preserve">
<path fill="#30A8C7" d="M55.282,104.959c-26.526,0-48.107-21.58-48.107-48.105c0-26.528,21.581-48.109,48.107-48.109
	c12.041,0,23.572,4.49,32.466,12.644c8.836,8.102,14.314,19.096,15.42,30.956l0.281,3.003L114.499,44.3
	c0.777-0.775,1.811-1.203,2.91-1.203c1.098,0,2.129,0.427,2.904,1.202c1.6,1.602,1.6,4.212,0,5.818l-19.289,19.298
	c-0.766,0.762-1.826,1.2-2.906,1.2c-1.096,0-2.131-0.428-2.912-1.204L75.917,50.116c-0.777-0.778-1.207-1.81-1.207-2.907
	s0.43-2.129,1.207-2.906c0.777-0.777,1.809-1.205,2.906-1.205s2.129,0.428,2.906,1.205l13.592,13.595l-0.256-3.773
	c-1.422-20.837-18.896-37.159-39.783-37.159c-21.994,0-39.888,17.894-39.888,39.888c0,10.638,4.153,20.649,11.693,28.19
	c7.54,7.54,17.552,11.694,28.189,11.694c0.001,0,0.001,0,0.002,0c8.119,0,15.92-2.416,22.567-6.987
	c0.689-0.474,1.492-0.724,2.324-0.724c1.357,0,2.625,0.666,3.391,1.781c0.623,0.906,0.855,1.999,0.656,3.078
	c-0.201,1.079-0.809,2.016-1.713,2.637C74.481,102.043,65.067,104.959,55.282,104.959z"/>
</svg>
