<svg id="Calque_1" data-name="Calque 1" xmlns="http://www.w3.org/2000/svg" viewBox="0 0 283.46 283.46"><defs><style>.cls-1{fill:#fff;}</style></defs><title>ADYOULIKE_Black_RGB</title><rect width="283.46" height="283.46"/><path class="cls-1" d="M120.18,74.17a21.65,21.65,0,0,0,4.6-13.94,21.76,21.76,0,0,0-4.66-14,18.34,18.34,0,0,0-14.74-7.18H89.05V81.34h16.33A18.51,18.51,0,0,0,120.18,74.17ZM95.45,45.51H106a12.3,12.3,0,0,1,9,4.5,16.29,16.29,0,0,1,3.46,10.22A16.47,16.47,0,0,1,115,70.52a11,11,0,0,1-9,4.41H95.45Z" transform="translate(0.11 0.04)"/><path class="cls-1" d="M160.91,162.86c13.12,0,16.25-7.8,16.25-14.28v-28h-6.5v28c0,7.3-6,8.39-9.75,8.39s-9.74-1.09-9.74-8.39v-28h-6.51v28C144.66,155.06,147.79,162.86,160.91,162.86Z" transform="translate(0.11 0.04)"/><polygon class="cls-1" points="54.53 202.08 47.87 202.08 47.87 244.33 68.94 244.33 68.94 238.29 54.53 238.29 54.53 202.08"/><rect class="cls-1" x="103.75" y="202.08" width="6.4" height="42.25"/><polygon class="cls-1" points="177.13 202.08 168.22 202.08 151.62 219.53 151.62 202.08 145.12 202.08 145.12 244.33 151.62 244.33 151.62 225.26 167.94 244.33 176.85 244.33 157.26 222.06 177.13 202.08"/><polygon class="cls-1" points="197.5 244.33 220.24 244.33 220.24 238.29 204 238.29 204 226.1 220.24 226.1 220.24 220.28 204 220.28 204 208.11 220.24 208.11 220.24 202.08 197.5 202.08 197.5 244.33"/><path class="cls-1" d="M77.5,120.55,61.43,143.37v19.49H55.11V143.37L39,120.55h7l12.28,17.8,12.29-17.8Z" transform="translate(0.11 0.04)"/><path class="cls-1" d="M77.5,81.34h-7L65.22,69.71H51.3L46,81.34H39L58.26,39.09ZM63.1,64.46,58.26,53.19,53.42,64.46Z" transform="translate(0.11 0.04)"/><rect class="cls-1" x="238.29" y="238.29" width="6.04" height="6.03"/><path class="cls-1" d="M106.82,120.54a21.17,21.17,0,1,0,21.65,21.16A21.41,21.41,0,0,0,106.82,120.54Zm0,36a14.88,14.88,0,1,1,15.23-14.88A15.06,15.06,0,0,1,106.82,156.58Z" transform="translate(0.11 0.04)"/></svg>