<?xml version="1.0" encoding="utf-8"?>
<!-- Generator: Adobe Illustrator 21.1.0, SVG Export Plug-In . SVG Version: 6.00 Build 0)  -->
<svg version="1.1" id="Archive" xmlns="http://www.w3.org/2000/svg" xmlns:xlink="http://www.w3.org/1999/xlink" x="0px" y="0px"
	 viewBox="0 0 28.4 28.4" style="enable-background:new 0 0 28.4 28.4;" xml:space="preserve">
<style type="text/css">
	.st0{fill:#FFFFFF;}
</style>
<title>archive-blue</title>
<path class="st0" d="M27.2,6.7c0-0.1,0-0.2-0.1-0.3C27,6.1,26.8,6,26.5,5.9L14.6,0.1C14.3,0,14,0,13.7,0.1l-12,5.8
	C1.4,6.1,1.2,6.4,1.2,6.8v14.7c0,0.4,0.2,0.7,0.6,0.9l12,5.8l0.4,0.1V28l0,0v0.3h0.1h0.1l0,0l12.3-5.9c0.3-0.2,0.6-0.5,0.6-0.9
	L27.2,6.7L27.2,6.7z M13.1,13.3v12.4l-10-4.9V8.4L13.1,13.3z M15.1,13.3l4.4-2.1v3c0,0.6,0.4,1,1,1s1-0.4,1-1v-4l3.7-1.8v12.4
	l-10.1,4.9V13.3z M11,3.7l3.1-1.6l9.8,4.7l-3.2,1.6L11,3.7z M18.5,9.5l-4.3,2.1L4.4,6.8l4.3-2.1L18.5,9.5z"/>
</svg>
