<svg id="wizard-display" xmlns="http://www.w3.org/2000/svg" viewBox="0 0 28.36 28.35"><defs><style>.cls-1{fill:#FFFFFF;}</style></defs><title>wizard-display</title><path class="cls-1" d="M28.35,2.09A2.09,2.09,0,0,0,26.26,0H2A2,2,0,0,0,0,2V26.26a2.09,2.09,0,0,0,2.09,2.09H26.26a2.09,2.09,0,0,0,2.09-2.09V2.09Zm-2.08,22.6a1.59,1.59,0,0,1-1.59,1.59h-21a1.59,1.59,0,0,1-1.59-1.59V3.61A1.59,1.59,0,0,1,3.66,2h21a1.59,1.59,0,0,1,1.59,1.59V24.68Zm0,0" transform="translate(0.01)"/><path class="cls-1" d="M26.43,23.45c-2.14-3.17-4.78-6-5.63-6a1.41,1.41,0,0,0-1.17.6,5.31,5.31,0,0,1-4.14,1.65c-2.29,0-3.4-2-4.38-3.7C10,14,9.19,12.79,7.61,12.79c-3,0-5.06,4.44-5.63,6.15l-2-.65c0.1-.31,2.55-7.6,7.62-7.6,2.92,0,4.25,2.35,5.32,4.24,0.92,1.63,1.54,2.63,2.56,2.63a3.29,3.29,0,0,0,2.71-1.08,3.34,3.34,0,0,1,2.73-1.17c2.45,0.14,6.17,5.36,7.25,7Z" transform="translate(0.01)"/><path class="cls-1" d="M17,11.79a3.86,3.86,0,1,1,3.86-3.86A3.87,3.87,0,0,1,17,11.79Zm0-5.63a1.76,1.76,0,1,0,1.76,1.76A1.77,1.77,0,0,0,17,6.16Z" transform="translate(0.01)"/></svg>
