<?xml version="1.0" encoding="utf-8"?>
<!-- Generator: Adobe Illustrator 21.1.0, SVG Export Plug-In . SVG Version: 6.00 Build 0)  -->
<svg version="1.1" id="Desktop" xmlns="http://www.w3.org/2000/svg" xmlns:xlink="http://www.w3.org/1999/xlink" x="0px" y="0px"
	 viewBox="0 0 28.4 23.7" style="enable-background:new 0 0 28.4 23.7;" xml:space="preserve">
<style type="text/css">
	.st0{fill:#FFFFFF;}
</style>
<title>device-desktop-blue</title>
<path class="st0" d="M26.8,0H1.5C0.7,0.1,0.1,0.7,0,1.5v16.6c0,0.3,0.1,0.6,0.2,0.9c0.3,0.5,0.8,0.9,1.4,0.9h9.1v2.3H9.1
	c-0.4,0-0.7,0.4-0.7,0.9c0,0.4,0.3,0.6,0.7,0.7h10.2c0.4,0,0.8-0.3,0.9-0.7c0-0.4-0.3-0.8-0.7-0.9c-0.1,0-0.1,0-0.2,0h-1.7v-2.3h9.1
	c0.6,0,1.2-0.3,1.4-0.9c0.2-0.3,0.2-0.5,0.2-0.8V1.5C28.3,0.7,27.6,0.1,26.8,0L26.8,0z M26.8,1.6v16.5c0,0.1,0,0.1-0.1,0.1h-25
	c-0.1,0-0.1,0-0.1-0.1V1.5h25.3L26.8,1.6L26.8,1.6z"/>
</svg>
