<?xml version="1.0" encoding="utf-8"?>
<!-- Generator: Adobe Illustrator 21.1.0, SVG Export Plug-In . SVG Version: 6.00 Build 0)  -->
<svg version="1.1" id="Download" xmlns="http://www.w3.org/2000/svg" xmlns:xlink="http://www.w3.org/1999/xlink" x="0px" y="0px"
	 viewBox="0 0 28.4 28.4" style="enable-background:new 0 0 28.4 28.4;" xml:space="preserve">
<style type="text/css">
	.st0{fill:#FFFFFF;}
</style>
<title>download</title>
<path class="st0" d="M23.1,14.7c0.4-0.4,0.4-1,0.1-1.4c0,0,0,0-0.1-0.1c-0.4-0.4-1-0.4-1.4,0l0,0l-6.5,6.5V1c0-0.6-0.4-1-1-1
	s-1,0.4-1,1v18.7l-6.5-6.4c-0.4-0.4-1.1-0.4-1.5,0s-0.4,1.1,0,1.5l0,0l8.2,8.2c0.4,0.4,1.1,0.4,1.5,0L23.1,14.7z M26.3,21.8
	c0-0.6,0.4-1,1-1s1,0.4,1,1v5.5c0,0.6-0.4,1-1,1H1c-0.6,0-1-0.4-1-1v-5.5c0-0.6,0.4-1,1-1s1,0.4,1,1v4.5h24.3V21.8z"/>
</svg>
