<?xml version="1.0" encoding="utf-8"?>
<!-- Generator: Adobe Illustrator 21.1.0, SVG Export Plug-In . SVG Version: 6.00 Build 0)  -->
<svg version="1.1" id="Happy_face_blue" xmlns="http://www.w3.org/2000/svg" xmlns:xlink="http://www.w3.org/1999/xlink" x="0px"
	 y="0px" viewBox="0 0 28.4 28.4" style="enable-background:new 0 0 28.4 28.4;" xml:space="preserve">
<style type="text/css">
	.st0{fill:#FFFFFF;}
</style>
<title>smiley-blue</title>
<path class="st0" d="M14.2,2.1c6.7,0,12.1,5.4,12.1,12.1s-5.4,12.1-12.1,12.1S2.1,20.8,2.1,14.2C2.1,7.5,7.5,2.1,14.2,2.1 M14.2,0
	C6.3,0,0,6.4,0,14.2s6.4,14.2,14.2,14.2s14.2-6.3,14.2-14.2S22,0,14.2,0L14.2,0z"/>
<circle class="st0" cx="10.2" cy="10.1" r="2.2"/>
<circle class="st0" cx="18.1" cy="10.1" r="2.2"/>
<path class="st0" d="M14.2,21.9c-6.1,0-7.7-4.5-7.7-4.7c-0.2-0.6,0.1-1.1,0.7-1.3c0.6-0.2,1.1,0.1,1.3,0.7c0.1,0.1,1.2,3.3,5.7,3.3
	s5.7-3.1,5.7-3.3c0.2-0.5,0.8-0.8,1.3-0.7c0.5,0.1,0.8,0.7,0.7,1.2v0.1C21.8,17.3,20.3,21.9,14.2,21.9z"/>
</svg>
