<svg id="Website" xmlns="http://www.w3.org/2000/svg" viewBox="0 0 28.35 28.35"><defs><style>.cls-1{fill:#000000;}.cls-2{fill:#000000;}.cls-3{fill:#000000;}</style></defs><title>placement-website-sec</title><path class="cls-1" d="M26.81,2.8H1.53A1.67,1.67,0,0,0,0,4.3V23.91a1.63,1.63,0,0,0,.22.83,1.55,1.55,0,0,0,1.44.85h25a1.55,1.55,0,0,0,1.44-.85,1.68,1.68,0,0,0,.24-.83V4.3a1.71,1.71,0,0,0-1.54-1.5Zm0,21.11c0,.1,0,.14-.14.14h-25c-.1,0-.14,0-.14-.14V5.3H26.81Zm0-19.48"/><rect class="cls-2" x="25.79" y="3.54" width="1.02" height="1.02"/><rect class="cls-2" x="23.77" y="3.54" width="1.02" height="1.02"/><rect class="cls-2" x="21.75" y="3.54" width="1.02" height="1.02"/><rect class="cls-3" x="5.18" y="6.49" width="18.25" height="0.94"/><rect class="cls-3" x="5.18" y="8.49" width="18.25" height="0.94"/><rect class="cls-3" x="5.18" y="10.49" width="18.25" height="0.94"/><rect class="cls-3" x="5.18" y="13.49" width="5.28" height="4.28"/><rect class="cls-3" x="5.18" y="18.77" width="5.28" height="0.94"/><rect class="cls-3" x="5.18" y="18.77" width="5.28" height="0.94"/><rect class="cls-3" x="5.18" y="20.77" width="5.28" height="0.94"/><rect class="cls-3" x="18.15" y="13.49" width="5.28" height="4.28"/><rect class="cls-3" x="18.15" y="18.77" width="5.28" height="0.94"/><rect class="cls-3" x="18.15" y="18.77" width="5.28" height="0.94"/><rect class="cls-3" x="18.15" y="20.77" width="5.28" height="0.94"/><rect class="cls-1" x="11.66" y="13.49" width="5.28" height="4.28"/><rect class="cls-1" x="11.66" y="18.77" width="5.28" height="0.94"/><rect class="cls-1" x="11.66" y="18.77" width="5.28" height="0.94"/><rect class="cls-1" x="11.66" y="20.77" width="5.28" height="0.94"/></svg>
