<?xml version="1.0" encoding="utf-8"?>
<!-- Generator: Adobe Illustrator 21.1.0, SVG Export Plug-In . SVG Version: 6.00 Build 0)  -->
<svg version="1.1" id="Remove" xmlns="http://www.w3.org/2000/svg" xmlns:xlink="http://www.w3.org/1999/xlink" x="0px" y="0px"
	 viewBox="0 0 28.4 28.4" style="enable-background:new 0 0 28.4 28.4;" xml:space="preserve">
<style type="text/css">
	.st0{fill:#000000;}
</style>
<title>remove-blue</title>
<path class="st0" d="M25.6,26.6c-0.3,0-0.5-0.1-0.7-0.3L1.9,3.4C1.5,3,1.5,2.3,1.9,1.9s1.1-0.4,1.5,0l22.9,22.9
	c0.4,0.3,0.5,1,0.2,1.4C26.3,26.5,25.9,26.7,25.6,26.6L25.6,26.6z"/>
<path class="st0" d="M2.7,26.6c-0.5,0.1-1.1-0.3-1.1-0.9C1.5,25.3,1.7,25,2,24.8L24.8,1.9c0.4-0.4,1.1-0.4,1.5,0s0.4,1.1,0,1.5l0,0
	L3.4,26.3C3.2,26.5,3,26.6,2.7,26.6z"/>
</svg>
