<?xml version="1.0" encoding="utf-8"?>
<!-- Generator: Adobe Illustrator 19.0.0, SVG Export Plug-In . SVG Version: 6.00 Build 0)  -->
<svg version="1.1" id="Layer_1" xmlns="http://www.w3.org/2000/svg" xmlns:xlink="http://www.w3.org/1999/xlink" x="0px" y="0px"
	 viewBox="592 257.1 1796.8 279.9" style="enable-background:new 592 257.1 1796.8 279.9;" xml:space="preserve">
<style type="text/css">
	.st0{fill:#FFFFFF;}
</style>
<path class="st0" d="M1681.8,466.4v-85.3c0-15.2-3.7-26.8-11-34.7c-7.3-7.9-17.5-11.8-30.4-11.8s-23.1,3.9-30.5,11.8
	c-7.4,7.9-11.1,19.4-11.1,34.7v85.3h-25v-151h25v24.5c10.3-18,26.7-26.9,49.2-26.9c16.7,0,30.6,5.5,41.8,16.6
	c11.2,11.1,16.8,26.9,16.8,47.4v89.4H1681.8L1681.8,466.4z M1864.1,466.4v-30.8c-5,9.9-12.2,17.9-21.9,24.1
	c-9.6,6.1-20.9,9.2-33.7,9.2c-20.5,0-37.7-7.4-51.4-22.1c-13.7-14.8-20.6-33.6-20.6-56.7c0-23,6.8-41.6,20.5-55.8
	c13.7-14.2,30.8-21.3,51.6-21.3c12.8,0,24.1,3,33.7,9.1s16.9,13.9,21.9,23.7v-30.4h25.3v151H1864.1L1864.1,466.4z M1849.1,350
	c-10-10.3-22-15.4-36-15.4s-26,4.9-36,14.9c-10,9.9-15,23.4-15,40.4s5,30.9,15.1,41.5c10.1,10.6,22.1,16,36,16s25.9-5.1,35.9-15.4
	s15-23.9,15-41C1864.1,374,1859.1,360.3,1849.1,350L1849.1,350z M2020.3,341c-7.2-4.9-16-7.4-26.4-7.4c-14.3,0-25.8,5-34.5,15
	s-13.1,24.1-13.1,42.4c0,18.2,4.4,32.4,13.1,42.3c8.7,10,20.2,15,34.5,15c21.5,0,35.3-9.3,41.5-28.1h26.9
	c-4.6,14.9-12.7,26.7-24.3,35.5c-11.6,8.8-26.4,13.2-44.1,13.2c-21.6,0-39.2-7.2-52.8-21.5c-13.6-14.3-20.4-33.1-20.4-56.5
	s6.8-42.2,20.4-56.5c13.6-14.3,31.2-21.5,52.8-21.5c18.1,0,33,4.2,44.4,12.7c11.5,8.4,19.5,20.4,24.1,36h-26.9
	C2032.5,352.8,2027.5,345.9,2020.3,341L2020.3,341z M2120.4,286.2c-3.3,3.3-7.3,4.9-12.1,4.9s-8.8-1.6-12-4.9
	c-3.2-3.3-4.8-7.3-4.8-12.1s1.6-8.8,4.9-12.1c3.3-3.3,7.3-4.9,12-4.9c4.7,0,8.7,1.6,12,4.9c3.3,3.3,4.9,7.3,4.9,12.1
	C2125.4,278.9,2123.7,283,2120.4,286.2L2120.4,286.2z M2120.7,466.4h-25v-151h25V466.4L2120.7,466.4z M2196.9,441.9
	c2.8,2.7,7.6,4.1,14.6,4.1h20.6v20.4h-25.3c-26.2,0-39.3-12.9-39.3-38.8v-91.8H2148v-20.4h19.5V278h25.3v37.4h39v20.4h-39v91.8
	C2192.8,434.4,2194.1,439.1,2196.9,441.9L2196.9,441.9z M2297.8,537H2272l30-73.1l-59.7-148.5h27.5l46.2,122.1l47-122.1h25.9
	L2297.8,537L2297.8,537z"/>
<path class="st0" d="M719.6,466.4v-30.8c-4.9,9.9-12.2,17.9-21.9,24.1c-9.6,6.1-20.9,9.2-33.7,9.2c-20.5,0-37.7-7.4-51.4-22.1
	C598.9,432,592,413.1,592,390.1s6.8-41.6,20.5-55.8c13.6-14.3,30.8-21.4,51.5-21.4c12.8,0,24.1,3,33.7,9.1
	c9.6,6.1,16.9,13.9,21.9,23.6v-30.2h25.3v151H719.6L719.6,466.4z M704.6,350c-10-10.3-22-15.4-36-15.4s-26,4.9-36,14.9
	c-10,9.9-15,23.4-15,40.4s5,30.9,15.1,41.5c10.1,10.6,22.1,15.9,36,15.9c13.9,0,25.9-5.1,35.9-15.4c10-10.3,15-23.9,15-41
	C719.6,373.8,714.6,360.3,704.6,350L704.6,350z M903.8,466.4v-30.8c-5,9.9-12.2,17.9-21.9,24.1c-9.6,6.1-20.9,9.2-33.7,9.2
	c-20.5,0-37.7-7.4-51.4-22.1c-13.8-14.8-20.6-33.6-20.6-56.7c0-23,6.8-41.6,20.5-55.8c13.7-14.2,30.8-21.3,51.6-21.3
	c12.8,0,24.1,3,33.7,9.1s16.9,13.9,21.9,23.6v-82.8h25.3v203.5H903.8L903.8,466.4z M888.9,350c-10-10.3-22-15.4-36-15.4
	s-26,4.9-36,14.9c-10,9.9-15,23.4-15,40.4s5,30.9,15.1,41.5c10.1,10.6,22.1,15.9,36,15.9s25.9-5.1,35.9-15.4c10-10.3,15-23.9,15-41
	C903.9,373.8,898.9,360.3,888.9,350L888.9,350z M1005.3,441.9c2.7,2.8,7.6,4.1,14.6,4.1h20.6v20.3h-25.3
	c-26.2,0-39.3-12.9-39.3-38.8v-91.8h-19.5v-20.3h19.5V278h25.3v37.4h39.1v20.3h-39.1v91.9C1001.2,434.4,1002.6,439.1,1005.3,441.9
	L1005.3,441.9z M1203.9,399.6h-120.2c0.7,15,5.5,26.9,14.2,35.6s19.8,13.1,33.4,13.1c10.3,0,18.9-2.3,26-6.9
	c7.1-4.6,12.2-10.6,15.5-18.1h27c-4.8,13.2-13,24.1-24.6,32.7c-11.6,8.6-26.3,12.9-43.9,12.9c-21.6,0-39.2-7.2-52.8-21.4
	c-13.6-14.3-20.3-33.2-20.3-56.7s6.9-42.3,20.6-56.5c13.8-14.2,31.6-21.3,53.5-21.3c21.9,0,39.5,6.7,52.8,20.2
	c13.3,13.5,19.9,30.7,19.9,51.6C1205,390,1204.6,395,1203.9,399.6L1203.9,399.6z M1165.1,346.6c-9-8.7-20.1-13.1-33.4-13.1
	s-24.3,4.3-33.1,12.8c-8.8,8.5-13.7,20.2-14.6,35.1h94.9C1178.7,366.9,1174.1,355.3,1165.1,346.6L1165.1,346.6z M1325.7,341
	c-7.2-4.9-15.9-7.4-26.4-7.4c-14.3,0-25.8,5-34.5,15c-8.7,10-13.1,24.1-13.1,42.4c0,18.2,4.4,32.4,13.1,42.4s20.2,15,34.5,15
	c21.5,0,35.3-9.3,41.5-28h26.9c-4.6,14.9-12.7,26.7-24.3,35.5s-26.4,13.2-44.1,13.2c-21.6,0-39.2-7.2-52.8-21.4
	c-13.6-14.3-20.3-33.1-20.3-56.5c0-23.4,6.8-42.2,20.3-56.5c13.6-14.3,31.2-21.5,52.8-21.5c18.2,0,33,4.2,44.4,12.6
	c11.5,8.4,19.5,20.4,24.1,36h-26.9C1337.9,352.8,1332.8,345.9,1325.7,341L1325.7,341z M1509.1,466.4v-85.3c0-15.2-3.7-26.8-11-34.6
	c-7.3-7.9-17.5-11.8-30.4-11.8s-23.1,3.9-30.5,11.8c-7.4,7.9-11.1,19.4-11.1,34.6v85.3h-25V262.9h25v77c10.3-18,26.7-27,49.2-27
	c16.7,0,30.6,5.5,41.8,16.6c11.2,11.1,16.8,26.9,16.8,47.4v89.4h-24.8V466.4z"/>
</svg>
