<?xml version="1.0" encoding="utf-8"?>
<!-- Generator: Adobe Illustrator 25.0.0, SVG Export Plug-In . SVG Version: 6.00 Build 0)  -->
<svg version="1.1" id="Layer_1" xmlns="http://www.w3.org/2000/svg" xmlns:xlink="http://www.w3.org/1999/xlink" x="0px" y="0px"
	 viewBox="0 0 24 24" style="enable-background:new 0 0 24 24;" xml:space="preserve">
<style type="text/css">
	.st0{fill:#555F7B;}
</style>
<path class="st0" d="M23.2,0.7C22.6,0.2,21.8-0.1,21,0c-1.2,0.1-2.7,0.9-4.5,2.5c-3.8,3.3-7.9,8.8-9.2,10.7c-1.8-0.2-3.6,0.5-4.8,2
	c-1.1,1.3-1.1,2.6-1.2,3.7s-0.1,2.1-1,3C0,22.1,0,22.4,0,22.7c0.1,0.3,0.3,0.6,0.5,0.7C1.6,23.8,2.8,24,4,24c2.2,0,4.5-0.8,5.8-2.2
	c1.2-1.3,1.8-3.1,1.5-4.7c1.8-1.4,7.3-5.8,10.4-9.7c1.5-1.8,2.2-3.3,2.3-4.6C24,2,23.7,1.3,23.2,0.7z M12.1,14.1
	c-0.6,0.5-1.1,0.9-1.5,1.2c-0.4-0.6-0.9-1.1-1.5-1.5c0.3-0.4,0.7-1,1.2-1.6L12.1,14.1z M22.1,2.8c-0.1,2.6-5.9,7.8-8.5,10.1
	l-2.2-2.2c2.1-2.7,7.1-8.5,9.7-8.8c0.3,0,0.6,0,0.7,0.2C22.1,2.2,22.1,2.5,22.1,2.8z M8.4,20.5c-1.1,1.1-3.6,2-6,1.4
	c0.6-1,0.6-2,0.7-2.9c0.1-1,0.1-1.9,0.8-2.8C4.5,15.5,5.5,15,6.4,15c0.8-0.1,1.6,0.2,2.2,0.8C10.1,17.3,9.4,19.5,8.4,20.5z"/>
</svg>
