<?xml version="1.0" encoding="utf-8"?>
<!-- Generator: Adobe Illustrator 16.2.1, SVG Export Plug-In . SVG Version: 6.00 Build 0)  -->
<!DOCTYPE svg PUBLIC "-//W3C//DTD SVG 1.1//EN" "http://www.w3.org/Graphics/SVG/1.1/DTD/svg11.dtd">
<svg version="1.1" id="Layer_1" xmlns="http://www.w3.org/2000/svg" xmlns:xlink="http://www.w3.org/1999/xlink" x="0px" y="0px"
	 width="68.571px" height="65.714px" viewBox="0 0 68.571 65.714" enable-background="new 0 0 68.571 65.714" xml:space="preserve">
<g id="user1">
	<g>
		<g>
			<path fill="#010101" d="M40.388,32.965c1.461-1.576,2.361-3.676,2.361-5.988c0-4.865-3.958-8.824-8.824-8.824
				s-8.824,3.959-8.824,8.824c0,2.312,0.9,4.412,2.361,5.988c-3.711,3.205-6.377,9.094-6.888,16.125
				c-0.021,0.273,0.075,0.545,0.263,0.746s0.449,0.316,0.726,0.316h24.727c0.275,0,0.537-0.115,0.726-0.316
				c0.187-0.201,0.282-0.471,0.263-0.746C46.765,42.059,44.099,36.17,40.388,32.965 M33.925,20.131c3.774,0,6.847,3.072,6.847,6.848
				c0,3.773-3.072,6.844-6.847,6.844c-3.773,0-6.846-3.07-6.846-6.846S30.151,20.131,33.925,20.131 M22.645,48.174
				c0.659-6.201,3.073-11.293,6.306-13.914c1.418,0.973,3.13,1.543,4.976,1.543s3.557-0.57,4.975-1.543
				c3.232,2.621,5.646,7.713,6.308,13.914H22.645z"/>
		</g>
	</g>
</g>
</svg>
